<svg xmlns="http://www.w3.org/2000/svg" xmlns:xlink="http://www.w3.org/1999/xlink" viewBox="0 0 64 64"><defs><style>.cls-1{fill:#ccd3eb;}.cls-2{fill:#f5f7ff;}.cls-3{fill:#647499;}.cls-4{fill:#96a1c3;}.cls-5{fill:#0074ff;}.cls-6{fill:url(#linear-gradient);}.cls-7{fill:url(#linear-gradient-2);}.cls-8{fill:url(#linear-gradient-3);}.cls-9{fill:url(#linear-gradient-11);}.cls-10{fill:url(#linear-gradient-12);}.cls-11{fill:url(#linear-gradient-20);}.cls-12{fill:url(#linear-gradient-28);}.cls-13{fill:#033c59;}</style><linearGradient id="linear-gradient" x1="41" y1="32" x2="43" y2="32" gradientUnits="userSpaceOnUse"><stop offset="0" stop-color="#54a5ff"/><stop offset="1" stop-color="#8ad3fe"/></linearGradient><linearGradient id="linear-gradient-2" x1="38" x2="46" xlink:href="#linear-gradient"/><linearGradient id="linear-gradient-3" x1="17" y1="16" x2="23" y2="16" gradientUnits="userSpaceOnUse"><stop offset="0" stop-color="#fe9661"/><stop offset="1" stop-color="#ffb369"/></linearGradient><linearGradient id="linear-gradient-11" x1="37" x2="43" xlink:href="#linear-gradient-3"/><linearGradient id="linear-gradient-12" x1="29" y1="6" x2="31" y2="6" xlink:href="#linear-gradient-3"/><linearGradient id="linear-gradient-20" x1="20.51" y1="8.93" x2="25.34" y2="8.93" xlink:href="#linear-gradient-3"/><linearGradient id="linear-gradient-28" x1="34.66" y1="8.93" x2="39.49" y2="8.93" xlink:href="#linear-gradient-3"/></defs><title>Ambulance</title><g id="Ambulance"><path class="cls-1" d="M42,39a7,7,0,1,1,7-7A7,7,0,0,1,42,39ZM58,20H18.39a2,2,0,0,0-1.88,1.3l-1,2.7H25V36H10.82a1.55,1.55,0,0,1-.45.36L5,39.42a2,2,0,0,0-1,1.74V43H6a3,3,0,0,1,2.12,5.12l-.21.19A3,3,0,0,1,6,49H4v4a2,2,0,0,0,2,2h5a5,5,0,0,1,9-3,4.94,4.94,0,0,1,1,3H44a4.94,4.94,0,0,1,1-3,5,5,0,0,1,7.35-.71A4.94,4.94,0,0,1,53.9,54a4.62,4.62,0,0,1,.1,1h4a2,2,0,0,0,2-2V22A2,2,0,0,0,58,20Z"/><path class="cls-2" d="M60,19.77V36.14a22.05,22.05,0,0,1-1,6.64c-1.28,4-3.69,7.17-6.65,8.51a7.83,7.83,0,0,1-3.23.71H14.88a7.67,7.67,0,0,1-2.52-.43,10.19,10.19,0,0,1-4.45-3.26A16.63,16.63,0,0,1,5.06,43a22.56,22.56,0,0,1-.73-2.94A2,2,0,0,1,5,39.42l5.36-3.06a1.55,1.55,0,0,0,.45-.36H25V24H15.5l1-2.7A2,2,0,0,1,18.39,20H54a1,1,0,0,1,1-1h3A3,3,0,0,1,60,19.77Z"/><path class="cls-1" d="M45,55a1,1,0,0,1-1,1H21a1,1,0,0,1,0-2H44A1,1,0,0,1,45,55Z"/><path class="cls-1" d="M47,20a1,1,0,0,1-1,1H18.39a1,1,0,0,0-.95.66l-5.25,14a3,3,0,0,1-1.33,1.56L5.51,40.29a1,1,0,0,0-.51.87V53a1,1,0,0,0,1,1h5a1,1,0,0,1,0,2H6a3,3,0,0,1-3-3V41.16a3,3,0,0,1,1.51-2.61l5.36-3.06a.92.92,0,0,0,.44-.51l5.26-14A3,3,0,0,1,18.39,19H46A1,1,0,0,1,47,20Z"/><path class="cls-1" d="M52,20a1,1,0,0,1-1,1H50a1,1,0,0,1,0-2h1A1,1,0,0,1,52,20Z"/><path class="cls-1" d="M61,22V53a3,3,0,0,1-3,3H54a1,1,0,0,1-.1-2H58a1,1,0,0,0,1-1V22a1,1,0,0,0-1-1H55a1,1,0,0,1,0-2h3a3,3,0,0,1,3,3Z"/><path class="cls-3" d="M21,55a5,5,0,0,1-9.39,2.39A4.93,4.93,0,0,1,11,55a5,5,0,0,1,5-5,4.93,4.93,0,0,1,2.39.61A5,5,0,0,1,21,55Z"/><path class="cls-3" d="M54,55a5,5,0,0,1-9.39,2.39A4.93,4.93,0,0,1,44,55a5,5,0,0,1,5-5,4.93,4.93,0,0,1,2.39.61A5,5,0,0,1,54,55Z"/><path class="cls-4" d="M19,53a5,5,0,0,1-5,5,4.93,4.93,0,0,1-2.39-.61A4.93,4.93,0,0,1,11,55a5,5,0,0,1,5-5,4.93,4.93,0,0,1,2.39.61A4.93,4.93,0,0,1,19,53Z"/><path class="cls-4" d="M52,53a5,5,0,0,1-5,5,4.93,4.93,0,0,1-2.39-.61A4.93,4.93,0,0,1,44,55a5,5,0,0,1,5-5,4.93,4.93,0,0,1,2.39.61A4.93,4.93,0,0,1,52,53Z"/><path class="cls-4" d="M25,24V36H10.82a1.72,1.72,0,0,0,.43-.68l.68-1.82L15.5,24Z"/><path class="cls-1" d="M22.5,24h0A9.5,9.5,0,0,1,13,33.5H11.93L15.5,24Z"/><path class="cls-5" d="M45.85,26.15a7,7,0,0,0-7.7,0A7,7,0,0,0,35,32a6.92,6.92,0,0,0,1.15,3.85,7,7,0,0,0,11.7,0A6.92,6.92,0,0,0,49,32,7,7,0,0,0,45.85,26.15Z"/><path class="cls-6" d="M42,36a1,1,0,0,1-1-1V29a1,1,0,0,1,2,0v6A1,1,0,0,1,42,36Z"/><path class="cls-7" d="M45,33H39a1,1,0,0,1,0-2h6a1,1,0,0,1,0,2Z"/><path class="cls-5" d="M34,16v4H26V16a4,4,0,0,1,8,0Z"/><path class="cls-8" d="M22,17H18a1,1,0,0,1,0-2h4a1,1,0,0,1,0,2Z"/><path class="cls-8" d="M22,17H18a1,1,0,0,1,0-2h4a1,1,0,0,1,0,2Z"/><path class="cls-8" d="M22,17H18a1,1,0,0,1,0-2h4a1,1,0,0,1,0,2Z"/><path class="cls-8" d="M22,17H18a1,1,0,0,1,0-2h4a1,1,0,0,1,0,2Z"/><path class="cls-8" d="M22,17H18a1,1,0,0,1,0-2h4a1,1,0,0,1,0,2Z"/><path class="cls-8" d="M22,17H18a1,1,0,0,1,0-2h4a1,1,0,0,1,0,2Z"/><path class="cls-8" d="M22,17H18a1,1,0,0,1,0-2h4a1,1,0,0,1,0,2Z"/><path class="cls-8" d="M22,17H18a1,1,0,0,1,0-2h4a1,1,0,0,1,0,2Z"/><path class="cls-9" d="M42,17H38a1,1,0,0,1,0-2h4a1,1,0,0,1,0,2Z"/><path class="cls-10" d="M30,9a1,1,0,0,1-1-1V4a1,1,0,0,1,2,0V8A1,1,0,0,1,30,9Z"/><path class="cls-10" d="M30,9a1,1,0,0,1-1-1V4a1,1,0,0,1,2,0V8A1,1,0,0,1,30,9Z"/><path class="cls-10" d="M30,9a1,1,0,0,1-1-1V4a1,1,0,0,1,2,0V8A1,1,0,0,1,30,9Z"/><path class="cls-10" d="M30,9a1,1,0,0,1-1-1V4a1,1,0,0,1,2,0V8A1,1,0,0,1,30,9Z"/><path class="cls-10" d="M30,9a1,1,0,0,1-1-1V4a1,1,0,0,1,2,0V8A1,1,0,0,1,30,9Z"/><path class="cls-10" d="M30,9a1,1,0,0,1-1-1V4a1,1,0,0,1,2,0V8A1,1,0,0,1,30,9Z"/><path class="cls-10" d="M30,9a1,1,0,0,1-1-1V4a1,1,0,0,1,2,0V8A1,1,0,0,1,30,9Z"/><path class="cls-10" d="M30,9a1,1,0,0,1-1-1V4a1,1,0,0,1,2,0V8A1,1,0,0,1,30,9Z"/><path class="cls-11" d="M24.34,11.34a1,1,0,0,1-.7-.29L20.81,8.22a1,1,0,0,1,1.41-1.41l2.83,2.83a1,1,0,0,1,0,1.41A1,1,0,0,1,24.34,11.34Z"/><path class="cls-11" d="M24.34,11.34a1,1,0,0,1-.7-.29L20.81,8.22a1,1,0,0,1,1.41-1.41l2.83,2.83a1,1,0,0,1,0,1.41A1,1,0,0,1,24.34,11.34Z"/><path class="cls-11" d="M24.34,11.34a1,1,0,0,1-.7-.29L20.81,8.22a1,1,0,0,1,1.41-1.41l2.83,2.83a1,1,0,0,1,0,1.41A1,1,0,0,1,24.34,11.34Z"/><path class="cls-11" d="M24.34,11.34a1,1,0,0,1-.7-.29L20.81,8.22a1,1,0,0,1,1.41-1.41l2.83,2.83a1,1,0,0,1,0,1.41A1,1,0,0,1,24.34,11.34Z"/><path class="cls-11" d="M24.34,11.34a1,1,0,0,1-.7-.29L20.81,8.22a1,1,0,0,1,1.41-1.41l2.83,2.83a1,1,0,0,1,0,1.41A1,1,0,0,1,24.34,11.34Z"/><path class="cls-11" d="M24.34,11.34a1,1,0,0,1-.7-.29L20.81,8.22a1,1,0,0,1,1.41-1.41l2.83,2.83a1,1,0,0,1,0,1.41A1,1,0,0,1,24.34,11.34Z"/><path class="cls-11" d="M24.34,11.34a1,1,0,0,1-.7-.29L20.81,8.22a1,1,0,0,1,1.41-1.41l2.83,2.83a1,1,0,0,1,0,1.41A1,1,0,0,1,24.34,11.34Z"/><path class="cls-11" d="M24.34,11.34a1,1,0,0,1-.7-.29L20.81,8.22a1,1,0,0,1,1.41-1.41l2.83,2.83a1,1,0,0,1,0,1.41A1,1,0,0,1,24.34,11.34Z"/><path class="cls-12" d="M35.66,11.34a1,1,0,0,1-.71-.29,1,1,0,0,1,0-1.41l2.83-2.83a1,1,0,0,1,1.41,1.41l-2.83,2.83A1,1,0,0,1,35.66,11.34Z"/><path class="cls-5" d="M9,46a3,3,0,0,1-3,3H4V43H6A3,3,0,0,1,9,46Z"/><path class="cls-13" d="M16,61a6,6,0,1,1,6-6A6,6,0,0,1,16,61Zm0-10a4,4,0,1,0,4,4A4,4,0,0,0,16,51Z"/><path class="cls-13" d="M49,61a6,6,0,1,1,6-6A6,6,0,0,1,49,61Zm0-10a4,4,0,1,0,4,4A4,4,0,0,0,49,51Z"/><path class="cls-13" d="M45,55a1,1,0,0,1-1,1H21a1,1,0,0,1,0-2H44A1,1,0,0,1,45,55Z"/><path class="cls-13" d="M61,22V53a3,3,0,0,1-3,3H54a1,1,0,0,1-.1-2H58a1,1,0,0,0,1-1V22a1,1,0,0,0-1-1H55a1,1,0,0,1,0-2h3a3,3,0,0,1,3,3Z"/><path class="cls-13" d="M47,20a1,1,0,0,1-1,1H18.39a1,1,0,0,0-.95.66l-5.25,14a3,3,0,0,1-1.33,1.56L5.51,40.29a1,1,0,0,0-.51.87V53a1,1,0,0,0,1,1h5a1,1,0,0,1,0,2H6a3,3,0,0,1-3-3V41.16a3,3,0,0,1,1.51-2.61l5.36-3.06a.92.92,0,0,0,.44-.51l5.26-14A3,3,0,0,1,18.39,19H46A1,1,0,0,1,47,20Z"/><path class="cls-13" d="M52,20a1,1,0,0,1-1,1H50a1,1,0,0,1,0-2h1A1,1,0,0,1,52,20Z"/><path class="cls-13" d="M42,40a8,8,0,1,1,8-8A8,8,0,0,1,42,40Zm0-14a6,6,0,1,0,6,6A6,6,0,0,0,42,26Z"/><path class="cls-2" d="M42,36a1,1,0,0,1-1-1V29a1,1,0,0,1,2,0v6A1,1,0,0,1,42,36Z"/><path class="cls-2" d="M45,33H39a1,1,0,0,1,0-2h6a1,1,0,0,1,0,2Z"/><path class="cls-13" d="M34,21H26a1,1,0,0,1-1-1V16a5,5,0,0,1,10,0v4A1,1,0,0,1,34,21Zm-7-2h6V16a3,3,0,0,0-6,0Z"/><path class="cls-13" d="M22,17H18a1,1,0,0,1,0-2h4a1,1,0,0,1,0,2Z"/><path class="cls-13" d="M22,17H18a1,1,0,0,1,0-2h4a1,1,0,0,1,0,2Z"/><path class="cls-13" d="M22,17H18a1,1,0,0,1,0-2h4a1,1,0,0,1,0,2Z"/><path class="cls-13" d="M22,17H18a1,1,0,0,1,0-2h4a1,1,0,0,1,0,2Z"/><path class="cls-13" d="M22,17H18a1,1,0,0,1,0-2h4a1,1,0,0,1,0,2Z"/><path class="cls-13" d="M22,17H18a1,1,0,0,1,0-2h4a1,1,0,0,1,0,2Z"/><path class="cls-13" d="M22,17H18a1,1,0,0,1,0-2h4a1,1,0,0,1,0,2Z"/><path class="cls-13" d="M22,17H18a1,1,0,0,1,0-2h4a1,1,0,0,1,0,2Z"/><path class="cls-13" d="M42,17H38a1,1,0,0,1,0-2h4a1,1,0,0,1,0,2Z"/><path class="cls-13" d="M30,9a1,1,0,0,1-1-1V4a1,1,0,0,1,2,0V8A1,1,0,0,1,30,9Z"/><path class="cls-13" d="M30,9a1,1,0,0,1-1-1V4a1,1,0,0,1,2,0V8A1,1,0,0,1,30,9Z"/><path class="cls-13" d="M30,9a1,1,0,0,1-1-1V4a1,1,0,0,1,2,0V8A1,1,0,0,1,30,9Z"/><path class="cls-13" d="M30,9a1,1,0,0,1-1-1V4a1,1,0,0,1,2,0V8A1,1,0,0,1,30,9Z"/><path class="cls-13" d="M30,9a1,1,0,0,1-1-1V4a1,1,0,0,1,2,0V8A1,1,0,0,1,30,9Z"/><path class="cls-13" d="M30,9a1,1,0,0,1-1-1V4a1,1,0,0,1,2,0V8A1,1,0,0,1,30,9Z"/><path class="cls-13" d="M30,9a1,1,0,0,1-1-1V4a1,1,0,0,1,2,0V8A1,1,0,0,1,30,9Z"/><path class="cls-13" d="M30,9a1,1,0,0,1-1-1V4a1,1,0,0,1,2,0V8A1,1,0,0,1,30,9Z"/><path class="cls-13" d="M24.34,11.34a1,1,0,0,1-.7-.29L20.81,8.22a1,1,0,0,1,1.41-1.41l2.83,2.83a1,1,0,0,1,0,1.41A1,1,0,0,1,24.34,11.34Z"/><path class="cls-13" d="M24.34,11.34a1,1,0,0,1-.7-.29L20.81,8.22a1,1,0,0,1,1.41-1.41l2.83,2.83a1,1,0,0,1,0,1.41A1,1,0,0,1,24.34,11.34Z"/><path class="cls-13" d="M24.34,11.34a1,1,0,0,1-.7-.29L20.81,8.22a1,1,0,0,1,1.41-1.41l2.83,2.83a1,1,0,0,1,0,1.41A1,1,0,0,1,24.34,11.34Z"/><path class="cls-13" d="M24.34,11.34a1,1,0,0,1-.7-.29L20.81,8.22a1,1,0,0,1,1.41-1.41l2.83,2.83a1,1,0,0,1,0,1.41A1,1,0,0,1,24.34,11.34Z"/><path class="cls-13" d="M24.34,11.34a1,1,0,0,1-.7-.29L20.81,8.22a1,1,0,0,1,1.41-1.41l2.83,2.83a1,1,0,0,1,0,1.41A1,1,0,0,1,24.34,11.34Z"/><path class="cls-13" d="M24.34,11.34a1,1,0,0,1-.7-.29L20.81,8.22a1,1,0,0,1,1.41-1.41l2.83,2.83a1,1,0,0,1,0,1.41A1,1,0,0,1,24.34,11.34Z"/><path class="cls-13" d="M24.34,11.34a1,1,0,0,1-.7-.29L20.81,8.22a1,1,0,0,1,1.41-1.41l2.83,2.83a1,1,0,0,1,0,1.41A1,1,0,0,1,24.34,11.34Z"/><path class="cls-13" d="M24.34,11.34a1,1,0,0,1-.7-.29L20.81,8.22a1,1,0,0,1,1.41-1.41l2.83,2.83a1,1,0,0,1,0,1.41A1,1,0,0,1,24.34,11.34Z"/><path class="cls-13" d="M35.66,11.34a1,1,0,0,1-.71-.29,1,1,0,0,1,0-1.41l2.83-2.83a1,1,0,0,1,1.41,1.41l-2.83,2.83A1,1,0,0,1,35.66,11.34Z"/><path class="cls-13" d="M25,37H10.82a1,1,0,0,1,0-2H24V25H15.5a1,1,0,0,1,0-2H25a1,1,0,0,1,1,1V36A1,1,0,0,1,25,37Z"/><path class="cls-13" d="M6,50H4a1,1,0,0,1-1-1V43a1,1,0,0,1,1-1H6a4,4,0,0,1,0,8ZM5,48H6a2,2,0,0,0,0-4H5Z"/></g></svg>