<svg xmlns="http://www.w3.org/2000/svg" viewBox="0 0 64 64"><defs><style>.cls-1{fill:#0074ff;}.cls-2{fill:#ccd3eb;}.cls-3{fill:#f5f7ff;}.cls-4{fill:#033c59;}</style></defs><title>Antibiotic</title><g id="Antibiotic"><path class="cls-1" d="M48.24,50h-20a10,10,0,0,1,20,0Z"/><path class="cls-2" d="M48.24,50a10,10,0,0,1-18,6s0,0,0,0a10,10,0,0,1-2-6Z"/><path class="cls-3" d="M46,50a10,10,0,0,1-15.78,6s0,0,0,0a10,10,0,0,1-2-6Z"/><path class="cls-1" d="M60.24,23.74h-14a7,7,0,0,1,14,0Z"/><path class="cls-2" d="M60.24,23.74A7,7,0,0,1,46.73,26.3a6.78,6.78,0,0,1-.49-2.56Z"/><path class="cls-3" d="M59,23.74A7,7,0,0,1,46.73,26.3a6.78,6.78,0,0,1-.49-2.56Z"/><path class="cls-1" d="M32.68,16.21,24,25l-9.9-9.9.25-.25,8.48-8.49a7,7,0,0,1,9.9,9.9Z"/><path class="cls-2" d="M24,25l-8.24,8.23a7,7,0,0,1-9.9,0,7.1,7.1,0,0,1-2-4.95,7,7,0,0,1,2.05-4.95l8.24-8.23Z"/><path class="cls-3" d="M21.45,22.45l-7.74,7.73a7,7,0,0,1-9.57.3,6.69,6.69,0,0,1-.38-2.25,7,7,0,0,1,2.05-4.95l8.24-8.23Z"/><path class="cls-4" d="M38.24,61a11,11,0,1,1,11-11A11,11,0,0,1,38.24,61Zm0-20a9,9,0,1,0,9,9A9,9,0,0,0,38.24,41Z"/><path class="cls-4" d="M48,51H28.24a1,1,0,1,1,0-2H48a1,1,0,0,1,0,2Z"/><path class="cls-4" d="M53.24,31.74a8,8,0,1,1,8-8A8,8,0,0,1,53.24,31.74Zm0-14a6,6,0,1,0,6,6A6,6,0,0,0,53.24,17.74Z"/><path class="cls-4" d="M60.24,24.74h-14a1,1,0,0,1,0-2h14a1,1,0,0,1,0,2Z"/><path class="cls-4" d="M18.88,11.21a1,1,0,0,1-.71-.29,1,1,0,0,1,0-1.42l.76-.76a1,1,0,1,1,1.42,1.42l-.76.76A1,1,0,0,1,18.88,11.21Z"/><path class="cls-4" d="M10.76,36.22a8,8,0,0,1-8-8,7.88,7.88,0,0,1,2.35-5.66L15.5,12.17a1,1,0,1,1,1.42,1.42L6.52,24a6,6,0,0,0,0,8.48,6,6,0,0,0,8.48,0l17-17A6,6,0,0,0,32,7a5.94,5.94,0,0,0-4.24-1.77h0A6,6,0,0,0,23.49,7l-.33.33a1,1,0,0,1-1.42-1.42l.33-.33a8,8,0,0,1,5.65-2.35h0a8,8,0,0,1,5.66,13.67l-17,17A8,8,0,0,1,10.76,36.22Z"/><path class="cls-4" d="M24.19,25.69a1,1,0,0,1-.7-.29l-9.9-9.9A1,1,0,0,1,15,14.09L24.9,24a1,1,0,0,1,0,1.41A1,1,0,0,1,24.19,25.69Z"/></g></svg>