<svg xmlns="http://www.w3.org/2000/svg" viewBox="0 0 64 64"><defs><style>.cls-1{fill:#96a1c3;}.cls-2{fill:none;stroke:#000;stroke-linecap:round;stroke-linejoin:round;stroke-width:2px;}.cls-3{fill:#ccd3eb;}.cls-4{fill:#b4cde1;}.cls-5{fill:#0074ff;}.cls-6{fill:#033c59;}.cls-7{fill:#647499;}</style></defs><title>Bandage</title><g id="Bandage"><path class="cls-1" d="M58.82,19.3,46.14,32h0l-1.49-1.5-1.45-1.45L32,17.88h0v0L44.67,5.17a6,6,0,0,1,5.89-1.53,5.87,5.87,0,0,1,2.6,1.52l5.66,5.66A6,6,0,0,1,58.82,19.3Z"/><path class="cls-2" d="M42.61,48.26a1,1,0,0,1-1.42,0,1,1,0,0,1,0-1.41,1,1,0,0,1,1.42,0A1,1,0,0,1,42.61,48.26Zm5.65-5.65a1,1,0,0,1-1.41,0,1,1,0,0,1,0-1.42,1,1,0,0,1,1.41,0A1,1,0,0,1,48.26,42.61Z"/><path class="cls-1" d="M58.82,53.18l-5.66,5.66a6,6,0,0,1-5.74,1.55,5.87,5.87,0,0,1-2.75-1.56L32,46.15h0L17.85,32h0L5.18,19.3a6,6,0,0,1,0-8.48l5.66-5.66a5.87,5.87,0,0,1,2.74-1.55,6,6,0,0,1,5.75,1.56L32,17.85v0h0L43.19,29.05,46.13,32h0L58.82,44.7A6,6,0,0,1,58.82,53.18Z"/><path class="cls-3" d="M55.82,54.18l-5.66,5.66a5.87,5.87,0,0,1-2.74,1.55,5.87,5.87,0,0,1-2.75-1.56L32,47.15h0L17.85,33h0L5.18,20.3a6,6,0,0,1,0-8.48l5.66-5.66,0,0a3.93,3.93,0,0,1,5.44,0l0,0L29,18.85v0h0L40.19,30.05,43.13,33h0L55.82,45.7A6,6,0,0,1,55.82,54.18Z"/><path class="cls-1" d="M32,46.14h0L19.33,58.83a6,6,0,0,1-8.49,0L5.18,53.18a5.9,5.9,0,0,1-1.53-2.62A6,6,0,0,1,5.18,44.7L17.85,32,30.5,44.65Z"/><path class="cls-3" d="M56.82,18.3,44.64,30.5l-1.45-1.45L32,17.88h0v0L44.67,5.17a6,6,0,0,1,5.89-1.53,4.86,4.86,0,0,1,.6.52l5.66,5.66A6,6,0,0,1,56.82,18.3Z"/><path class="cls-3" d="M30.5,44.65,18.33,56.83a6,6,0,0,1-8.49,0L4.18,51.18a4.36,4.36,0,0,1-.53-.62A6,6,0,0,1,5.18,44.7L17.85,32Z"/><path class="cls-4" d="M17.15,13.49a2,2,0,0,1-1.41-.58,2,2,0,0,1,2.82-2.83h0a2,2,0,0,1,0,2.83A2,2,0,0,1,17.15,13.49Z"/><path class="cls-4" d="M11.49,19.15a2,2,0,0,1-1.41-.59,2,2,0,1,1,1.41.59Zm0-2Z"/><path class="cls-4" d="M22.1,18.44a2,2,0,0,1-1.41-.58A2,2,0,0,1,23.51,15h0a2,2,0,0,1,0,2.83A2,2,0,0,1,22.1,18.44Z"/><path class="cls-4" d="M16.44,24.1a2,2,0,1,1,1.42-3.41h0a2,2,0,0,1,0,2.82A2,2,0,0,1,16.44,24.1Zm0-2Z"/><path class="cls-4" d="M47.55,43.9a2,2,0,0,1-1.41-3.42,2.06,2.06,0,0,1,2.83,0,2,2,0,0,1,0,2.84h0A2,2,0,0,1,47.55,43.9Zm0-2h0l.71.71Z"/><path class="cls-4" d="M41.9,49.55a2,2,0,0,1-1.42-3.41,2.07,2.07,0,0,1,2.84,0,2,2,0,0,1,0,2.83h0A2,2,0,0,1,41.9,49.55Zm.71-1.29h0Z"/><path class="cls-4" d="M52.51,48.85a2,2,0,0,1-1.42-.59,2,2,0,0,1,0-2.82,2,2,0,0,1,2.83,0,2,2,0,0,1,0,2.82A2,2,0,0,1,52.51,48.85Zm0-2h0Zm0,0h0Zm0,0h0Zm0,0h0Zm0,0h0Zm0,0Zm0,0Zm0,0Zm0,0Z"/><path class="cls-4" d="M46.85,54.51a2,2,0,0,1-1.42-.59,2,2,0,0,1,0-2.83,2,2,0,0,1,2.82,0h0a2,2,0,0,1,0,2.83A2,2,0,0,1,46.85,54.51Z"/><path class="cls-4" d="M46.85,13.49a2,2,0,0,1-1.42-.58,2,2,0,0,1,0-2.83,2,2,0,0,1,2.82,0,2,2,0,0,1,0,2.83A2,2,0,0,1,46.85,13.49Zm-.71-2.7h0Z"/><path class="cls-4" d="M52.51,19.15a2,2,0,0,1-1.42-3.41h0a2,2,0,0,1,2.83,0,2,2,0,0,1-1.41,3.41Zm-.71-2.71h0Z"/><path class="cls-4" d="M41.9,18.44a2,2,0,0,1-1.41-.58,2,2,0,0,1,0-2.83h0a2,2,0,1,1,1.41,3.41Z"/><path class="cls-4" d="M47.56,24.1a2,2,0,0,1-1.42-.59,2,2,0,0,1,0-2.82h0a2,2,0,0,1,2.83,0,2,2,0,0,1,0,2.82A2,2,0,0,1,47.56,24.1Zm-.71-2.71h0Z"/><path class="cls-4" d="M16.44,43.9A2,2,0,0,1,15,40.49h0a2,2,0,0,1,2.83,0,2,2,0,0,1,0,2.82A2,2,0,0,1,16.44,43.9Z"/><path class="cls-4" d="M22.1,49.56a2,2,0,0,1-1.41-3.42h0a2,2,0,0,1,2.82,0,2,2,0,0,1-1.41,3.42Zm-.71-2.71h0Z"/><path class="cls-4" d="M11.49,48.85a2,2,0,0,1-1.41-3.41h0a2,2,0,1,1,1.41,3.41Z"/><path class="cls-4" d="M17.15,54.5a2,2,0,0,1-1.41-.58,2,2,0,1,1,2.82,0A2,2,0,0,1,17.15,54.5Z"/><rect class="cls-5" x="26.34" y="22.1" width="11.31" height="19.8" rx="3" ry="3" transform="translate(-13.25 32) rotate(-45)"/><path class="cls-6" d="M48.92,61.59h0A7,7,0,0,1,44,59.54L31.29,46.86l-.07-.09L17.14,32.72a1.13,1.13,0,0,1-.1-.13L4.47,20a7,7,0,0,1,0-9.9l5.66-5.66a7,7,0,0,1,4.95-2h0A7,7,0,0,1,20,4.46L32.71,17.14a1.83,1.83,0,0,1,.13.16l1.52,1.52a1,1,0,1,1-1.42,1.42l-1.65-1.65a1.83,1.83,0,0,1-.13-.16L18.62,5.88a4.94,4.94,0,0,0-3.53-1.47h0a5,5,0,0,0-3.53,1.46L5.89,11.53a5,5,0,0,0,0,7.06l12.68,12.7a1.13,1.13,0,0,1,.1.13l14,14,.08.09,12.59,12.6a4.94,4.94,0,0,0,3.53,1.47h0a5,5,0,0,0,3.54-1.46l5.65-5.66a5,5,0,0,0,0-7.06L45.51,32.79l-.09-.08-5.65-5.66a1,1,0,0,1,1.42-1.42l5.57,5.59.05,0L59.53,44a7,7,0,0,1,0,9.9l-5.66,5.66A7,7,0,0,1,48.92,61.59ZM37.66,24.53a1,1,0,0,1-.71-.29l-1.19-1.19a1,1,0,0,1,1.42-1.42l1.19,1.19a1,1,0,0,1,0,1.42A1,1,0,0,1,37.66,24.53Z"/><path class="cls-6" d="M15.08,61.59a7,7,0,0,1-4.95-2L4.47,53.89a7,7,0,0,1,0-9.9L17.14,31.3a1,1,0,0,1,.71-.29h0a1,1,0,0,1,.71.29L32.71,45.43a1,1,0,0,1,.29.71h0a1,1,0,0,1-.29.71L20,59.54a7,7,0,0,1-4.95,2.05Zm2.77-28.17-12,12a5,5,0,0,0,0,7.06l5.66,5.66a5,5,0,0,0,3.53,1.46h0a4.94,4.94,0,0,0,3.53-1.47l12-12Z"/><path class="cls-6" d="M32,18.86a1,1,0,0,1-.89-.55v0a1,1,0,1,1,1.34.47A1,1,0,0,1,32,18.86Z"/><path class="cls-6" d="M32,18.88a1,1,0,0,1-.71-.29,1,1,0,0,1,1.42-1.42,1,1,0,0,1,0,1.41h0A1,1,0,0,1,32,18.88Z"/><path class="cls-7" d="M17.15,13.49a2,2,0,0,1-1.41-.58,2,2,0,0,1,2.82-2.83h0a2,2,0,0,1,0,2.83A2,2,0,0,1,17.15,13.49Z"/><path class="cls-7" d="M11.49,19.15a2,2,0,0,1-1.41-.59,2,2,0,1,1,1.41.59Zm0-2Z"/><path class="cls-7" d="M22.1,18.44a2,2,0,0,1-1.41-.58A2,2,0,0,1,23.51,15h0a2,2,0,0,1,0,2.83A2,2,0,0,1,22.1,18.44Z"/><path class="cls-7" d="M16.44,24.1a2,2,0,1,1,1.42-3.41h0a2,2,0,0,1,0,2.82A2,2,0,0,1,16.44,24.1Zm0-2Z"/><path class="cls-7" d="M47.55,43.9a2,2,0,0,1-1.41-3.42,2.06,2.06,0,0,1,2.83,0,2,2,0,0,1,0,2.84h0A2,2,0,0,1,47.55,43.9Zm0-2h0l.71.71Z"/><path class="cls-7" d="M41.9,49.55a2,2,0,0,1-1.42-3.41,2.07,2.07,0,0,1,2.84,0,2,2,0,0,1,0,2.83h0A2,2,0,0,1,41.9,49.55Zm.71-1.29h0Z"/><path class="cls-7" d="M52.51,48.85a2,2,0,0,1-1.42-.59,2,2,0,0,1,0-2.82,2,2,0,0,1,2.83,0,2,2,0,0,1,0,2.82A2,2,0,0,1,52.51,48.85Zm0-2h0Zm0,0h0Zm0,0h0Zm0,0h0Zm0,0h0Zm0,0Zm0,0Zm0,0Zm0,0Z"/><path class="cls-7" d="M46.85,54.51a2,2,0,0,1-1.42-.59,2,2,0,0,1,0-2.83,2,2,0,0,1,2.82,0h0a2,2,0,0,1,0,2.83A2,2,0,0,1,46.85,54.51Z"/><path class="cls-6" d="M37.66,24.53a1,1,0,0,1-.71-.29l-1.19-1.19a1,1,0,0,1,1.42-1.42l1.19,1.19a1,1,0,0,1,0,1.42A1,1,0,0,1,37.66,24.53Z"/><path class="cls-6" d="M46.14,33a1.06,1.06,0,0,1-.72-.29l-5.65-5.66a1,1,0,0,1,1.42-1.42l5,5,12-12a5,5,0,0,0,0-7.06L52.45,5.87a5,5,0,0,0-3.53-1.46h0a4.94,4.94,0,0,0-3.53,1.47l-12,12,1,1a1,1,0,1,1-1.42,1.42l-1.65-1.65a1,1,0,0,1-.2-1.16,1.15,1.15,0,0,1,.2-.29L44,4.46a7,7,0,0,1,4.95-2h0a7,7,0,0,1,4.95,2l5.66,5.66a7,7,0,0,1,0,9.9L46.85,32.71A1,1,0,0,1,46.14,33Z"/><path class="cls-7" d="M46.85,13.49a2,2,0,0,1-1.42-.58,2,2,0,0,1,0-2.83,2,2,0,0,1,2.82,0,2,2,0,0,1,0,2.83A2,2,0,0,1,46.85,13.49Zm-.71-2.7h0Z"/><path class="cls-7" d="M52.51,19.15a2,2,0,0,1-1.42-3.41h0a2,2,0,0,1,2.83,0,2,2,0,0,1-1.41,3.41Zm-.71-2.71h0Z"/><path class="cls-7" d="M41.9,18.44a2,2,0,0,1-1.41-.58,2,2,0,0,1,0-2.83h0a2,2,0,1,1,1.41,3.41Z"/><path class="cls-7" d="M47.56,24.1a2,2,0,0,1-1.42-.59,2,2,0,0,1,0-2.82h0a2,2,0,0,1,2.83,0,2,2,0,0,1,0,2.82A2,2,0,0,1,47.56,24.1Zm-.71-2.71h0Z"/><path class="cls-7" d="M16.44,43.9A2,2,0,0,1,15,40.49h0a2,2,0,0,1,2.83,0,2,2,0,0,1,0,2.82A2,2,0,0,1,16.44,43.9Z"/><path class="cls-7" d="M22.1,49.56a2,2,0,0,1-1.41-3.42h0a2,2,0,0,1,2.82,0,2,2,0,0,1-1.41,3.42Zm-.71-2.71h0Z"/><path class="cls-7" d="M11.49,48.85a2,2,0,0,1-1.41-3.41h0a2,2,0,1,1,1.41,3.41Z"/><path class="cls-7" d="M17.15,54.5a2,2,0,0,1-1.41-.58,2,2,0,1,1,2.82,0A2,2,0,0,1,17.15,54.5Z"/><path class="cls-6" d="M35,42.76a4,4,0,0,1-2.83-1.17l-9.76-9.76a4,4,0,0,1,0-5.66l3.76-3.76a4,4,0,0,1,5.66,0l9.76,9.76a4,4,0,0,1,0,5.66h0l-3.76,3.76A4,4,0,0,1,35,42.76ZM29,23.24a2,2,0,0,0-1.41.59l-3.76,3.76a2,2,0,0,0,0,2.82l9.76,9.76a2,2,0,0,0,2.82,0l3.76-3.76a2,2,0,0,0,0-2.82l-9.76-9.76A2,2,0,0,0,29,23.24ZM40.88,37.12h0Z"/></g></svg>