<svg xmlns="http://www.w3.org/2000/svg" viewBox="0 0 64 64"><defs><style>.cls-1{fill:#f5f7ff;}.cls-2{fill:#96a1c3;}.cls-3{fill:#ccd3eb;}.cls-4{fill:#f0f7fc;}.cls-5{fill:#0074ff;}.cls-6{fill:#033c59;}</style></defs><title>Blood sample</title><g id="Blood_sample" data-name="Blood sample"><path class="cls-1" d="M18,27v6c-6-2-6,3-12,0V27Z"/><path class="cls-2" d="M18,34V54.22a5.12,5.12,0,0,1-.06.78,5.82,5.82,0,0,1-1.7,3.46,6,6,0,0,1-10-2.57A5.76,5.76,0,0,1,6,54.22V34c5.25,2.62,5.91-.87,10-.45A9.3,9.3,0,0,1,18,34Z"/><path class="cls-3" d="M21,24.5A2.5,2.5,0,0,1,18.5,27H7.5a2.5,2.5,0,0,1-1.77-.73,2.41,2.41,0,0,1-.56-.87A2.44,2.44,0,0,1,5,24.5,2.5,2.5,0,0,1,7.5,22h11A2.49,2.49,0,0,1,21,24.5Z"/><path class="cls-2" d="M38,34V54.22a5.12,5.12,0,0,1-.06.78,6,6,0,0,1-10.18,3.46,5.84,5.84,0,0,1-1.52-2.57A5.76,5.76,0,0,1,26,54.22V34c5.25,2.62,5.91-.87,10-.45A9.3,9.3,0,0,1,38,34Z"/><path class="cls-1" d="M38,27v6c-6-2-6,3-12,0V27Z"/><path class="cls-3" d="M40,24.5A2.5,2.5,0,0,1,37.5,27h-11a2.5,2.5,0,0,1-1.77-.73,2.41,2.41,0,0,1-.56-.87,2.44,2.44,0,0,1-.17-.9A2.5,2.5,0,0,1,26.5,22h11A2.49,2.49,0,0,1,40,24.5Z"/><path class="cls-2" d="M58,34V54.22a5.12,5.12,0,0,1-.06.78,5.82,5.82,0,0,1-1.7,3.46,6,6,0,0,1-10-2.57A5.76,5.76,0,0,1,46,54.22V34c5.25,2.62,5.91-.87,10-.45A9.3,9.3,0,0,1,58,34Z"/><path class="cls-3" d="M16,33.55V51.22a5.12,5.12,0,0,1-.06.78,5.82,5.82,0,0,1-1.7,3.46,6,6,0,0,1-8,.43A5.76,5.76,0,0,1,6,54.22V34C11.25,36.62,11.91,33.13,16,33.55Z"/><path class="cls-3" d="M36,33.55V51.22a5.12,5.12,0,0,1-.06.78A6,6,0,0,1,30,57.22a5.9,5.9,0,0,1-3.76-1.33A5.76,5.76,0,0,1,26,54.22V34C31.25,36.62,31.91,33.13,36,33.55Z"/><path class="cls-3" d="M56,33.55V51.22a5.12,5.12,0,0,1-.06.78,5.82,5.82,0,0,1-1.7,3.46,6,6,0,0,1-8,.43A5.76,5.76,0,0,1,46,54.22V34C51.25,36.62,51.91,33.13,56,33.55Z"/><path class="cls-1" d="M58,27v6c-6-2-6,3-12,0V27Z"/><path class="cls-3" d="M60,24.5A2.5,2.5,0,0,1,57.5,27h-11a2.5,2.5,0,0,1-1.77-.73,2.41,2.41,0,0,1-.56-.87,2.44,2.44,0,0,1-.17-.9A2.5,2.5,0,0,1,46.5,22h11A2.49,2.49,0,0,1,60,24.5Z"/><path class="cls-1" d="M18.05,22.9a2.5,2.5,0,0,1-2.5,2.5H5.17A2.44,2.44,0,0,1,5,24.5,2.5,2.5,0,0,1,7.5,22H17.88A2.44,2.44,0,0,1,18.05,22.9Z"/><path class="cls-1" d="M37.05,22.9a2.5,2.5,0,0,1-2.5,2.5H24.17a2.44,2.44,0,0,1-.17-.9A2.5,2.5,0,0,1,26.5,22H36.88A2.44,2.44,0,0,1,37.05,22.9Z"/><path class="cls-1" d="M57.05,22.9a2.5,2.5,0,0,1-2.5,2.5H44.17a2.44,2.44,0,0,1-.17-.9A2.5,2.5,0,0,1,46.5,22H56.88A2.44,2.44,0,0,1,57.05,22.9Z"/><path class="cls-4" d="M18,52v1.22a5.12,5.12,0,0,1-.06.78H16a1,1,0,0,1,0-2Z"/><path class="cls-4" d="M18,48v2H15a1,1,0,0,1,0-2Z"/><path class="cls-4" d="M18,44v2H16a1,1,0,0,1,0-2Z"/><path class="cls-4" d="M18,36v2H16a1,1,0,0,1,0-2Z"/><path class="cls-4" d="M18,40v2H15a1,1,0,0,1,0-2Z"/><path class="cls-4" d="M38,52v1.22a5.12,5.12,0,0,1-.06.78H36a1,1,0,0,1,0-2Z"/><path class="cls-4" d="M38,48v2H35a1,1,0,0,1,0-2Z"/><path class="cls-4" d="M38,44v2H36a1,1,0,0,1,0-2Z"/><path class="cls-4" d="M38,36v2H36a1,1,0,0,1,0-2Z"/><path class="cls-4" d="M38,40v2H35a1,1,0,0,1,0-2Z"/><path class="cls-4" d="M58,52v1.22a5.12,5.12,0,0,1-.06.78H56a1,1,0,0,1,0-2Z"/><path class="cls-4" d="M58,48v2H55a1,1,0,0,1,0-2Z"/><path class="cls-4" d="M58,44v2H56a1,1,0,0,1,0-2Z"/><path class="cls-4" d="M58,36v2H56a1,1,0,0,1,0-2Z"/><path class="cls-4" d="M58,40v2H55a1,1,0,0,1,0-2Z"/><path class="cls-3" d="M42,7v6H25.47A18.87,18.87,0,0,1,17,11V9a18.87,18.87,0,0,1,8.47-2Z"/><path class="cls-1" d="M42,7v4H25.47A18.87,18.87,0,0,1,17,9a18.87,18.87,0,0,1,8.47-2Z"/><rect class="cls-3" x="42" y="4" width="5" height="12" rx="2" ry="2"/><path class="cls-5" d="M55,10a3,3,0,0,1-3,3H47V7h5a3,3,0,0,1,3,3Z"/><path class="cls-5" d="M14.2,15.7A3.2,3.2,0,0,1,11,18.9a3.27,3.27,0,0,1-1-.16,3.2,3.2,0,0,1-2.2-3c0-1.11,1.26-3,2.2-4.3.55-.76,1-1.3,1-1.3S14.2,13.93,14.2,15.7Z"/><path class="cls-6" d="M6,45a1,1,0,0,1-1-1V43a1,1,0,0,1,2,0v1A1,1,0,0,1,6,45Z"/><path class="cls-6" d="M12,61a7,7,0,0,1-7-7V48a1,1,0,0,1,2,0v6a5,5,0,0,0,10,0V27.78a1,1,0,0,1,2,0V54a7,7,0,0,1-7,7Z"/><path class="cls-6" d="M6,40a1,1,0,0,1-1-1V27.78a1,1,0,0,1,2,0V39A1,1,0,0,1,6,40Z"/><path class="cls-6" d="M17.5,28H6.5a3.5,3.5,0,0,1,0-7h11a3.5,3.5,0,0,1,0,7Zm-11-5a1.5,1.5,0,0,0,0,3h11a1.5,1.5,0,0,0,0-3Z"/><path class="cls-6" d="M32,61a7,7,0,0,1-7-7V27.78a1,1,0,0,1,2,0V54a5,5,0,0,0,10,0V27.78a1,1,0,0,1,2,0V54A7,7,0,0,1,32,61Z"/><path class="cls-6" d="M37.5,28h-11a3.5,3.5,0,0,1,0-7h11a3.5,3.5,0,0,1,0,7Zm-11-5a1.5,1.5,0,0,0,0,3h11a1.5,1.5,0,0,0,0-3Z"/><path class="cls-6" d="M52,61a7,7,0,0,1-7-7V27.78a1,1,0,0,1,2,0V54a5,5,0,0,0,10,0V27.78a1,1,0,0,1,2,0V54A7,7,0,0,1,52,61Z"/><path class="cls-6" d="M57.5,28h-11a3.5,3.5,0,0,1,0-7h11a3.5,3.5,0,0,1,0,7Zm-11-5a1.5,1.5,0,0,0,0,3h11a1.5,1.5,0,0,0,0-3Z"/><path class="cls-6" d="M18,54H16a1,1,0,0,1,0-2h2a1,1,0,0,1,0,2Z"/><path class="cls-6" d="M18,50H15a1,1,0,0,1,0-2h3a1,1,0,0,1,0,2Z"/><path class="cls-6" d="M18,46H16a1,1,0,0,1,0-2h2a1,1,0,0,1,0,2Z"/><path class="cls-6" d="M18,38H16a1,1,0,0,1,0-2h2a1,1,0,0,1,0,2Z"/><path class="cls-6" d="M18,42H15a1,1,0,0,1,0-2h3a1,1,0,0,1,0,2Z"/><path class="cls-6" d="M38,54H36a1,1,0,0,1,0-2h2a1,1,0,0,1,0,2Z"/><path class="cls-6" d="M38,50H35a1,1,0,0,1,0-2h3a1,1,0,0,1,0,2Z"/><path class="cls-6" d="M38,46H36a1,1,0,0,1,0-2h2a1,1,0,0,1,0,2Z"/><path class="cls-6" d="M38,38H36a1,1,0,0,1,0-2h2a1,1,0,0,1,0,2Z"/><path class="cls-6" d="M38,42H35a1,1,0,0,1,0-2h3a1,1,0,0,1,0,2Z"/><path class="cls-6" d="M58,54H56a1,1,0,0,1,0-2h2a1,1,0,0,1,0,2Z"/><path class="cls-6" d="M58,50H55a1,1,0,0,1,0-2h3a1,1,0,0,1,0,2Z"/><path class="cls-6" d="M58,46H56a1,1,0,0,1,0-2h2a1,1,0,0,1,0,2Z"/><path class="cls-6" d="M58,38H56a1,1,0,0,1,0-2h2a1,1,0,0,1,0,2Z"/><path class="cls-6" d="M58,42H55a1,1,0,0,1,0-2h3a1,1,0,0,1,0,2Z"/><path class="cls-6" d="M9.49,35a8.81,8.81,0,0,1-3.94-1.09,1,1,0,0,1-.44-1.34,1,1,0,0,1,1.34-.45c2.73,1.37,3.9.88,5.39.26a8,8,0,0,1,6.48-.31,1,1,0,0,1-.64,1.9,6,6,0,0,0-5.07.25A7.54,7.54,0,0,1,9.49,35Z"/><path class="cls-6" d="M29.49,35a8.81,8.81,0,0,1-3.94-1.09,1,1,0,0,1-.44-1.34,1,1,0,0,1,1.34-.45c2.73,1.37,3.9.88,5.39.26a8,8,0,0,1,6.48-.31,1,1,0,0,1-.64,1.9,6,6,0,0,0-5.07.25A7.54,7.54,0,0,1,29.49,35Z"/><path class="cls-6" d="M49.49,35a8.81,8.81,0,0,1-3.94-1.09,1,1,0,0,1-.44-1.34,1,1,0,0,1,1.34-.45c2.73,1.37,3.9.88,5.39.26a8,8,0,0,1,6.48-.31,1,1,0,0,1-.64,1.9,6,6,0,0,0-5.07.25A7.54,7.54,0,0,1,49.49,35Z"/><path class="cls-6" d="M42,14H25.47a20,20,0,0,1-8.92-2.11A1,1,0,0,1,16,11V9a1,1,0,0,1,.55-.89A20,20,0,0,1,25.47,6H42a1,1,0,0,1,1,1v6A1,1,0,0,1,42,14ZM18,10.37A18,18,0,0,0,25.47,12H41V8H25.47A18,18,0,0,0,18,9.63Z"/><path class="cls-6" d="M45,17H44a3,3,0,0,1-3-3V6a3,3,0,0,1,3-3h1a3,3,0,0,1,3,3v8A3,3,0,0,1,45,17ZM44,5a1,1,0,0,0-1,1v8a1,1,0,0,0,1,1h1a1,1,0,0,0,1-1V6a1,1,0,0,0-1-1Z"/><path class="cls-6" d="M52,14H47a1,1,0,0,1-1-1V7a1,1,0,0,1,1-1h5a4,4,0,0,1,0,8Zm-4-2h4a2,2,0,0,0,0-4H48Z"/><path class="cls-6" d="M11,19.9a4.2,4.2,0,0,1-4.2-4.2c0-2,2.86-5.55,3.43-6.24a1,1,0,0,1,1.54,0c.57.69,3.43,4.21,3.43,6.24A4.2,4.2,0,0,1,11,19.9Zm0-8.19c-1.16,1.55-2.2,3.28-2.2,4a2.2,2.2,0,0,0,4.4,0C13.2,15,12.16,13.26,11,11.71Z"/></g></svg>