<svg xmlns="http://www.w3.org/2000/svg" viewBox="0 0 64 64"><defs><style>.cls-1{fill:#fe9661;}.cls-2{fill:#ccd3eb;}.cls-3{fill:#f5f7ff;}.cls-4{fill:#96a1c3;}.cls-5{fill:#0074ff;}.cls-6{fill:#033c59;}.cls-7{fill:#647499;}</style></defs><title>Blood transfusion</title><g id="Blood_transfusion" data-name="Blood transfusion"><path class="cls-1" d="M39,61H26a7,7,0,0,1-7-7,1,1,0,0,1,2,0,5,5,0,0,0,5,5H39a5,5,0,0,0,5-5V16.5a6.5,6.5,0,0,1,13,0V17a1,1,0,0,1-2,0v-.5a4.5,4.5,0,0,0-9,0V54A7,7,0,0,1,39,61Z"/><path class="cls-1" d="M56,39a1,1,0,0,1-1-1V29a1,1,0,0,1,2,0v9A1,1,0,0,1,56,39Z"/><path class="cls-2" d="M31.48,11,31,11H9a4,4,0,0,0-4,4V39A10,10,0,0,0,15,49H25A10,10,0,0,0,35,39V15A4,4,0,0,0,31.48,11ZM12,18a2,2,0,0,1,2-2H26a2,2,0,0,1,2,2v2a2,2,0,0,1-2,2H14a2,2,0,0,1-2-2Zm2.36,20.64c0-3.12,5.64-9.37,5.64-9.37s5.64,6.25,5.64,9.37a5.64,5.64,0,0,1-11.28,0Z"/><path class="cls-3" d="M32,13V37A10,10,0,0,1,22,47H12a9.83,9.83,0,0,1-3.95-.82A9.94,9.94,0,0,1,5,39V15a4,4,0,0,1,4-4H31l.48,0A4,4,0,0,1,32,13Z"/><path class="cls-4" d="M25,49v3a2,2,0,0,1-2,2H17a2,2,0,0,1-2-2V49Z"/><path class="cls-2" d="M23,49v2a2,2,0,0,1-2,2H15.27A2,2,0,0,1,15,52V49Z"/><rect class="cls-4" x="12" y="16" width="16" height="6" rx="2" ry="2"/><path class="cls-5" d="M25.64,38.64a5.64,5.64,0,0,1-11.28,0c0-3.12,5.64-9.37,5.64-9.37S25.64,35.52,25.64,38.64Z"/><path class="cls-2" d="M59,20v9H53V20a3,3,0,0,1,6,0Z"/><path class="cls-6" d="M56,39a1,1,0,0,1-1-1V29a1,1,0,0,1,2,0v9A1,1,0,0,1,56,39Z"/><path class="cls-6" d="M25,50H15A11,11,0,0,1,4,39V15a5,5,0,0,1,5-5H31a5,5,0,0,1,5,5v6a1,1,0,0,1-2,0V15a3,3,0,0,0-3-3H9a3,3,0,0,0-3,3V39a9,9,0,0,0,9,9H25a9,9,0,0,0,9-9V30a1,1,0,0,1,2,0v9A11,11,0,0,1,25,50Z"/><path class="cls-6" d="M35,27a1,1,0,0,1-1-1V25a1,1,0,0,1,2,0v1A1,1,0,0,1,35,27Z"/><path class="cls-6" d="M25,12H15a1,1,0,0,1-1-1V9A6,6,0,0,1,26,9v2A1,1,0,0,1,25,12Zm-9-2h8V9a4,4,0,0,0-8,0Z"/><path class="cls-6" d="M23,55H17a3,3,0,0,1-3-3V49a1,1,0,0,1,1-1H25a1,1,0,0,1,1,1v3A3,3,0,0,1,23,55Zm-7-5v2a1,1,0,0,0,1,1h6a1,1,0,0,0,1-1V50Z"/><path class="cls-6" d="M26,23H14a3,3,0,0,1-3-3V18a3,3,0,0,1,3-3H26a3,3,0,0,1,3,3v2A3,3,0,0,1,26,23ZM14,17a1,1,0,0,0-1,1v2a1,1,0,0,0,1,1H26a1,1,0,0,0,1-1V18a1,1,0,0,0-1-1Z"/><path class="cls-6" d="M20,45.27a6.64,6.64,0,0,1-6.64-6.63c0-3.4,5.29-9.37,5.9-10a1,1,0,0,1,1.48,0c.61.67,5.9,6.64,5.9,10A6.64,6.64,0,0,1,20,45.27Zm0-14.48c-2,2.42-4.64,6.08-4.64,7.85a4.64,4.64,0,0,0,9.28,0C24.64,36.87,22,33.21,20,30.79Z"/><path class="cls-7" d="M39,61H26a7,7,0,0,1-7-7,1,1,0,0,1,2,0,5,5,0,0,0,5,5H39a5,5,0,0,0,5-5V16.5a6.5,6.5,0,0,1,13,0V17a1,1,0,0,1-2,0v-.5a4.5,4.5,0,0,0-9,0V54A7,7,0,0,1,39,61Z"/><path class="cls-6" d="M59,30H53a1,1,0,0,1-1-1V20a4,4,0,0,1,8,0v9A1,1,0,0,1,59,30Zm-5-2h4V20a2,2,0,0,0-4,0Z"/></g></svg>