<svg xmlns="http://www.w3.org/2000/svg" viewBox="0 0 64 64"><defs><style>.cls-1{fill:#647499;}.cls-2{fill:#96a1c3;}.cls-3{fill:#ccd3eb;}.cls-4{fill:#0074ff;}.cls-5{fill:#f0f7fc;}.cls-6{fill:#b4cde1;}.cls-7{fill:#033c59;}.cls-8{fill:#f5f7ff;}</style></defs><title>Blood pressure gauge</title><g id="Blood_pressure_gauge" data-name="Blood pressure gauge"><path class="cls-1" d="M40,55H8A5,5,0,0,1,8,45h3a6,6,0,0,0,6-6,1,1,0,0,1,2,0,8,8,0,0,1-8,8H8a3,3,0,0,0,0,6H40a1,1,0,0,1,0,2Z"/><path class="cls-1" d="M44,47H31a8,8,0,0,1-8-8,1,1,0,0,1,2,0,6,6,0,0,0,6,6H44a6,6,0,0,0,6-6V34a1,1,0,0,1,2,0v5A8,8,0,0,1,44,47Z"/><path class="cls-1" d="M14.36,38A4,4,0,0,0,17,39H8a4,4,0,0,1-2.66-1,4.11,4.11,0,0,1-1.13-1.75A4.16,4.16,0,0,1,4,35V8A4,4,0,0,1,8,4h9a4,4,0,0,0-4,4V35A4,4,0,0,0,14.36,38Z"/><path class="cls-2" d="M37,8V35a4,4,0,0,1-4,4H17a4,4,0,0,1-4-4V8a4,4,0,0,1,4-4H33A4,4,0,0,1,37,8Z"/><path class="cls-3" d="M34,7V28.29A9.71,9.71,0,0,1,24.29,38H14.36A4,4,0,0,1,13,35V8a4,4,0,0,1,4-4H32.64A4,4,0,0,1,34,7Z"/><path class="cls-1" d="M44,54a5.8,5.8,0,0,0,.35,2H41a1,1,0,0,1-1-1V53a1,1,0,0,1,1-1h3.35A5.8,5.8,0,0,0,44,54Z"/><path class="cls-4" d="M60.25,20.25A9.25,9.25,0,1,1,51,11,9.23,9.23,0,0,1,60.25,20.25Z"/><path class="cls-5" d="M51,24a1,1,0,0,1-1-1V19a1,1,0,0,1,2,0v4A1,1,0,0,1,51,24Z"/><path class="cls-5" d="M52,22.27A2,2,0,1,0,53,24,2,2,0,0,0,52,22.27Z"/><path class="cls-2" d="M60,54a6,6,0,0,1-6,6H50a5.94,5.94,0,0,1-4.24-1.76,5.3,5.3,0,0,1-.88-1.12A5.22,5.22,0,0,1,44.35,56a5.89,5.89,0,0,1,0-4A6,6,0,0,1,50,48h4a5.91,5.91,0,0,1,3.12.88,5.3,5.3,0,0,1,1.12.88A5.94,5.94,0,0,1,60,54Z"/><path class="cls-3" d="M58,52a6,6,0,0,1-6,6H48a5.91,5.91,0,0,1-3.12-.88A5.22,5.22,0,0,1,44.35,56a5.89,5.89,0,0,1,0-4A6,6,0,0,1,50,48h4a5.91,5.91,0,0,1,3.12.88A5.91,5.91,0,0,1,58,52Z"/><path class="cls-1" d="M55,28.59V32a2,2,0,0,1-2,2H49a2,2,0,0,1-2-2V28.59a9.25,9.25,0,0,0,8,0Z"/><circle class="cls-6" cx="17.5" cy="9.5" r="1.5"/><circle class="cls-6" cx="17.5" cy="15.5" r="1.5"/><circle class="cls-6" cx="17.5" cy="21.5" r="1.5"/><circle class="cls-6" cx="17.5" cy="27.5" r="1.5"/><circle class="cls-6" cx="17.5" cy="33.5" r="1.5"/><path class="cls-2" d="M10,4V33a5,5,0,0,1-4.68,5,4.11,4.11,0,0,1-1.13-1.75A4.16,4.16,0,0,1,4,35V8A4,4,0,0,1,8,4Z"/><path class="cls-7" d="M22,4a1,1,0,0,1-1,1H8A3,3,0,0,0,5,8v3a1,1,0,0,1-2,0V8A5,5,0,0,1,5,4,4.9,4.9,0,0,1,8,3H21A1,1,0,0,1,22,4Z"/><path class="cls-7" d="M21,39a1,1,0,0,1-1,1H8a5,5,0,0,1-5-5V20a1,1,0,0,1,2,0V35a3,3,0,0,0,3,3H20A1,1,0,0,1,21,39Z"/><path class="cls-7" d="M5,15v1a1,1,0,0,1-2,0V15a1,1,0,0,1,.14-.5A1,1,0,0,1,4,14,1,1,0,0,1,5,15Z"/><path class="cls-7" d="M36,35a3,3,0,0,1-3,3H17a3,3,0,0,1-3-3V8a3,3,0,0,1,3-3H33a3,3,0,0,1,3,3ZM33,3H17a4.94,4.94,0,0,0-3,1,5.26,5.26,0,0,0-1,1,4.94,4.94,0,0,0-1,3V35a4.94,4.94,0,0,0,.08.87A4.86,4.86,0,0,0,13,38a5.26,5.26,0,0,0,1,1,4.94,4.94,0,0,0,3,1H33a5,5,0,0,0,5-5V8A5,5,0,0,0,33,3Z"/><path class="cls-7" d="M44.35,57H41a2,2,0,0,1-2-2V53a2,2,0,0,1,2-2h3.35a1,1,0,0,1,0,2H41v2h3.35a1,1,0,0,1,0,2Z"/><path class="cls-7" d="M53.94,10.43a10.25,10.25,0,1,0,7.31,9.82A10.2,10.2,0,0,0,53.94,10.43ZM42.75,20.25A8.25,8.25,0,1,1,51,28.5a8.26,8.26,0,0,1-8.25-8.25Z"/><path class="cls-8" d="M51,24a1,1,0,0,1-1-1V19a1,1,0,0,1,2,0v4A1,1,0,0,1,51,24Z"/><path class="cls-8" d="M52,22.27A2,2,0,1,0,53,24,2,2,0,0,0,52,22.27Z"/><path class="cls-7" d="M54,61H50a7,7,0,0,1,0-14h4a7,7,0,0,1,0,14ZM50,49a5,5,0,0,0,0,10h4a5,5,0,0,0,0-10Z"/><path class="cls-7" d="M53,35H49a3,3,0,0,1-3-3V28.59a1,1,0,0,1,2,0V32a1,1,0,0,0,1,1h4a1,1,0,0,0,1-1V28.59a1,1,0,0,1,2,0V32A3,3,0,0,1,53,35Z"/><circle class="cls-1" cx="17.5" cy="9.5" r="1.5"/><circle class="cls-1" cx="17.5" cy="15.5" r="1.5"/><circle class="cls-1" cx="17.5" cy="21.5" r="1.5"/><circle class="cls-1" cx="17.5" cy="27.5" r="1.5"/><circle class="cls-1" cx="17.5" cy="33.5" r="1.5"/></g></svg>