<svg xmlns="http://www.w3.org/2000/svg" viewBox="0 0 64 64"><defs><style>.cls-1{fill:#ccd3eb;}.cls-2{fill:#f5f7ff;}.cls-3{fill:#033c59;}.cls-4{fill:#0074ff;}</style></defs><title>Crush bone</title><g id="Crush_bone" data-name="Crush bone"><path class="cls-1" d="M59.58,49.68a8,8,0,0,1-7.88,2,8,8,0,0,1-15.16,5c0-.09-.07-.18-.09-.27A8,8,0,0,1,37.7,49L34.29,45.6l-5.12-5.11L29,39.32l-.54-3.78L34.12,37l-1.41-5.66,5.65,1.42-.7-6.37L48,36.7l1,1a8,8,0,0,1,9.49-.23,6.93,6.93,0,0,1,.91.73l.17.16A8,8,0,0,1,59.58,49.68Z"/><path class="cls-1" d="M28.46,31.29l-5.65-1.41,2.12,6.36L15,26.3a8,8,0,0,1-8.85.63,7.33,7.33,0,0,1-.63-.4,7,7,0,0,1-1.09-.89A8,8,0,0,1,12.3,12.3,8,8,0,0,1,25.64,4.42a7,7,0,0,1,.89,1.09,7.33,7.33,0,0,1,.4.63A8,8,0,0,1,26.3,15l7.11,7.11.71,4.95-7.07-1.41Z"/><path class="cls-2" d="M56.58,45.68a8,8,0,0,1-7.88,2,8,8,0,0,1-12.25,8.77A8,8,0,0,1,37.7,49L34.29,45.6A5.68,5.68,0,0,1,34.7,45L29,39.32l-.54-3.78L34.12,37l-1.41-5.66,5.65,1.42-.7-6.37L48,36.7l1,1a8,8,0,0,1,9.49-.23A8,8,0,0,1,56.58,45.68Z"/><path class="cls-2" d="M28.46,31.29l-5.65-1.41,2.12,6.36L15,26.3a8,8,0,0,1-8.85.63A8,8,0,0,1,15.3,15.3,8,8,0,0,1,26.93,6.14,8,8,0,0,1,26.3,15l7.11,7.11.71,4.95-7.07-1.41Z"/><path class="cls-3" d="M10.09,29a9,9,0,1,1,2.49-17.64A1,1,0,1,1,12,13.26a7,7,0,1,0,2.35,12.25,1,1,0,0,1,1.41.18,1,1,0,0,1-.18,1.4A8.91,8.91,0,0,1,10.09,29Z"/><path class="cls-3" d="M26.3,16a1,1,0,0,1-.61-.21,1,1,0,0,1-.18-1.41A7,7,0,1,0,13.26,12a1,1,0,0,1-1.92.56,9,9,0,1,1,15.75,3A1,1,0,0,1,26.3,16Z"/><path class="cls-3" d="M44,62.92A9,9,0,0,1,36.91,48.4a1,1,0,1,1,1.58,1.23A7,7,0,1,0,50.74,52a1,1,0,0,1,1.92-.56A9,9,0,0,1,44,62.92Z"/><path class="cls-3" d="M53.93,53a9,9,0,0,1-2.51-.36A1,1,0,0,1,52,50.74,7,7,0,0,0,59.62,40a1,1,0,1,1,1.62-1.16A9,9,0,0,1,53.93,53Z"/><path class="cls-3" d="M49,38.7a1,1,0,0,1-.62-1.79,9,9,0,0,1,3.39-1.63,1,1,0,0,1,.48,1.94,6.85,6.85,0,0,0-2.63,1.27A1,1,0,0,1,49,38.7Z"/><path class="cls-3" d="M57.39,37.81a.94.94,0,0,1-.43-.1,6.38,6.38,0,0,0-1.22-.44,1,1,0,0,1,.48-1.94,8.52,8.52,0,0,1,1.6.58,1,1,0,0,1-.43,1.9Z"/><path class="cls-4" d="M21.39,39.36H18.56a1,1,0,0,1,0-2h2.83a1,1,0,0,1,0,2Z"/><path class="cls-4" d="M24.93,45.73a1,1,0,0,1-1-1V41.9a1,1,0,0,1,2,0v2.83A1,1,0,0,1,24.93,45.73Z"/><path class="cls-4" d="M38.36,22.39a1,1,0,0,1-1-1V18.56a1,1,0,0,1,2,0v2.83A1,1,0,0,1,38.36,22.39Z"/><path class="cls-4" d="M44.73,25.93H41.9a1,1,0,0,1,0-2h2.83a1,1,0,0,1,0,2Z"/><path class="cls-3" d="M24.93,37.24a1,1,0,0,1-.71-.29L14.28,27a1,1,0,0,1,0-1.42,1,1,0,0,1,1.41,0l7,7-.78-2.34a1,1,0,0,1,.21-1,1,1,0,0,1,1-.29l4,1-1-4a1,1,0,0,1,.25-.93,1,1,0,0,1,.92-.29l5.68,1.13-.46-3.22-6.88-6.88a1,1,0,0,1,0-1.41,1,1,0,0,1,1.42,0l7.11,7.11a1.06,1.06,0,0,1,.28.57l.71,4.95a1,1,0,0,1-.3.87,1,1,0,0,1-.89.25l-5.52-1.1,1,4.12a1,1,0,0,1-1.21,1.21l-3.89-1,1.55,4.64a1,1,0,0,1-.43,1.16A1,1,0,0,1,24.93,37.24Z"/><path class="cls-3" d="M37.7,50a1,1,0,0,1-.71-.29l-8.53-8.53a1,1,0,0,1-.28-.56l-.71-5a1.06,1.06,0,0,1,.32-.89,1,1,0,0,1,.92-.22l4,1-1-4a1,1,0,0,1,.26-.95,1,1,0,0,1,1-.27l4.26,1.07-.55-4.94a1,1,0,0,1,.56-1,1,1,0,0,1,1.14.2L49.72,37a1,1,0,0,1,0,1.42,1,1,0,0,1-1.41,0L39,29.07l.39,3.53a1,1,0,0,1-.34.86,1,1,0,0,1-.9.22l-4-1,1,4a1,1,0,0,1-.26.95,1,1,0,0,1-.95.26l-4.22-1.05L30.11,40l8.3,8.3a1,1,0,0,1,0,1.41A1,1,0,0,1,37.7,50Z"/></g></svg>