<svg xmlns="http://www.w3.org/2000/svg" viewBox="0 0 64 64"><defs><style>.cls-1{fill:#96a1c3;}.cls-2{fill:#0074ff;}.cls-3{fill:#647499;}.cls-4{fill:#ccd3eb;}.cls-5{fill:#033c59;}</style></defs><title>Crutches</title><g id="Crutches"><path class="cls-1" d="M28,6V7a2,2,0,0,1-2,2H6A2,2,0,0,1,4,7V6A2,2,0,0,1,6,4H26A2,2,0,0,1,28,6Z"/><polygon class="cls-2" points="25 9 25 34 18 42 18 56 14 56 14 42 7 34 7 9 11 9 11 32.5 16 38.21 21 32.5 21 9 25 9"/><path class="cls-3" d="M20,58v2H12V58a2,2,0,0,1,2-2h4A2,2,0,0,1,20,58Z"/><rect class="cls-1" x="11" y="20" width="10" height="4"/><path class="cls-1" d="M60,6V7a2,2,0,0,1-2,2H38a2,2,0,0,1-2-2V6a2,2,0,0,1,2-2H58A2,2,0,0,1,60,6Z"/><path class="cls-4" d="M25,5V6a2,2,0,0,1-2,2H4.27A2,2,0,0,1,4,7V6A2,2,0,0,1,6,4H24.73A2,2,0,0,1,25,5Z"/><path class="cls-4" d="M57,5V6a2,2,0,0,1-2,2H36.27A2,2,0,0,1,36,7V6a2,2,0,0,1,2-2H56.73A2,2,0,0,1,57,5Z"/><polygon class="cls-2" points="57 9 57 34 50 42 50 56 46 56 46 42 39 34 39 9 43 9 43 32.5 48 38.21 53 32.5 53 9 57 9"/><path class="cls-3" d="M52,58v2H44V58a2,2,0,0,1,2-2h4A2,2,0,0,1,52,58Z"/><path class="cls-1" d="M18,59v1H12V58a2,2,0,0,1,.27-1H16A2,2,0,0,1,18,59Z"/><path class="cls-1" d="M50,59v1H44V58a2,2,0,0,1,.27-1H48A2,2,0,0,1,50,59Z"/><rect class="cls-1" x="43" y="20" width="10" height="4"/><path class="cls-5" d="M26,10H6A3,3,0,0,1,3,7V6A3,3,0,0,1,6,3H26a3,3,0,0,1,3,3V7A3,3,0,0,1,26,10ZM6,5A1,1,0,0,0,5,6V7A1,1,0,0,0,6,8H26a1,1,0,0,0,1-1V6a1,1,0,0,0-1-1Z"/><path class="cls-5" d="M18,57H14a1,1,0,0,1-1-1V42.38L6.25,34.66A1,1,0,0,1,6,34V9A1,1,0,0,1,7,8H25a1,1,0,0,1,1,1V34a1,1,0,0,1-.25.66L19,42.38V56A1,1,0,0,1,18,57Zm-3-2h2V42a1,1,0,0,1,.25-.66L24,33.62V10H8V33.62l6.75,7.72A1,1,0,0,1,15,42Z"/><path class="cls-5" d="M16,39.21a1,1,0,0,1-.75-.34l-5-5.71A1,1,0,0,1,10,32.5V9a1,1,0,0,1,1-1H21a1,1,0,0,1,1,1V32.5a1,1,0,0,1-.25.66l-5,5.71A1,1,0,0,1,16,39.21Zm-4-7.09,4,4.57,4-4.57V10H12Z"/><path class="cls-5" d="M20,61H12a1,1,0,0,1-1-1V58a3,3,0,0,1,3-3h4a3,3,0,0,1,3,3v2A1,1,0,0,1,20,61Zm-7-2h6V58a1,1,0,0,0-1-1H14a1,1,0,0,0-1,1Z"/><path class="cls-5" d="M21,25H11a1,1,0,0,1-1-1V20a1,1,0,0,1,1-1H21a1,1,0,0,1,1,1v4A1,1,0,0,1,21,25Zm-9-2h8V21H12Z"/><path class="cls-5" d="M58,10H38a3,3,0,0,1-3-3V6a3,3,0,0,1,3-3H58a3,3,0,0,1,3,3V7A3,3,0,0,1,58,10ZM38,5a1,1,0,0,0-1,1V7a1,1,0,0,0,1,1H58a1,1,0,0,0,1-1V6a1,1,0,0,0-1-1Z"/><path class="cls-5" d="M50,57H46a1,1,0,0,1-1-1V42.38l-6.75-7.72A1,1,0,0,1,38,34V28a1,1,0,0,1,2,0v5.62l6.75,7.72A1,1,0,0,1,47,42V55h2V42a1,1,0,0,1,.25-.66L56,33.62V10H40v9a1,1,0,0,1-2,0V9a1,1,0,0,1,1-1H57a1,1,0,0,1,1,1V34a1,1,0,0,1-.25.66L51,42.38V56A1,1,0,0,1,50,57Z"/><path class="cls-5" d="M39,25a1,1,0,0,1-1-1V23a1,1,0,0,1,2,0v1A1,1,0,0,1,39,25Z"/><path class="cls-5" d="M48,39.21a1,1,0,0,1-.75-.34l-5-5.71A1,1,0,0,1,42,32.5V9a1,1,0,0,1,1-1H53a1,1,0,0,1,1,1V32.5a1,1,0,0,1-.25.66l-5,5.71A1,1,0,0,1,48,39.21Zm-4-7.09,4,4.57,4-4.57V10H44Z"/><path class="cls-5" d="M52,61H44a1,1,0,0,1-1-1V58a3,3,0,0,1,3-3h4a3,3,0,0,1,3,3v2A1,1,0,0,1,52,61Zm-7-2h6V58a1,1,0,0,0-1-1H46a1,1,0,0,0-1,1Z"/><path class="cls-5" d="M53,25H43a1,1,0,0,1-1-1V20a1,1,0,0,1,1-1H53a1,1,0,0,1,1,1v4A1,1,0,0,1,53,25Zm-9-2h8V21H44Z"/></g></svg>