<svg xmlns="http://www.w3.org/2000/svg" viewBox="0 0 64 64"><defs><style>.cls-1{fill:#ccd3eb;}.cls-2{fill:#96a1c3;}.cls-3{fill:#f5f7ff;}.cls-4{fill:#647499;}.cls-5{fill:#b4cde1;}.cls-6{fill:#0074ff;}.cls-7{fill:#033c59;}</style></defs><title>Dentist</title><g id="Dentist"><path class="cls-1" d="M26.67,63h-22l.92-5.52a22.24,22.24,0,0,1,12.33-16.6l-3.25,8.5,4,3.15-3,4.19Z"/><polygon class="cls-1" points="15.67 56 18.67 52 14.67 49 17.92 40.88 18.67 39 22.67 39 22.73 39.32 22.73 39.36 26.67 62 15.67 56"/><path class="cls-1" d="M37.59,56.05,26.67,62l3.94-22.64v0l.06-.32h4l.39,1h0a12.73,12.73,0,0,0-1.73,6.46A13,13,0,0,0,37.59,56.05Z"/><path class="cls-2" d="M30.61,39.36,26.67,62,22.73,39.36h0c.34.93,2,1.64,3.93,1.64s3.59-.71,3.93-1.64Z"/><path class="cls-1" d="M30.67,35.31V39l-.06.32s0,0,0,0c-.34.93-2,1.64-3.93,1.64s-3.59-.71-3.93-1.64c0,0,0,0,0,0L22.67,39V35.31a11.94,11.94,0,0,0,8,0Z"/><path class="cls-3" d="M30.67,35.31V37l-.06.32s0,0,0,0c-.34.93-2,1.64-3.93,1.64s-3.59-.71-3.93-1.64c0,0,0,0,0,0L22.67,37V35.31a11.94,11.94,0,0,0,8,0Z"/><path class="cls-1" d="M38.67,16v8a12,12,0,0,1-8,11.31,11.94,11.94,0,0,1-8,0A12,12,0,0,1,16,29.41,11.83,11.83,0,0,1,14.67,24V16.84a7.48,7.48,0,0,0,5.87-6A8.33,8.33,0,0,0,28,15.47H38.65A4.7,4.7,0,0,1,38.67,16Z"/><path class="cls-3" d="M37,15.47v6.06a12,12,0,0,1-8,11.31,11.94,11.94,0,0,1-8,0,11.92,11.92,0,0,1-5-3.43A11.83,11.83,0,0,1,14.67,24V16.84a7.48,7.48,0,0,0,5.87-6A8.33,8.33,0,0,0,28,15.47Z"/><path class="cls-4" d="M40.67,15.47H28a8.33,8.33,0,0,1-7.46-4.64,7.48,7.48,0,0,1-5.87,6,6.85,6.85,0,0,1-1.51.16h-.49V15.47A13.47,13.47,0,0,1,26.14,2H27.2A13.47,13.47,0,0,1,40.67,15.47Z"/><path class="cls-1" d="M14.67,17v8a4,4,0,1,1,0-8Z"/><path class="cls-1" d="M42.67,21a4,4,0,0,1-4,4V17A4,4,0,0,1,42.67,21Z"/><path class="cls-5" d="M26.67,33a4,4,0,0,1-2.83-1.17,1,1,0,1,1,1.42-1.42,2,2,0,0,0,2.82,0,1,1,0,1,1,1.42,1.42A4,4,0,0,1,26.67,33Z"/><path class="cls-6" d="M46.33,33.43A13,13,0,0,0,35.06,40h0a12.73,12.73,0,0,0-1.73,6.46,13,13,0,0,0,13,13,12.76,12.76,0,0,0,1.87-.14,13,13,0,0,0-1.87-25.86ZM54,43.28,52.6,52.13a2,2,0,0,1-2,1.69H49.33a1,1,0,0,1-1-1v-4a2,2,0,0,0-2.34-2,2.09,2.09,0,0,0-1.66,2.09v3.88a1,1,0,0,1-1,1H42a2,2,0,0,1-2-1.69l-1.39-8.85a4,4,0,0,1,5-4.13l1.24.31a6,6,0,0,0,2.92,0L49,39.15A4,4,0,0,1,54,43.28Z"/><path class="cls-1" d="M54,43.28l-.33,2.08L52.6,52.13a2,2,0,0,1-2,1.69H49.33a1,1,0,0,1-1-1v-4a2,2,0,0,0-2.34-2,2.09,2.09,0,0,0-1.66,2.09v3.88a1,1,0,0,1-1,1H42a2,2,0,0,1-2-1.69l-1.35-8.62,0-.23a4,4,0,0,1,5-4.13l1.24.31a6,6,0,0,0,2.92,0L49,39.15A4,4,0,0,1,54,43.28Z"/><path class="cls-3" d="M53.66,45.36,52.6,52.13a2,2,0,0,1-2,1.69H49.33a1,1,0,0,1-1-1v-4a2,2,0,0,0-2.34-2,2.09,2.09,0,0,0-1.66,2.09v1A2.2,2.2,0,0,0,44,51.12v2.44a1,1,0,0,1-.67.26H42a2,2,0,0,1-2-1.69l-1.35-8.62a4,4,0,0,1,4.59-2.18l1.24.31a6,6,0,0,0,2.92,0l1.24-.31A4,4,0,0,1,53.66,45.36Z"/><path class="cls-1" d="M48.67,63h-22l10.92-6.23a12.62,12.62,0,0,0,8.74,3.54,11.51,11.51,0,0,0,1.87-.15Z"/><path class="cls-7" d="M30.61,40.36h0a1,1,0,1,1,1-1A1,1,0,0,1,30.6,40.36Z"/><path class="cls-7" d="M48.67,63a1,1,0,0,1-1-.83l-.47-2.71A1,1,0,0,1,48,58.3a1,1,0,0,1,1.16.82l.47,2.71A1,1,0,0,1,48.84,63Z"/><path class="cls-7" d="M4.67,63a.52.52,0,0,1-.17,0,1,1,0,0,1-.81-1.15l.92-5.27A22.33,22.33,0,0,1,17.51,40a1,1,0,1,1,.82,1.82A20.36,20.36,0,0,0,6.58,56.9l-.92,5.27A1,1,0,0,1,4.67,63Z"/><path class="cls-7" d="M22.74,40.36h0a1,1,0,1,1,1-1A1,1,0,0,1,22.73,40.36Z"/><path class="cls-7" d="M26.67,63a1,1,0,0,1-.48-.12l-11-6a1,1,0,0,1-.5-.67,1,1,0,0,1,.18-.81l2.4-3.2-3.2-2.4a1,1,0,0,1-.33-1.17l4-10a1,1,0,0,1,.93-.63h4a1,1,0,0,1,1,.82l.06.32a.5.5,0,0,1,0,.12l3.93,22.57a1,1,0,0,1-.41,1A.94.94,0,0,1,26.67,63Zm-9.51-7.32,8.17,4.45L21.83,40H19.35l-3.47,8.66,3.39,2.54a1,1,0,0,1,.2,1.4Z"/><path class="cls-7" d="M26.67,63a1,1,0,0,1-.58-.19,1,1,0,0,1-.4-1l3.92-22.58s0-.08,0-.12l.06-.32a1,1,0,0,1,1-.81h4a1,1,0,0,1,.93.62l.39,1a1.06,1.06,0,0,1,.07.38,1,1,0,0,1-.31.73,1,1,0,0,1-1.41,0,1.1,1.1,0,0,1-.24-.4L34,40H31.51L28,60.13l9.1-5a1,1,0,0,1,1,1.76l-10.92,6A1,1,0,0,1,26.67,63Z"/><path class="cls-7" d="M26.67,42c-2.41,0-4.37-.92-4.87-2.3h0a1.17,1.17,0,0,1-.05-.2h0l-.06-.32a1.1,1.1,0,0,1,0-.18V35.31a1,1,0,0,1,.43-.82,1,1,0,0,1,.91-.12,11,11,0,0,0,7.32,0,1,1,0,0,1,.92.12,1,1,0,0,1,.42.82V39a.65.65,0,0,1,0,.19l-.06.32a1.33,1.33,0,0,1-.05.19h0C31,41.08,29.08,42,26.67,42Zm-3-2.94c.19.36,1.28.94,3,.94s2.78-.58,3-.94l0-.15V36.65a12.94,12.94,0,0,1-6,0Z"/><path class="cls-7" d="M26.67,37a12.7,12.7,0,0,1-4.34-.75A13,13,0,0,1,13.67,24V16.84a1,1,0,0,1,2,0V24a11,11,0,0,0,22,0V16c0-.14,0-.28,0-.42a1,1,0,0,1,2-.22,4.57,4.57,0,0,1,0,.64v8A13,13,0,0,1,31,36.25,12.6,12.6,0,0,1,26.67,37Z"/><path class="cls-7" d="M13.16,18h-.49a1,1,0,0,1-1-1V15.47A14.48,14.48,0,0,1,26.14,1H27.2A14.48,14.48,0,0,1,41.67,15.47a1,1,0,0,1-1,1H28a9.27,9.27,0,0,1-7.15-3.34A8.5,8.5,0,0,1,13.16,18Zm13-15A12.49,12.49,0,0,0,13.67,15.47V16a6.51,6.51,0,0,0,5.89-5.33,1,1,0,0,1,.84-.81,1,1,0,0,1,1,.55A7.28,7.28,0,0,0,28,14.47H39.63A12.49,12.49,0,0,0,27.2,3Z"/><path class="cls-7" d="M14.67,26a5,5,0,0,1,0-10,1,1,0,0,1,1,1v8A1,1,0,0,1,14.67,26Zm-1-7.83a3,3,0,0,0,0,5.66Z"/><path class="cls-7" d="M38.67,26a1,1,0,0,1-1-1V17a1,1,0,0,1,1-1,5,5,0,0,1,0,10Zm1-7.83v5.66a3,3,0,0,0,0-5.66Z"/><path class="cls-7" d="M26.67,33a4,4,0,0,1-2.83-1.17,1,1,0,1,1,1.42-1.42,2,2,0,0,0,2.82,0,1,1,0,1,1,1.42,1.42A4,4,0,0,1,26.67,33Z"/><path class="cls-7" d="M55.73,38.46a1,1,0,0,1-.74-.33,6.18,6.18,0,0,0-.74-.71,1,1,0,0,1,1.28-1.54,9,9,0,0,1,.94.91,1,1,0,0,1-.07,1.41A1,1,0,0,1,55.73,38.46Z"/><path class="cls-7" d="M46.33,60.43a14,14,0,0,1-14-14,13.76,13.76,0,0,1,1.81-6.86.61.61,0,0,1,0-.12A14,14,0,0,1,52,33.63a1,1,0,0,1-.37,1.93,1,1,0,0,1-.42-.09,11.82,11.82,0,0,0-4.88-1A12,12,0,0,0,36,40.35a.34.34,0,0,1-.06.12,11.87,11.87,0,0,0-1.59,6,12,12,0,0,0,12,12,11.25,11.25,0,0,0,1.72-.13A12,12,0,0,0,58.33,46.43a11.82,11.82,0,0,0-1.22-5.27,1,1,0,0,1,1.8-.88,13.87,13.87,0,0,1,1.42,6.15,14,14,0,0,1-12,13.85A13.7,13.7,0,0,1,46.33,60.43Z"/><path class="cls-7" d="M50.62,54.82H49.33a2,2,0,0,1-2-2v-4a1,1,0,0,0-.36-.76,1,1,0,0,0-.82-.22,1.09,1.09,0,0,0-.82,1.1v3.88a2,2,0,0,1-2,2H42a3,3,0,0,1-3-2.53l-1.4-8.85a5,5,0,0,1,6.19-5.26l1.24.31a5,5,0,0,0,2.44,0l1.24-.31A5,5,0,0,1,55,43.34l-1.41,8.95A3,3,0,0,1,50.62,54.82Zm-4.29-9a3,3,0,0,1,3,3v4h1.29a1,1,0,0,0,1-.84L53,43.13a2.94,2.94,0,0,0-1.09-2.41,3,3,0,0,0-2.64-.6L48,40.43a7,7,0,0,1-3.4,0l-1.24-.31a3,3,0,0,0-3.72,3.1L41.05,52a1,1,0,0,0,1,.84h1.29V48.94a3.1,3.1,0,0,1,2.49-3.08A4.38,4.38,0,0,1,46.33,45.82Z"/></g></svg>