<svg xmlns="http://www.w3.org/2000/svg" xmlns:xlink="http://www.w3.org/1999/xlink" viewBox="0 0 64 64"><defs><style>.cls-1{fill:url(#linear-gradient);}.cls-2{fill:url(#linear-gradient-2);}.cls-3{fill:url(#linear-gradient-3);}.cls-4{fill:url(#linear-gradient-4);}.cls-5{fill:url(#linear-gradient-5);}.cls-6{fill:url(#linear-gradient-6);}.cls-7{fill:url(#linear-gradient-7);}.cls-8{fill:#0074ff;}.cls-9{fill:#ccd3eb;}.cls-10{fill:#033c59;}</style><linearGradient id="linear-gradient" x1="39.29" y1="13.44" x2="49.59" y2="13.44" gradientUnits="userSpaceOnUse"><stop offset="0" stop-color="#d3e6f5"/><stop offset="1" stop-color="#f0f7fc"/></linearGradient><linearGradient id="linear-gradient-2" x1="41.41" y1="25.97" x2="48.52" y2="25.97" xlink:href="#linear-gradient"/><linearGradient id="linear-gradient-3" x1="34.48" y1="18.53" x2="40.59" y2="18.53" xlink:href="#linear-gradient"/><linearGradient id="linear-gradient-4" x1="15.48" y1="38.53" x2="23.59" y2="38.53" xlink:href="#linear-gradient"/><linearGradient id="linear-gradient-5" x1="24.41" y1="45.97" x2="29.52" y2="45.97" xlink:href="#linear-gradient"/><linearGradient id="linear-gradient-6" x1="8.29" y1="42.44" x2="14.59" y2="42.44" xlink:href="#linear-gradient"/><linearGradient id="linear-gradient-7" x1="15.41" y1="50.96" x2="24.5" y2="50.96" xlink:href="#linear-gradient"/></defs><title>DNA</title><g id="DNA"><path class="cls-1" d="M48.59,18.59a1,1,0,0,1-.71-.29L39.58,10A1,1,0,1,1,41,8.58l8.3,8.3a1,1,0,0,1,0,1.42A1,1,0,0,1,48.59,18.59Z"/><path class="cls-2" d="M47.52,29.52a1,1,0,0,1-.71-.29L41.7,24.12a1,1,0,1,1,1.42-1.42l5.11,5.11a1,1,0,0,1,0,1.42A1,1,0,0,1,47.52,29.52Z"/><path class="cls-3" d="M39.59,21.59a1,1,0,0,1-.71-.29l-4.11-4.11a1,1,0,0,1,1.42-1.42l4.11,4.11a1,1,0,0,1,0,1.42A1,1,0,0,1,39.59,21.59Z"/><path class="cls-4" d="M22.59,42.59a1,1,0,0,1-.71-.29l-6.11-6.11a1,1,0,0,1,1.42-1.42l6.11,6.11a1,1,0,0,1,0,1.42A1,1,0,0,1,22.59,42.59Z"/><path class="cls-5" d="M28.52,48.52a1,1,0,0,1-.71-.29L24.7,45.12a1,1,0,1,1,1.42-1.42l3.11,3.11a1,1,0,0,1,0,1.42A1,1,0,0,1,28.52,48.52Z"/><path class="cls-6" d="M13.59,45.59a1,1,0,0,1-.71-.29L8.58,41A1,1,0,1,1,10,39.58l4.3,4.3a1,1,0,0,1,0,1.42A1,1,0,0,1,13.59,45.59Z"/><path class="cls-7" d="M23.5,55.5a1,1,0,0,1-.71-.29L15.7,48.12a1,1,0,1,1,1.42-1.42l7.09,7.09a1,1,0,0,1,0,1.42A1,1,0,0,1,23.5,55.5Z"/><path class="cls-8" d="M42.69,6a2,2,0,0,1-.59,1.44L40.29,9.29,40,9.56A20.53,20.53,0,0,0,34,24V40a24.49,24.49,0,0,1-7.17,17.31L24.79,59.4a2,2,0,0,1-2.89-2.88L24,54.44A20.44,20.44,0,0,0,30,40V24A24.49,24.49,0,0,1,37.13,6.68L39.21,4.6a2,2,0,0,1,2.89,0A2,2,0,0,1,42.69,6Z"/><path class="cls-8" d="M30,30V34H24A20.4,20.4,0,0,0,9.57,40L7.48,42.1A2,2,0,0,1,4.6,39.21l2.08-2.08A24.49,24.49,0,0,1,24,30Z"/><path class="cls-8" d="M59.4,24.79l-2.08,2.08A24.49,24.49,0,0,1,40,34H34V30h6a20.53,20.53,0,0,0,14.43-6l2.08-2.09a2.05,2.05,0,0,1,2.88,0A2,2,0,0,1,59.4,24.79Z"/><circle class="cls-9" cx="41" cy="22" r="2"/><circle class="cls-9" cx="50" cy="19" r="2"/><circle class="cls-9" cx="24" cy="43" r="2"/><circle class="cls-9" cx="15" cy="46" r="2"/><path class="cls-10" d="M23.34,61a3,3,0,0,1-2.15-5.19l2.1-2.08A19.34,19.34,0,0,0,29,40V24c0-.34,0-.68,0-1a1,1,0,0,1,1-1h0a1,1,0,0,1,1,1c0,.32,0,.64,0,1V40A21.3,21.3,0,0,1,24.7,55.15l-2.09,2.08a1,1,0,0,0,0,1.46,1.05,1.05,0,0,0,1.47,0l2.08-2.08A23.64,23.64,0,0,0,33,40V24A21.3,21.3,0,0,1,39.3,8.85l2.09-2.08a1,1,0,0,0,0-1.46,1.05,1.05,0,0,0-1.47,0L37.84,7.39a23.31,23.31,0,0,0-4.94,7.27,1,1,0,1,1-1.84-.8A25.43,25.43,0,0,1,36.42,6L38.5,3.89a3.12,3.12,0,0,1,4.31,0,3.07,3.07,0,0,1,0,4.3l-2.1,2.08A19.34,19.34,0,0,0,35,24V40a25.68,25.68,0,0,1-7.46,18L25.5,60.11A3.06,3.06,0,0,1,23.34,61Z"/><path class="cls-10" d="M30.46,20.06l-.19,0a1,1,0,0,1-.79-1.17c.07-.38.17-.76.26-1.13a1,1,0,1,1,1.94.48c-.09.35-.17.69-.24,1A1,1,0,0,1,30.46,20.06Z"/><path class="cls-10" d="M6,43.7a3,3,0,0,1-2.15-5.2L6,36.42A25.66,25.66,0,0,1,24,29h6a1,1,0,0,1,1,1V34a1,1,0,0,1-1,1H24a19.49,19.49,0,0,0-13.71,5.68L8.19,42.81A3,3,0,0,1,6,43.7ZM24,31a23.64,23.64,0,0,0-16.6,6.88L5.31,39.92a1,1,0,0,0,0,1.47,1.06,1.06,0,0,0,1.46,0L8.86,39.3A21.55,21.55,0,0,1,24,33h5V31Z"/><path class="cls-10" d="M40,35H34a1,1,0,0,1-1-1V30a1,1,0,0,1,1-1h6a19.31,19.31,0,0,0,13.72-5.68l2.08-2.09a3.13,3.13,0,0,1,4.3,0,3.07,3.07,0,0,1,0,4.31L58,27.58A25.66,25.66,0,0,1,40,35Zm-5-2h5a23.64,23.64,0,0,0,16.6-6.88l2.08-2.08a1,1,0,0,0,0-1.47,1,1,0,0,0-.73-.3,1,1,0,0,0-.73.3L55.15,24.7A21.3,21.3,0,0,1,40,31H35Z"/><path class="cls-10" d="M54.71,24.71a1,1,0,0,1-.71-.29l-3.3-3.3a1,1,0,1,1,1.42-1.42l3.3,3.3a1,1,0,0,1,0,1.42A1,1,0,0,1,54.71,24.71Z"/><path class="cls-10" d="M48.59,18.59a1,1,0,0,1-.71-.29L39.58,10A1,1,0,1,1,41,8.58l8.3,8.3a1,1,0,0,1,0,1.42A1,1,0,0,1,48.59,18.59Z"/><path class="cls-10" d="M47.52,29.52a1,1,0,0,1-.71-.29L41.7,24.12a1,1,0,1,1,1.42-1.42l5.11,5.11a1,1,0,0,1,0,1.42A1,1,0,0,1,47.52,29.52Z"/><path class="cls-10" d="M39.59,21.59a1,1,0,0,1-.71-.29l-4.11-4.11a1,1,0,0,1,1.42-1.42l4.11,4.11a1,1,0,0,1,0,1.42A1,1,0,0,1,39.59,21.59Z"/><path class="cls-10" d="M22.59,42.59a1,1,0,0,1-.71-.29l-6.11-6.11a1,1,0,0,1,1.42-1.42l6.11,6.11a1,1,0,0,1,0,1.42A1,1,0,0,1,22.59,42.59Z"/><path class="cls-10" d="M28.52,48.52a1,1,0,0,1-.71-.29L24.7,45.12a1,1,0,1,1,1.42-1.42l3.11,3.11a1,1,0,0,1,0,1.42A1,1,0,0,1,28.52,48.52Z"/><path class="cls-10" d="M13.59,45.59a1,1,0,0,1-.71-.29L8.58,41A1,1,0,1,1,10,39.58l4.3,4.3a1,1,0,0,1,0,1.42A1,1,0,0,1,13.59,45.59Z"/><path class="cls-10" d="M23.5,55.5a1,1,0,0,1-.71-.29L15.7,48.12a1,1,0,1,1,1.42-1.42l7.09,7.09a1,1,0,0,1,0,1.42A1,1,0,0,1,23.5,55.5Z"/><path class="cls-10" d="M41,25a3,3,0,1,1,3-3A3,3,0,0,1,41,25Zm0-4a1,1,0,1,0,1,1A1,1,0,0,0,41,21Z"/><path class="cls-10" d="M50,22a3,3,0,1,1,3-3A3,3,0,0,1,50,22Zm0-4a1,1,0,1,0,1,1A1,1,0,0,0,50,18Z"/><path class="cls-10" d="M24,46a3,3,0,1,1,3-3A3,3,0,0,1,24,46Zm0-4a1,1,0,1,0,1,1A1,1,0,0,0,24,42Z"/><path class="cls-10" d="M15,49a3,3,0,1,1,3-3A3,3,0,0,1,15,49Zm0-4a1,1,0,1,0,1,1A1,1,0,0,0,15,45Z"/></g></svg>