<svg xmlns="http://www.w3.org/2000/svg" viewBox="0 0 64 64"><defs><style>.cls-1{fill:#ccd3eb;}.cls-2{fill:#96a1c3;}.cls-3{fill:#f5f7ff;}.cls-4{fill:#647499;}.cls-5{fill:#b4cde1;}.cls-6{fill:#033c59;}</style></defs><title>Doctor</title><g id="Doctor"><path class="cls-1" d="M32,63H10l.92-5.52a22.24,22.24,0,0,1,12.33-16.6L20,49.38l4,3.15-3,4.19Z"/><path class="cls-1" d="M32,63l11-6.28-3-4.19,4-3.15-3.25-8.5a21.12,21.12,0,0,1,5,3.29,22.59,22.59,0,0,1,7.31,13.31L54,63Z"/><polygon class="cls-1" points="21 56 24 52 20 49 23.25 40.88 24 39 28 39 28.06 39.32 28.06 39.36 32 62 21 56"/><polygon class="cls-1" points="40 52 43 56 32 62 35.94 39.36 35.94 39.32 36 39 40 39 40.75 40.88 44 49 40 52"/><path class="cls-2" d="M35.94,39.36,32,62,28.06,39.36h0C28.41,40.29,30,41,32,41s3.59-.71,3.93-1.64Z"/><path class="cls-1" d="M36,35.31V39l-.06.32s0,0,0,0C35.59,40.29,34,41,32,41s-3.59-.71-3.93-1.64c0,0,0,0,0,0L28,39V35.31a11.94,11.94,0,0,0,8,0Z"/><path class="cls-3" d="M36,33.31V37l-.06.32s0,0,0,0C35.59,38.29,34,39,32,39s-3.59-.71-3.93-1.64c0,0,0,0,0,0L28,37V33.31a11.94,11.94,0,0,0,8,0Z"/><path class="cls-1" d="M44,16v8a12,12,0,0,1-8,11.31,12,12,0,0,1-12.06-2.43A11.93,11.93,0,0,1,20,24V16.84a7.46,7.46,0,0,0,5.64-5.09,7.28,7.28,0,0,0,.23-.92,8.56,8.56,0,0,0,1.62,2.23,8.26,8.26,0,0,0,5.84,2.41H44A4.7,4.7,0,0,1,44,16Z"/><path class="cls-3" d="M42,15.47v7.06a12,12,0,0,1-8,11.31,11.94,11.94,0,0,1-8,0,11,11,0,0,1-2.06-1A11.93,11.93,0,0,1,20,24V16.84a7.46,7.46,0,0,0,5.64-5.09,8.71,8.71,0,0,0,1.85,1.31,8.26,8.26,0,0,0,5.84,2.41Z"/><path class="cls-4" d="M46,15.47H33.33a8.33,8.33,0,0,1-7.46-4.64,7.26,7.26,0,0,1-1.34,3.1,8.21,8.21,0,0,1-.66-1.1,7.32,7.32,0,0,1-1.19,2.89A7.34,7.34,0,0,1,20,16.84a6.85,6.85,0,0,1-1.51.16H18V15.47A13.48,13.48,0,0,1,31.47,2h1.06A13.45,13.45,0,0,1,46,15.47Z"/><path class="cls-1" d="M20,17v8a4,4,0,1,1,0-8Z"/><path class="cls-1" d="M48,21a4,4,0,0,1-4,4V17A4,4,0,0,1,48,21Z"/><path class="cls-5" d="M32,33a4,4,0,0,1-2.83-1.17,1,1,0,0,1,1.42-1.42,2,2,0,0,0,2.82,0,1,1,0,1,1,1.42,1.42A4,4,0,0,1,32,33Z"/><path class="cls-6" d="M35.94,40.36h0a1,1,0,1,1,1-1A1,1,0,0,1,35.93,40.36Z"/><path class="cls-6" d="M54,63a1,1,0,0,1-1-.83l-.93-5.27A20.35,20.35,0,0,0,40.34,41.79,1,1,0,0,1,41.16,40a22.14,22.14,0,0,1,5.25,3.28,22.45,22.45,0,0,1,7.66,13.31L55,61.83A1,1,0,0,1,54.17,63,.5.5,0,0,1,54,63Z"/><path class="cls-6" d="M10,63a.5.5,0,0,1-.17,0A1,1,0,0,1,9,61.83l.92-5.27A22.33,22.33,0,0,1,22.84,40a1,1,0,1,1,.82,1.82A20.36,20.36,0,0,0,11.91,56.9L11,62.17A1,1,0,0,1,10,63Z"/><path class="cls-6" d="M28.07,40.36h0a1,1,0,1,1,1-1A1,1,0,0,1,28.06,40.36Z"/><path class="cls-6" d="M32,63a1,1,0,0,1-.48-.12l-11-6a1,1,0,0,1-.5-.67,1,1,0,0,1,.18-.81l2.4-3.2-3.2-2.4a1,1,0,0,1-.33-1.17l4-10A1,1,0,0,1,24,38h4a1,1,0,0,1,1,.82l.06.32a.5.5,0,0,1,0,.12L33,61.83a1,1,0,0,1-.41,1A.94.94,0,0,1,32,63Zm-9.51-7.32,8.17,4.45L27.16,40H24.68l-3.47,8.66L24.6,51.2a1,1,0,0,1,.2,1.4Z"/><path class="cls-6" d="M32,63a.94.94,0,0,1-.58-.19,1,1,0,0,1-.41-1l3.93-22.58s0-.08,0-.11l.06-.32A1,1,0,0,1,36,38h4a1,1,0,0,1,.93.63l4,10a1,1,0,0,1-.33,1.17l-3.2,2.4,2.4,3.2a1,1,0,0,1,.18.81,1,1,0,0,1-.5.67l-11,6A1,1,0,0,1,32,63Zm4.84-23-3.5,20.13,8.17-4.45L39.2,52.6a1,1,0,0,1,.2-1.4l3.39-2.54L39.32,40Z"/><path class="cls-6" d="M32,42c-2.41,0-4.37-.92-4.87-2.3h0a1.17,1.17,0,0,1-.05-.2h0L27,39.18A1.1,1.1,0,0,1,27,39V35.31a1,1,0,0,1,1.34-.94,11,11,0,0,0,7.32,0,1,1,0,0,1,1.34.94V39a1.1,1.1,0,0,1,0,.18l-.06.32a1.17,1.17,0,0,1-.05.2h0C36.37,41.08,34.41,42,32,42Zm-3-2.94c.2.36,1.29.94,3,.94s2.77-.58,3-.94l0-.15V36.65a12.94,12.94,0,0,1-6,0Z"/><path class="cls-6" d="M32,37a12.7,12.7,0,0,1-4.34-.75A13,13,0,0,1,19,24V16.84a1,1,0,0,1,2,0V24a11,11,0,0,0,22,0V16c0-.14,0-.28,0-.42a1,1,0,0,1,2-.22A4.57,4.57,0,0,1,45,16v8a13,13,0,0,1-8.67,12.25A12.6,12.6,0,0,1,32,37Z"/><path class="cls-6" d="M18.49,18H18a1,1,0,0,1-1-1V15.47A14.48,14.48,0,0,1,31.47,1h1.06A14.44,14.44,0,0,1,47,15.47a1,1,0,0,1-1,1H40.93a1,1,0,0,1,0-2h4A12.46,12.46,0,0,0,32.53,3H31.47A12.48,12.48,0,0,0,19,15.47V16a6.5,6.5,0,0,0,5.89-5.33,1,1,0,0,1,.84-.81,1,1,0,0,1,1,.55,7.29,7.29,0,0,0,5.41,4,1,1,0,1,1-.3,2,9.29,9.29,0,0,1-5.7-3.23A8.49,8.49,0,0,1,18.49,18Z"/><path class="cls-6" d="M37.07,16.47H35.94a1,1,0,0,1,0-2h1.13a1,1,0,1,1,0,2Z"/><path class="cls-6" d="M20,26a5,5,0,0,1,0-10,1,1,0,0,1,1,1v8A1,1,0,0,1,20,26Zm-1-7.83a3,3,0,0,0,0,5.66Z"/><path class="cls-6" d="M44,26a1,1,0,0,1-1-1V17a1,1,0,0,1,1-1,5,5,0,0,1,0,10Zm1-7.83v5.66a3,3,0,0,0,0-5.66Z"/><path class="cls-6" d="M32,33a4,4,0,0,1-2.83-1.17,1,1,0,0,1,1.42-1.42,2,2,0,0,0,2.82,0,1,1,0,1,1,1.42,1.42A4,4,0,0,1,32,33Z"/></g></svg>