<svg xmlns="http://www.w3.org/2000/svg" viewBox="0 0 64 64"><defs><style>.cls-1{fill:#0074ff;}.cls-2{fill:#96a1c3;}.cls-3{fill:#ccd3eb;}.cls-4{fill:#f5f7ff;}.cls-5{fill:#b4cde1;}.cls-6{fill:#033c59;}</style></defs><title>Dropper</title><g id="Dropper"><path class="cls-1" d="M60,16a5,5,0,0,1-5,5H48V11h7A5,5,0,0,1,60,16Z"/><path class="cls-2" d="M48,7V25a3,3,0,0,1-3,3H43a3,3,0,0,1-2.82-2,.69.69,0,0,1,0-.13A3.1,3.1,0,0,1,40,25V7a3,3,0,0,1,3-3h2a3.1,3.1,0,0,1,.87.13A3,3,0,0,1,48,7Z"/><path class="cls-3" d="M45,5V23a3,3,0,0,1-3,3H40.18a.69.69,0,0,1,0-.13A3.1,3.1,0,0,1,40,25V7a3,3,0,0,1,3-3h1a3.1,3.1,0,0,1,.87.13A3.1,3.1,0,0,1,45,5Z"/><path class="cls-3" d="M14.78,54.83A5.17,5.17,0,0,1,9.61,60a5.34,5.34,0,0,1-1.5-.22,5.17,5.17,0,0,1-3.66-5c0-1.84,2.14-4.41,3.66-6,.85-.89,1.5-1.47,1.5-1.47S14.78,52,14.78,54.83Z"/><path class="cls-4" d="M11.78,54.83a5.17,5.17,0,0,1-3.67,5,5.17,5.17,0,0,1-3.66-5c0-1.84,2.14-4.41,3.66-6C9.64,50.42,11.78,53,11.78,54.83Z"/><circle class="cls-5" cx="9.61" cy="26.06" r="2"/><circle class="cls-5" cx="9.61" cy="33.06" r="2"/><circle class="cls-5" cx="9.61" cy="40.06" r="2"/><path class="cls-4" d="M40,11V21H19a5,5,0,0,1-3.54-1.46A4.69,4.69,0,0,1,15,19H12a3,3,0,0,1-3-3,2.77,2.77,0,0,1,.18-1A3,3,0,0,1,12,13h3a5,5,0,0,1,4-2Z"/><path class="cls-5" d="M21,11v3a1,1,0,0,1-2,0V11Z"/><path class="cls-5" d="M25,11v3a1,1,0,0,1-2,0V11Z"/><path class="cls-5" d="M29,11v3a1,1,0,0,1-2,0V11Z"/><path class="cls-5" d="M33,11v3a1,1,0,0,1-2,0V11Z"/><path class="cls-6" d="M55,22H48a1,1,0,0,1,0-2h7a4,4,0,0,0,0-8H48a1,1,0,0,1,0-2h7a6,6,0,0,1,0,12Z"/><path class="cls-6" d="M45,29H43a4,4,0,0,1-4-4V7a4,4,0,0,1,4-4h2a4,4,0,0,1,4,4V25A4,4,0,0,1,45,29ZM43,5a2,2,0,0,0-2,2V25a2,2,0,0,0,2,2h2a2,2,0,0,0,2-2V7a2,2,0,0,0-2-2Z"/><path class="cls-6" d="M9.61,61a6.17,6.17,0,0,1-6.16-6.17c0-3.21,4.93-7.72,5.5-8.22a1,1,0,0,1,1.33,0c.56.5,5.5,5,5.5,8.22A6.17,6.17,0,0,1,9.61,61Zm0-12.28c-1.84,1.77-4.17,4.55-4.17,6.11a4.17,4.17,0,1,0,8.33,0C13.78,53.27,11.45,50.49,9.62,48.72Z"/><path class="cls-6" d="M9.61,28.06a2,2,0,1,1,2-2A2,2,0,0,1,9.61,28.06Zm0-2h0Zm0,0h0Zm0,0h0Zm0,0h0Zm0,0h0Zm0,0h0Zm0,0h0Zm0,0h0Z"/><path class="cls-6" d="M9.61,35.06a2,2,0,1,1,2-2A2,2,0,0,1,9.61,35.06Zm0-2h0Zm0,0h0Zm0,0h0Zm0,0h0Zm0,0h0Zm0,0h0Zm0,0h0Zm0,0h0Z"/><path class="cls-6" d="M9.61,42.06a2,2,0,1,1,2-2A2,2,0,0,1,9.61,42.06Zm0-2h0Zm0,0h0Zm0,0h0Zm0,0h0Zm0,0h0Zm0,0h0Zm0,0h0Zm0,0h0Z"/><path class="cls-6" d="M15,14a1,1,0,0,1-.6-.2,1,1,0,0,1-.2-1.4A6.05,6.05,0,0,1,19,10H40a1,1,0,0,1,0,2H19a4,4,0,0,0-3.2,1.6A1,1,0,0,1,15,14Z"/><path class="cls-6" d="M40,22H29a1,1,0,0,1,0-2H40a1,1,0,0,1,0,2Z"/><path class="cls-6" d="M20,22H19a6,6,0,0,1-4.24-1.75,5.76,5.76,0,0,1-.56-.66,1,1,0,1,1,1.6-1.18,3.7,3.7,0,0,0,.37.42A4,4,0,0,0,19,20h1a1,1,0,0,1,0,2Z"/><path class="cls-6" d="M25,22H24a1,1,0,0,1,0-2h1a1,1,0,0,1,0,2Z"/><path class="cls-6" d="M15,20H12a4,4,0,0,1,0-8h3a1,1,0,0,1,0,2H12a2,2,0,0,0-2,2,2,2,0,0,0,2,2h3a1,1,0,0,1,0,2Z"/><path class="cls-6" d="M20,15a1,1,0,0,1-1-1V11a1,1,0,0,1,2,0v3A1,1,0,0,1,20,15Z"/><path class="cls-6" d="M24,15a1,1,0,0,1-1-1V11a1,1,0,0,1,2,0v3A1,1,0,0,1,24,15Z"/><path class="cls-6" d="M28,15a1,1,0,0,1-1-1V11a1,1,0,0,1,2,0v3A1,1,0,0,1,28,15Z"/><path class="cls-6" d="M32,15a1,1,0,0,1-1-1V11a1,1,0,0,1,2,0v3A1,1,0,0,1,32,15Z"/></g></svg>