<svg xmlns="http://www.w3.org/2000/svg" viewBox="0 0 64 64"><defs><style>.cls-1{fill:#ccd3eb;}.cls-2{fill:#f5f7ff;}.cls-3{fill:#96a1c3;}.cls-4{fill:#647499;}.cls-5{fill:#0074ff;}.cls-6{fill:#033c59;}</style></defs><title>Drug</title><g id="Drug"><path class="cls-1" d="M4,29V49H36V29Zm11,8h3V34h4v3h3v4H22v3H18V41H15Z"/><path class="cls-2" d="M33,29v9.54A8.46,8.46,0,0,1,24.54,47H4V29Z"/><path class="cls-3" d="M60,52a7,7,0,0,1-2,5l-9.9-9.9a7.9,7.9,0,0,1,1.09-.9A7,7,0,0,1,60,52Z"/><path class="cls-3" d="M58,57a6.94,6.94,0,0,1-10-.15A4.17,4.17,0,0,0,48,56V47.1l0-.05Z"/><path class="cls-1" d="M58,51a6.92,6.92,0,0,1-1.58,4.42A4.69,4.69,0,0,1,56,56l-8-8v-.9l0-.05a7.9,7.9,0,0,1,1.09-.9,7,7,0,0,1,5.92-.84A6.94,6.94,0,0,1,58,51Z"/><path class="cls-1" d="M56,56a7,7,0,0,1-5,2,6.87,6.87,0,0,1-2.09-.32,6.92,6.92,0,0,1-1-.88A4.17,4.17,0,0,0,48,56V48Z"/><path class="cls-4" d="M48,46v5.1l-2,0L40,51V46a4,4,0,0,1,4-4,3.38,3.38,0,0,1,.72.07A4,4,0,0,1,48,46Z"/><path class="cls-1" d="M48,51.1V56a4.17,4.17,0,0,1-.08.8,4.07,4.07,0,0,1-1.09,2,4,4,0,0,1-5.55.1A4,4,0,0,1,40,56V51l6,.08Z"/><path class="cls-3" d="M46,45v5.1L40,50V46a4,4,0,0,1,4-4,3.38,3.38,0,0,1,.72.07A4,4,0,0,1,46,45Z"/><path class="cls-2" d="M46,50.1V55a4.17,4.17,0,0,1-.08.8,4.07,4.07,0,0,1-1.09,2A4,4,0,0,1,42,59a3.38,3.38,0,0,1-.72-.07A4,4,0,0,1,40,56V50Z"/><path class="cls-5" d="M36,28.4V30H4V28.4A13.36,13.36,0,0,1,9,18V14H31v4A13.33,13.33,0,0,1,36,28.4Z"/><path class="cls-5" d="M36,50v8a2,2,0,0,1-2,2H6a2,2,0,0,1-2-2V50Z"/><rect class="cls-3" x="7" y="4" width="26" height="10" rx="2" ry="2"/><path class="cls-1" d="M30,4V6.28A4.72,4.72,0,0,1,25.28,11H7V4Z"/><polygon class="cls-5" points="25 38 25 42 22 42 22 45 18 45 18 42 15 42 15 38 18 38 18 35 22 35 22 38 25 38"/><path class="cls-6" d="M53,60a7.93,7.93,0,0,1-5.81-2.52,1,1,0,1,1,1.46-1.36,6,6,0,1,0,.1-8.36,1,1,0,0,1-.75.34,1,1,0,0,1-1-1,1,1,0,0,1,.28-.71A8,8,0,1,1,53,60Z"/><path class="cls-6" d="M44,61a5,5,0,0,1-5-5V46a5,5,0,0,1,10,0V56A5,5,0,0,1,44,61Zm0-18a3,3,0,0,0-3,3V56a3,3,0,0,0,6,0V46A3,3,0,0,0,44,43Z"/><path class="cls-6" d="M57.24,57.24a1,1,0,0,1-.7-.29l-8.49-8.49a1,1,0,1,1,1.41-1.41L58,55.54A1,1,0,0,1,58,57,1,1,0,0,1,57.24,57.24Z"/><path class="cls-6" d="M48,52.1h0L40,52a1,1,0,0,1-1-1,1,1,0,0,1,1-1l8,.1a1,1,0,0,1,1,1A1,1,0,0,1,48,52.1Z"/><path class="cls-6" d="M34,61H6a3,3,0,0,1-3-3V28.4A14.26,14.26,0,0,1,8,17.53V14a1,1,0,0,1,1-1H31a1,1,0,0,1,1,1v3.53A14.26,14.26,0,0,1,37,28.4V58A3,3,0,0,1,34,61ZM10,15v3a1,1,0,0,1-.38.78A12.28,12.28,0,0,0,5,28.4V58a1,1,0,0,0,1,1H34a1,1,0,0,0,1-1V28.4a12.28,12.28,0,0,0-4.62-9.62A1,1,0,0,1,30,18V15Z"/><path class="cls-6" d="M31,15H9a3,3,0,0,1-3-3V6A3,3,0,0,1,9,3h9a1,1,0,0,1,0,2H9A1,1,0,0,0,8,6v6a1,1,0,0,0,1,1H31a1,1,0,0,0,1-1V6a1,1,0,0,0-1-1H27a1,1,0,0,1,0-2h4a3,3,0,0,1,3,3v6A3,3,0,0,1,31,15Z"/><path class="cls-6" d="M23,5H22a1,1,0,0,1,0-2h1a1,1,0,0,1,0,2Z"/><path class="cls-6" d="M36,51H4a1,1,0,0,1-1-1V30a1,1,0,0,1,1-1H36a1,1,0,0,1,1,1V50A1,1,0,0,1,36,51ZM5,49H35V31H5Z"/><path class="cls-6" d="M22,46H18a1,1,0,0,1-1-1V43H15a1,1,0,0,1-1-1V38a1,1,0,0,1,1-1h2V35a1,1,0,0,1,1-1h4a1,1,0,0,1,1,1v2h2a1,1,0,0,1,1,1v4a1,1,0,0,1-1,1H23v2A1,1,0,0,1,22,46Zm-3-2h2V42a1,1,0,0,1,1-1h2V39H22a1,1,0,0,1-1-1V36H19v2a1,1,0,0,1-1,1H16v2h2a1,1,0,0,1,1,1Z"/></g></svg>