<svg xmlns="http://www.w3.org/2000/svg" xmlns:xlink="http://www.w3.org/1999/xlink" viewBox="0 0 64 64"><defs><style>.cls-1{fill:#96a1c3;}.cls-2{fill:#647499;}.cls-3{fill:#ccd3eb;}.cls-4{fill:#f5f7ff;}.cls-5{fill:#0074ff;}.cls-6{fill:#b4cde1;}.cls-7{fill:#d7e9f7;}.cls-8{fill:url(#linear-gradient);}.cls-9{fill:#033c59;}</style><linearGradient id="linear-gradient" x1="51" y1="48" x2="59" y2="48" gradientUnits="userSpaceOnUse"><stop offset="0" stop-color="#d3e6f5"/><stop offset="1" stop-color="#f0f7fc"/></linearGradient></defs><title>Electrocardiogram</title><g id="Electrocardiogram"><path class="cls-1" d="M60,6H4A2,2,0,0,0,2,8V52a2,2,0,0,0,2,2H60a2,2,0,0,0,2-2V8A2,2,0,0,0,60,6ZM7,13A2,2,0,0,1,9,11h37.1A2,2,0,0,1,48,13v34.1a2,2,0,0,1-2,2H9a2,2,0,0,1-1.95-2ZM55,30a3,3,0,1,1,3-3A3,3,0,0,1,55,30Zm0-13a3,3,0,1,1,3-3A3,3,0,0,1,55,17Z"/><path class="cls-2" d="M58,54v2a2,2,0,0,1-2,2H50a2,2,0,0,1-2-2V54Z"/><path class="cls-2" d="M16,54v2a2,2,0,0,1-2,2H8a2,2,0,0,1-2-2V54Z"/><path class="cls-3" d="M58,6V38.94A12.1,12.1,0,0,1,45.94,51H2V8A2,2,0,0,1,4,6Z"/><rect class="cls-4" x="7" y="11" width="41" height="38" rx="1.95" ry="1.95"/><circle class="cls-5" cx="55" cy="14" r="3"/><circle class="cls-5" cx="55" cy="27" r="3"/><path class="cls-6" d="M48,32v2H40a1.07,1.07,0,0,1-.89-.47l-4.6-6.92L33,33.21a1,1,0,0,1-.88.78,1.08,1.08,0,0,1-1.08-.51l-2.67-4.7L26,38.23a1.05,1.05,0,0,1-1,.77H25a1,1,0,0,1-1-.66L20,27.78l-2,4.6A1.06,1.06,0,0,1,17,33H7V31h9.32L19,24.62A1.08,1.08,0,0,1,20,24h0a1.06,1.06,0,0,1,1,.66l3.78,9.86L27,25.77a1,1,0,0,1,.88-.76,1,1,0,0,1,1.06.51l2.63,4.61L33,23.79A1,1,0,0,1,33.8,23a1.05,1.05,0,0,1,1.07.45L40.55,32Z"/><path class="cls-6" d="M58,41H52a1,1,0,0,1,0-2h6a1,1,0,0,1,0,2Z"/><path class="cls-7" d="M58,45H52a1,1,0,0,1,0-2h6a1,1,0,0,1,0,2Z"/><path class="cls-8" d="M58,49H52a1,1,0,0,1,0-2h6a1,1,0,0,1,0,2Z"/><path class="cls-9" d="M60,55H41a1,1,0,0,1,0-2H60a1,1,0,0,0,1-1V8a1,1,0,0,0-1-1H4A1,1,0,0,0,3,8V52a1,1,0,0,0,1,1H32a1,1,0,0,1,0,2H4a3,3,0,0,1-3-3V8A3,3,0,0,1,4,5H60a3,3,0,0,1,3,3V52A3,3,0,0,1,60,55Z"/><path class="cls-9" d="M37,55H36a1,1,0,0,1,0-2h1a1,1,0,0,1,0,2Z"/><path class="cls-9" d="M56,59H50a3,3,0,0,1-3-3V54a1,1,0,0,1,1-1H58a1,1,0,0,1,1,1v2A3,3,0,0,1,56,59Zm-7-4v1a1,1,0,0,0,1,1h6a1,1,0,0,0,1-1V55Z"/><path class="cls-5" d="M25,39a1,1,0,0,1-.93-.64L20,27.66l-2,4.73A1,1,0,0,1,17,33H7a1,1,0,0,1,0-2h9.34l2.74-6.39A1,1,0,0,1,20,24a1,1,0,0,1,.91.64l3.87,10L27,25.76a1,1,0,0,1,1.84-.26l2.71,4.76L33,23.78a1,1,0,0,1,.8-.76,1,1,0,0,1,1,.43L40.54,32H48a1,1,0,0,1,0,2H40a1,1,0,0,1-.83-.45l-4.7-7L33,33.22a1,1,0,0,1-.83.77,1,1,0,0,1-1-.49l-2.76-4.84L26,38.24a1,1,0,0,1-.91.76Z"/><path class="cls-9" d="M14,59H8a3,3,0,0,1-3-3V54a1,1,0,0,1,1-1H16a1,1,0,0,1,1,1v2A3,3,0,0,1,14,59ZM7,55v1a1,1,0,0,0,1,1h6a1,1,0,0,0,1-1V55Z"/><path class="cls-9" d="M46.05,50H9a3,3,0,0,1-2.95-3V13A3,3,0,0,1,9,10h37.1A3,3,0,0,1,49,13v34.1A3,3,0,0,1,46.05,50ZM9,12A1,1,0,0,0,8,13v34.1A1,1,0,0,0,9,48h37.1a1,1,0,0,0,1-1V13a1,1,0,0,0-1-.95Z"/><path class="cls-9" d="M55,18a4,4,0,1,1,4-4A4,4,0,0,1,55,18Zm0-6a2,2,0,1,0,2,2A2,2,0,0,0,55,12Z"/><path class="cls-9" d="M55,31a4,4,0,1,1,4-4A4,4,0,0,1,55,31Zm0-6a2,2,0,1,0,2,2A2,2,0,0,0,55,25Z"/><path class="cls-9" d="M58,41H52a1,1,0,0,1,0-2h6a1,1,0,0,1,0,2Z"/><path class="cls-9" d="M58,45H52a1,1,0,0,1,0-2h6a1,1,0,0,1,0,2Z"/><path class="cls-9" d="M58,49H52a1,1,0,0,1,0-2h6a1,1,0,0,1,0,2Z"/></g></svg>