<svg xmlns="http://www.w3.org/2000/svg" viewBox="0 0 64 64"><defs><style>.cls-1{fill:#647499;}.cls-2{fill:#ccd3eb;}.cls-3{fill:#96a1c3;}.cls-4{fill:#f5f7ff;}.cls-5{fill:#0074ff;}.cls-6{fill:#033c59;}</style></defs><title>Emergency kit</title><g id="Emergency_kit" data-name="Emergency kit"><path class="cls-1" d="M47,10v6H43V10a2,2,0,0,0-2-2H23a2,2,0,0,0-2,2v6H17V10a6,6,0,0,1,6-6H41A6,6,0,0,1,47,10Z"/><path class="cls-2" d="M60,20V31H45.27a15,15,0,0,0-26.54,0H4V20a4,4,0,0,1,4-4H56A4,4,0,0,1,60,20Z"/><path class="cls-3" d="M60,45V56a4,4,0,0,1-4,4H8a4,4,0,0,1-4-4V45H18.73a15,15,0,0,0,26.54,0Z"/><path class="cls-2" d="M60,40V51a4,4,0,0,1-4,4H8a4,4,0,0,1-4-4V40H18.73a15,15,0,0,0,26.54,0Z"/><path class="cls-4" d="M45.27,31A15,15,0,1,0,47,38,15,15,0,0,0,45.27,31ZM42,39a2,2,0,0,1-2,2H35v5a2,2,0,0,1-2,2H31a2,2,0,0,1-2-2V41H24a2,2,0,0,1-2-2V37a2,2,0,0,1,2-2h5V30a2,2,0,0,1,2-2h2a2,2,0,0,1,2,2v5h5a2,2,0,0,1,2,2Z"/><path class="cls-5" d="M42,37v2a2,2,0,0,1-2,2H35v5a2,2,0,0,1-2,2H31a2,2,0,0,1-2-2V41H24a2,2,0,0,1-2-2V37a2,2,0,0,1,2-2h5V30a2,2,0,0,1,2-2h2a2,2,0,0,1,2,2v5h5A2,2,0,0,1,42,37Z"/><path class="cls-2" d="M60,31V45H45.27a15,15,0,0,0,0-14Z"/><path class="cls-4" d="M61,31V45H49.27a15,15,0,0,0,0-14Z"/><path class="cls-2" d="M17,38a15,15,0,0,0,1.73,7H4V31H18.73A15,15,0,0,0,17,38Z"/><path class="cls-4" d="M13,38a15,15,0,0,0,1.73,7H3V31H14.73A15,15,0,0,0,13,38Z"/><path class="cls-6" d="M47,17a1,1,0,0,1-1-1V10a5,5,0,0,0-5-5H23a5,5,0,0,0-5,5v6a1,1,0,0,1-2,0V10a7,7,0,0,1,7-7H41a7,7,0,0,1,7,7v6A1,1,0,0,1,47,17Z"/><path class="cls-6" d="M43,17a1,1,0,0,1-1-1V10a1,1,0,0,0-1-1H23a1,1,0,0,0-1,1v6a1,1,0,0,1-2,0V10a3,3,0,0,1,3-3H41a3,3,0,0,1,3,3v6A1,1,0,0,1,43,17Z"/><path class="cls-6" d="M56,61H8a5,5,0,0,1-5-5V20a5,5,0,0,1,5-5H56a5,5,0,0,1,5,5V56A5,5,0,0,1,56,61ZM8,17a3,3,0,0,0-3,3V56a3,3,0,0,0,3,3H56a3,3,0,0,0,3-3V20a3,3,0,0,0-3-3Z"/><path class="cls-6" d="M40,42H35a1,1,0,0,1,0-2h5a1,1,0,0,0,1-1V37a1,1,0,0,0-1-1H35a1,1,0,0,1,0-2h5a3,3,0,0,1,3,3v2A3,3,0,0,1,40,42Z"/><path class="cls-6" d="M35,36a1,1,0,0,1-1-1V30a1,1,0,0,0-1-1H31a1,1,0,0,0-1,1v5a1,1,0,0,1-2,0V30a3,3,0,0,1,3-3h2a3,3,0,0,1,3,3v5A1,1,0,0,1,35,36Z"/><path class="cls-6" d="M33,49H31a3,3,0,0,1-3-3V41a1,1,0,0,1,2,0v5a1,1,0,0,0,1,1h2a1,1,0,0,0,1-1V41a1,1,0,0,1,2,0v5A3,3,0,0,1,33,49Z"/><path class="cls-6" d="M29,42H24a3,3,0,0,1-3-3V37a3,3,0,0,1,3-3h5a1,1,0,0,1,0,2H24a1,1,0,0,0-1,1v2a1,1,0,0,0,1,1h5a1,1,0,0,1,0,2Z"/><path class="cls-6" d="M32,54a16,16,0,0,1,0-32,15.61,15.61,0,0,1,4.33.6,1,1,0,1,1-.56,1.92A13.84,13.84,0,0,0,32,24,14,14,0,1,0,44.39,44.53a14,14,0,0,0,0-13.06A14.49,14.49,0,0,0,42.71,29a1,1,0,1,1,1.52-1.3,16,16,0,0,1,1.92,17.77A16,16,0,0,1,32,54Z"/><path class="cls-6" d="M40.52,26.66a1,1,0,0,1-.58-.18c-.25-.18-.52-.35-.8-.52a1,1,0,1,1,1.06-1.7c.3.19.61.38.9.58a1,1,0,0,1,.24,1.4A1,1,0,0,1,40.52,26.66Z"/><path class="cls-6" d="M60,46H45.27a1,1,0,0,1,0-2H59V32H45.27a1,1,0,0,1,0-2H60a1,1,0,0,1,1,1V45A1,1,0,0,1,60,46Z"/><path class="cls-6" d="M18.73,46H4a1,1,0,0,1-1-1V31a1,1,0,0,1,1-1H18.73a1,1,0,1,1,0,2H5V44H18.73a1,1,0,1,1,0,2Z"/></g></svg>