<svg xmlns="http://www.w3.org/2000/svg" viewBox="0 0 64 64"><defs><style>.cls-1{fill:#ccd3eb;}.cls-2{fill:#f5f7ff;}.cls-3{fill:#96a1c3;}.cls-4{fill:#0074ff;}.cls-5{fill:#033c59;}</style></defs><title>Emergency call</title><g id="Emergency_call" data-name="Emergency call"><path class="cls-1" d="M58.66,12.81A15,15,0,1,0,32,26.45a15.2,15.2,0,0,0,1.19,1.77l-.59,3.94L32,36l6.5-3.48A15,15,0,0,0,58.66,12.81ZM36,18a2,2,0,0,1,2-2h4V12a2,2,0,0,1,2-2h2a2,2,0,0,1,2,2v4h4a2,2,0,0,1,2,2v2a2,2,0,0,1-2,2H48v4a2,2,0,0,1-2,2H44a2,2,0,0,1-2-2V22H38a2,2,0,0,1-2-2Z"/><path class="cls-2" d="M59,16A15,15,0,0,1,37.5,29.52l-4.92,2.64.59-3.94A15.2,15.2,0,0,1,32,26.45l.19-1.23a15,15,0,0,1-1.82-3A14.85,14.85,0,0,1,30,19a15,15,0,0,1,28.66-6.19A15.21,15.21,0,0,1,59,16Z"/><path class="cls-3" d="M53,49.68A10.32,10.32,0,0,1,43.23,60H42.14A38.67,38.67,0,0,1,4,21.86c0-.18,0-.36,0-.54s0-.37,0-.55a11,11,0,0,1,.2-1.53A10.31,10.31,0,0,1,14.32,11a10.15,10.15,0,0,1,3.13.49,9.69,9.69,0,0,1,2.1.94L21.61,19l.84,2.66,1.24,3.95A10.23,10.23,0,0,1,19.92,30l-.05,0-.53.32a4,4,0,0,1-.41.21,8.69,8.69,0,0,1-1.48.61A27.12,27.12,0,0,0,32.86,46.55a10.28,10.28,0,0,1,5.35-6.16l13.58,4.45a9.52,9.52,0,0,1,.72,1.71.94.94,0,0,1,0,.16A9.76,9.76,0,0,1,53,49.68Z"/><path class="cls-1" d="M52.55,46.71A10.33,10.33,0,0,1,43.23,54H42.14A38.65,38.65,0,0,1,4.21,19.24,10.31,10.31,0,0,1,14.32,11a10.15,10.15,0,0,1,3.13.49,9.69,9.69,0,0,1,2.1.94L21.61,19l.84,2.66,1.24,3.95A10.23,10.23,0,0,1,19.92,30l-.05,0-.53.32a4,4,0,0,1-.41.21,8.69,8.69,0,0,1-1.48.61A27.12,27.12,0,0,0,32.86,46.55a10.28,10.28,0,0,1,5.35-6.16l13.58,4.45a9.52,9.52,0,0,1,.72,1.71A.94.94,0,0,1,52.55,46.71Z"/><path class="cls-4" d="M54,18v2a2,2,0,0,1-2,2H48v4a2,2,0,0,1-2,2H44a2,2,0,0,1-2-2V22H38a2,2,0,0,1-2-2V18a2,2,0,0,1,2-2h4V12a2,2,0,0,1,2-2h2a2,2,0,0,1,2,2v4h4A2,2,0,0,1,54,18Z"/><path class="cls-5" d="M52.67,44.36a1,1,0,0,0-.57-.47L38.52,39.44a1,1,0,0,0-.74.05,11.39,11.39,0,0,0-5.5,5.74A26.17,26.17,0,0,1,18.77,31.72,11.26,11.26,0,0,0,24.6,26a1,1,0,0,0,0-.71L20.5,12.13a1,1,0,0,0-.44-.56,10.85,10.85,0,0,0-2.3-1A11.05,11.05,0,0,0,14.32,10,11.3,11.3,0,0,0,3,20.7c0,.21,0,.41,0,.62s0,.4,0,.55A39.44,39.44,0,0,0,42.07,61c.21,0,.41,0,.61,0h.6A11.32,11.32,0,0,0,54,49.68a11.12,11.12,0,0,0-.53-3.42A9.93,9.93,0,0,0,52.67,44.36ZM43.16,59h-1A37.48,37.48,0,0,1,5,21.79c0-.16,0-.32,0-.47s0-.32,0-.49A9.32,9.32,0,0,1,14.32,12a9,9,0,0,1,2.83.45,8.1,8.1,0,0,1,1.56.66l3.91,12.42a9.25,9.25,0,0,1-5.47,4.66,1,1,0,0,0-.6.52,1,1,0,0,0,0,.79,28.12,28.12,0,0,0,16,16,1,1,0,0,0,.79,0,1,1,0,0,0,.52-.6,9.36,9.36,0,0,1,4.48-5.38l12.8,4.19a9.06,9.06,0,0,1,.47,1.2A9.19,9.19,0,0,1,52,49.68,9.32,9.32,0,0,1,43.16,59Z"/><path class="cls-5" d="M50.6,6.18a4.8,4.8,0,0,1,.57.26,1,1,0,0,0,.46.11,1,1,0,0,0,.46-1.89c-.23-.12-.48-.23-.73-.34a1,1,0,1,0-.76,1.86Z"/><path class="cls-5" d="M55.52,7a1,1,0,1,0-1.32,1.5A14,14,0,0,1,45,33a13.8,13.8,0,0,1-6.07-1.38l-.07,0-.19-.05-.19,0-.18,0a.76.76,0,0,0-.2.06l-.07,0-4.74,2.54.87-5.81v-.11a1,1,0,0,0-.2-.65h0A13.87,13.87,0,0,1,31,19,14,14,0,0,1,45,5a13.22,13.22,0,0,1,2,.15,1,1,0,0,0,.3-2A15.8,15.8,0,0,0,45,3,16,16,0,0,0,29,19a15.86,15.86,0,0,0,3.12,9.47L31,35.85a1,1,0,0,0,.41,1A1,1,0,0,0,32,37a1,1,0,0,0,.47-.12l6.09-3.26A15.79,15.79,0,0,0,45,35,16,16,0,0,0,55.52,7Z"/><path class="cls-5" d="M46,9H44a3,3,0,0,0-3,3v3H38a3,3,0,0,0-3,3v2a3,3,0,0,0,3,3h3v3a3,3,0,0,0,3,3h2a3,3,0,0,0,3-3V23h3a3,3,0,0,0,3-3V18a3,3,0,0,0-3-3H49V12A3,3,0,0,0,46,9Zm7,9v2a1,1,0,0,1-1,1H48a1,1,0,0,0-1,1v4a1,1,0,0,1-1,1H44a1,1,0,0,1-1-1V22a1,1,0,0,0-1-1H38a1,1,0,0,1-1-1V18a1,1,0,0,1,1-1h4a1,1,0,0,0,1-1V12a1,1,0,0,1,1-1h2a1,1,0,0,1,1,1v4a1,1,0,0,0,1,1h4A1,1,0,0,1,53,18Z"/></g></svg>