<svg xmlns="http://www.w3.org/2000/svg" viewBox="0 0 64 64"><defs><style>.cls-1{fill:#96a1c3;}.cls-2{fill:#ccd3eb;}.cls-3{fill:#f5f7ff;}.cls-4{fill:#0074ff;}.cls-5{fill:#647499;}.cls-6{fill:#033c59;}</style></defs><title>Eyedrop</title><g id="Eyedrop"><path class="cls-1" d="M24,7V19a2,2,0,0,1-2,2H18V5h4A2,2,0,0,1,24,7Z"/><path class="cls-1" d="M12,5V21H6a2,2,0,0,1-2-2V7A2,2,0,0,1,6,5Z"/><path class="cls-2" d="M22,5V17a2,2,0,0,1-2,2H18V5Z"/><path class="cls-2" d="M11,5V19H5a2,2,0,0,1-1-.27V7A2,2,0,0,1,6,5Z"/><path class="cls-1" d="M28,9v8a2,2,0,0,1-2,2H24V7h2A2,2,0,0,1,28,9Z"/><polygon class="cls-3" points="37 11.92 37 14.08 28 16 28 10 37 11.92"/><rect class="cls-4" x="12" y="5" width="6" height="16"/><path class="cls-4" d="M41,27.06a3.93,3.93,0,0,1-3.25,3.88,3.85,3.85,0,0,1-.69.06,3.93,3.93,0,0,1-3.93-3.94c0-1.26,1.33-3,2.45-4.2.8-.88,1.48-1.49,1.48-1.49S41,24.89,41,27.06Z"/><path class="cls-3" d="M36.5,60C28.42,60,20.34,56.08,13,48.25,20.34,40.42,28.42,36.5,36.5,36.5a11.75,11.75,0,0,0,0,23.5Z"/><path class="cls-3" d="M60,48.25C52.66,56.08,44.58,60,36.5,60a11.75,11.75,0,0,0,0-23.5C44.58,36.5,52.66,40.42,60,48.25Z"/><path class="cls-5" d="M48.25,48.25a11.74,11.74,0,1,1-6.8-10.66A11.75,11.75,0,0,1,48.25,48.25Z"/><path class="cls-1" d="M45.25,46.25a11.76,11.76,0,0,1-16.7,10.66,11.76,11.76,0,0,1,12.9-19.32A11.75,11.75,0,0,1,45.25,46.25Z"/><circle class="cls-5" cx="36.5" cy="48.25" r="4.41" transform="translate(-15.69 17.64) rotate(-22.5)"/><path class="cls-6" d="M22,22H6a3,3,0,0,1-3-3V7A3,3,0,0,1,6,4H22a3,3,0,0,1,3,3V19A3,3,0,0,1,22,22ZM6,6A1,1,0,0,0,5,7V19a1,1,0,0,0,1,1H22a1,1,0,0,0,1-1V7a1,1,0,0,0-1-1Z"/><path class="cls-6" d="M26,20H24a1,1,0,0,1-1-1V7a1,1,0,0,1,1-1h2a3,3,0,0,1,3,3v8A3,3,0,0,1,26,20Zm-1-2h1a1,1,0,0,0,1-1V9a1,1,0,0,0-1-1H25Z"/><path class="cls-6" d="M28,17a1,1,0,0,1-1-1V10a1,1,0,0,1,1.21-1l9,1.93a1,1,0,0,1,.79,1v2.16a1,1,0,0,1-.79,1l-9,1.93Zm1-5.76v3.52l7-1.49v-.54Z"/><path class="cls-6" d="M18,22H12a1,1,0,0,1-1-1V5a1,1,0,0,1,1-1h6a1,1,0,0,1,1,1V21A1,1,0,0,1,18,22Zm-5-2h4V6H13Z"/><path class="cls-6" d="M37.06,32a4.94,4.94,0,0,1-4.93-4.94c0-2.49,3.55-5.8,4.27-6.44a1,1,0,0,1,1.33,0c.71.64,4.27,3.95,4.27,6.44A4.94,4.94,0,0,1,37.06,32Zm0-9.26c-1.38,1.38-2.93,3.3-2.93,4.32a2.94,2.94,0,1,0,5.87,0C40,26,38.45,24.11,37.06,22.74Z"/><path class="cls-6" d="M36.5,61c-8.45,0-16.83-4.17-24.23-12.07a1,1,0,0,1,0-1.36c7.4-7.9,15.78-12.07,24.23-12.07s16.83,4.17,24.23,12.07a1,1,0,0,1,0,1.36C53.33,56.83,45,61,36.5,61ZM14.38,48.25C21.23,55.29,28.86,59,36.5,59s15.27-3.71,22.12-10.75c-6.85-7-14.48-10.75-22.12-10.75S21.23,41.21,14.38,48.25Z"/><path class="cls-6" d="M36.5,53.66a5.41,5.41,0,1,1,5.41-5.41A5.42,5.42,0,0,1,36.5,53.66Zm0-8.82a3.41,3.41,0,1,0,3.41,3.41A3.41,3.41,0,0,0,36.5,44.84Z"/><path class="cls-6" d="M48.25,49.15a1,1,0,0,1-1-1,9.31,9.31,0,0,0-.1-1.37,1,1,0,0,1,2-.28,11.66,11.66,0,0,1,.12,1.65A1,1,0,0,1,48.25,49.15Z"/><path class="cls-6" d="M36.5,61A12.75,12.75,0,1,1,47.9,42.55a1,1,0,0,1-.44,1.35,1,1,0,0,1-1.35-.45A10.75,10.75,0,1,0,36.5,59h.44a10.73,10.73,0,0,0,9.87-7.7,1,1,0,1,1,1.92.56A12.73,12.73,0,0,1,37,61Z"/></g></svg>