<svg xmlns="http://www.w3.org/2000/svg" viewBox="0 0 64 64"><defs><style>.cls-1{fill:#96a1c3;}.cls-2{fill:#ccd3eb;}.cls-3{fill:#f5f7ff;}.cls-4{fill:#ffb369;}.cls-5{fill:#033c59;}.cls-6{fill:#0074ff;}</style></defs><title>Flask</title><g id="Flask"><path class="cls-1" d="M59.93,57.33A4,4,0,0,1,56.16,60H27.6a4,4,0,0,1-3.77-2.67,2,2,0,0,1-.09-.33A4,4,0,0,1,24,54.53l.28-.73L25,52l1.59-4.07.36-.93.39-1,1.58-4.07.36-.93.39-1,1.59-4.07L31.6,35,32,34l2.31-5.94c6.37,2.38,7.51-.57,12.11-.55a13.62,13.62,0,0,1,3,.38L59.76,54.53A3.88,3.88,0,0,1,59.93,57.33Z"/><path class="cls-2" d="M55.93,54.33A4,4,0,0,1,52.16,57H23.74A4,4,0,0,1,24,54.53l.28-.73L25,52l1.59-4.07.36-.93.39-1,1.58-4.07.36-.93.39-1,1.59-4.07L31.6,35,32,34l2.31-5.94c6.37,2.38,7.51-.57,12.11-.55l9.35,24A3.88,3.88,0,0,1,55.93,54.33Z"/><path class="cls-3" d="M50.88,6a2,2,0,0,1-2,2h-14a2,2,0,0,1-2-2,2,2,0,0,1,2-2h14a2,2,0,0,1,1.42.59A2,2,0,0,1,50.88,6Z"/><path class="cls-1" d="M19.88,27.78V53A7,7,0,0,1,6,54a5.47,5.47,0,0,1-.08-1V28.26c5.67,1.93,7-.6,11.12-.74A12.46,12.46,0,0,1,19.88,27.78Z"/><path class="cls-2" d="M17,27.52V51a7,7,0,0,1-7,7,6.87,6.87,0,0,1-2.41-.43A6.91,6.91,0,0,1,6,54a5.47,5.47,0,0,1-.08-1V28.26C11.55,30.19,12.87,27.66,17,27.52Z"/><path class="cls-2" d="M19.88,10V27.78A12.46,12.46,0,0,0,17,27.52a8.56,8.56,0,0,0-1.06.09c-2.78.39-4.32,1.79-7.71,1.25a14,14,0,0,1-2.35-.6V10Z"/><path class="cls-3" d="M17,10V27.78c-.37-.07-.73-.13-1.06-.17-3.65-.46-5.3.85-7.71,1.25a14,14,0,0,1-2.35-.6V10Z"/><rect class="cls-3" x="4" y="6" width="18" height="4" rx="1.99" ry="1.99"/><path class="cls-4" d="M10.88,53a1,1,0,0,1-1,1H6a5.47,5.47,0,0,1-.08-1V52h4A1,1,0,0,1,10.88,53Z"/><path class="cls-4" d="M8.88,47a1,1,0,0,1-1,1h-2V46h2A1,1,0,0,1,8.88,47Z"/><path class="cls-4" d="M10.88,41a1,1,0,0,1-1,1h-4V40h4A1,1,0,0,1,10.88,41Z"/><path class="cls-4" d="M8.88,35a1,1,0,0,1-1,1h-2V34h2A1,1,0,0,1,8.88,35Z"/><path class="cls-4" d="M35.88,53a1,1,0,0,1-1,1h-10a1.05,1.05,0,0,1-.6-.2L25,52h9.9A1,1,0,0,1,35.88,53Z"/><path class="cls-4" d="M35.88,47a1,1,0,0,1-1,1h-8a.86.86,0,0,1-.36-.07l.36-.93.39-1h7.56A1,1,0,0,1,35.88,47Z"/><path class="cls-4" d="M35.88,41a1,1,0,0,1-1,1H29.26a.86.86,0,0,1-.36-.07l.36-.93.39-1h5.23A1,1,0,0,1,35.88,41Z"/><path class="cls-4" d="M35.88,35a1,1,0,0,1-1,1H31.6a.86.86,0,0,1-.36-.07L31.6,35,32,34h2.89A1,1,0,0,1,35.88,35Z"/><path class="cls-2" d="M49.39,27.89a13.5,13.5,0,0,0-3-.38,10.43,10.43,0,0,0-1.42.1c-2.78.39-4.32,1.8-7.72,1.26a15.62,15.62,0,0,1-2.92-.81L35.88,24V8h12V24Z"/><path class="cls-3" d="M46.51,27.89a15,15,0,0,0-1.57-.28c-3.65-.46-5.29.85-7.72,1.26a15.62,15.62,0,0,1-2.92-.81L35.88,24V8H45V24l1.36,3.51Z"/><path class="cls-5" d="M48.88,9h-14a3,3,0,0,1,0-6h14a3,3,0,0,1,0,6Zm-14-4a1,1,0,0,0,0,2h14a1,1,0,0,0,0-2Z"/><path class="cls-5" d="M12.88,61a8,8,0,0,1-8-8V10a1,1,0,0,1,1-1h14a1,1,0,0,1,1,1V53A8,8,0,0,1,12.88,61Zm-6-50V53a6,6,0,0,0,12,0V11Z"/><path class="cls-5" d="M20,11H6A3,3,0,0,1,6,5H20a3,3,0,0,1,0,6ZM6,7A1,1,0,0,0,6,9H20a1,1,0,0,0,0-2Z"/><path class="cls-6" d="M9.88,54h-4a1,1,0,0,1,0-2h4a1,1,0,1,1,0,2Z"/><path class="cls-6" d="M7.88,48h-2a1,1,0,0,1,0-2h2a1,1,0,1,1,0,2Z"/><path class="cls-6" d="M9.88,42h-4a1,1,0,0,1,0-2h4a1,1,0,1,1,0,2Z"/><path class="cls-6" d="M7.88,36h-2a1,1,0,0,1,0-2h2a1,1,0,1,1,0,2Z"/><path class="cls-6" d="M34.88,54h-10a1,1,0,1,1,0-2h10a1,1,0,0,1,0,2Z"/><path class="cls-6" d="M34.88,48h-8a1,1,0,0,1,0-2h8a1,1,0,0,1,0,2Z"/><path class="cls-6" d="M34.88,42H29.26a1,1,0,0,1,0-2h5.62a1,1,0,0,1,0,2Z"/><path class="cls-6" d="M34.88,36H31.6a1,1,0,1,1,0-2h3.28a1,1,0,0,1,0,2Z"/><path class="cls-5" d="M53.57,39.61a1,1,0,0,1-.93-.64l-.39-1a1,1,0,1,1,1.86-.72l.39,1a1,1,0,0,1-.57,1.29A.92.92,0,0,1,53.57,39.61Z"/><path class="cls-5" d="M56.16,61H27.6a5,5,0,0,1-4.71-3.34,4.88,4.88,0,0,1,.19-3.51l11.8-30.34V8a1,1,0,0,1,1-1h12a1,1,0,0,1,1,1V23.81l3.83,9.84a1,1,0,0,1-1.86.72l-3.9-10a.89.89,0,0,1-.07-.36V9h-10V24a.89.89,0,0,1-.07.36L24.93,54.89A2.86,2.86,0,0,0,27.6,59H56.16A3,3,0,0,0,59,57a2.93,2.93,0,0,0-.15-2.08L54,42.35a1,1,0,1,1,1.86-.72l4.88,12.54a4.81,4.81,0,0,1,.18,3.49A5,5,0,0,1,56.16,61Z"/><path class="cls-5" d="M49.53,29.54h0a10,10,0,0,1-2.67-.36,7.67,7.67,0,0,0-2.2-.31,8.51,8.51,0,0,0-2.22.23,10.06,10.06,0,0,1-2.68.28A10.36,10.36,0,0,1,37.07,29a8.13,8.13,0,0,0-2.2-.3,1,1,0,0,1,0-2,10,10,0,0,1,2.67.36,7.7,7.7,0,0,0,2.21.31A8,8,0,0,0,42,27.15a10.11,10.11,0,0,1,2.68-.28,10.29,10.29,0,0,1,2.67.37,8.15,8.15,0,0,0,2.21.3,1,1,0,0,1,1,1A1,1,0,0,1,49.53,29.54Z"/><path class="cls-5" d="M19.88,29.53a9.45,9.45,0,0,1-2.57-.31,7.79,7.79,0,0,0-2.1-.25,7.9,7.9,0,0,0-2.1.25,9.31,9.31,0,0,1-2.56.31A9.33,9.33,0,0,1,8,29.22,7.79,7.79,0,0,0,5.88,29a1,1,0,0,1,0-2,9.33,9.33,0,0,1,2.57.31,7.79,7.79,0,0,0,2.1.25,7.84,7.84,0,0,0,2.1-.25A9.31,9.31,0,0,1,15.21,27a9.33,9.33,0,0,1,2.57.31,7.84,7.84,0,0,0,2.1.25,1,1,0,0,1,0,2Z"/></g></svg>