<svg xmlns="http://www.w3.org/2000/svg" xmlns:xlink="http://www.w3.org/1999/xlink" viewBox="0 0 64 64"><defs><style>.cls-1{fill:#96a1c3;}.cls-2{fill:#f5f7ff;}.cls-3{fill:#ccd3eb;}.cls-4{fill:url(#linear-gradient);}.cls-5{fill:url(#linear-gradient-2);}.cls-6{fill:url(#linear-gradient-3);}.cls-7{fill:url(#linear-gradient-4);}.cls-8{fill:url(#linear-gradient-5);}.cls-9{fill:url(#linear-gradient-6);}.cls-10{fill:url(#linear-gradient-7);}.cls-11{fill:url(#linear-gradient-8);}.cls-12{fill:url(#linear-gradient-9);}.cls-13{fill:url(#linear-gradient-10);}.cls-14{fill:url(#linear-gradient-11);}.cls-15{fill:url(#linear-gradient-12);}.cls-16{fill:#033c59;}.cls-17{fill:#0074ff;}</style><linearGradient id="linear-gradient" x1="27" y1="42" x2="30" y2="42" gradientUnits="userSpaceOnUse"><stop offset="0" stop-color="#fe9661"/><stop offset="1" stop-color="#ffb369"/></linearGradient><linearGradient id="linear-gradient-2" x1="45" y1="41" x2="48" y2="41" xlink:href="#linear-gradient"/><linearGradient id="linear-gradient-3" y1="37" x2="32" y2="37" xlink:href="#linear-gradient"/><linearGradient id="linear-gradient-4" x1="45" y1="36" x2="50" y2="36" xlink:href="#linear-gradient"/><linearGradient id="linear-gradient-5" y1="32" y2="32" xlink:href="#linear-gradient"/><linearGradient id="linear-gradient-6" x1="45" y1="31" x2="48" y2="31" xlink:href="#linear-gradient"/><linearGradient id="linear-gradient-7" y1="27" x2="32" y2="27" xlink:href="#linear-gradient"/><linearGradient id="linear-gradient-8" x1="9" x2="12" xlink:href="#linear-gradient"/><linearGradient id="linear-gradient-9" x1="9" y1="37" x2="14" y2="37" xlink:href="#linear-gradient"/><linearGradient id="linear-gradient-10" x1="9" y1="32" x2="12" y2="32" xlink:href="#linear-gradient"/><linearGradient id="linear-gradient-11" x1="9" y1="27" x2="14" y2="27" xlink:href="#linear-gradient"/><linearGradient id="linear-gradient-12" x1="45" y1="26" x2="50" y2="26" xlink:href="#linear-gradient"/></defs><title>Fluid sample</title><g id="Fluid_sample" data-name="Fluid sample"><path class="cls-1" d="M19,15.33V22H9V15.33a9.09,9.09,0,0,0,1.36.46c2.34.6,3.38-.24,5-.62A7,7,0,0,1,19,15.33Z"/><path class="cls-2" d="M19,8v7.33c-5-1.36-5,2-10,0V8Z"/><path class="cls-1" d="M60,54.58V58a2,2,0,0,1-2,2H6a2,2,0,0,1-2-2V54.58Z"/><path class="cls-3" d="M58,54.58V56a2,2,0,0,1-2,2H4V54.58Z"/><path class="cls-1" d="M19,22V44A5,5,0,1,1,9,44V22Z"/><path class="cls-2" d="M21,6a2,2,0,0,1-2,2H9A2,2,0,0,1,7,6,2,2,0,0,1,9,4H19a2,2,0,0,1,2,2Z"/><path class="cls-1" d="M37,22V44a5,5,0,1,1-10,0V22Z"/><path class="cls-1" d="M37,15.33V22H27V15.33a9.09,9.09,0,0,0,1.36.46c2.34.6,3.38-.24,5-.62A7,7,0,0,1,37,15.33Z"/><path class="cls-2" d="M37,8v7.33c-5-1.36-5,2-10,0V8Z"/><path class="cls-2" d="M39,6a2,2,0,0,1-2,2H27a2,2,0,0,1-2-2,2,2,0,0,1,2-2H37a2,2,0,0,1,2,2Z"/><path class="cls-1" d="M55,22V43a5,5,0,1,1-10,0V22Z"/><path class="cls-3" d="M16,22V42a5,5,0,0,1-5,5,4.92,4.92,0,0,1-1.09-.12A5,5,0,0,1,9,44V22Z"/><path class="cls-3" d="M34,22V42a5,5,0,0,1-5,5,4.92,4.92,0,0,1-1.09-.12A5,5,0,0,1,27,44V22Z"/><path class="cls-3" d="M52,22V41a5,5,0,0,1-5,5,4.92,4.92,0,0,1-1.09-.12A5,5,0,0,1,45,43V22Z"/><path class="cls-1" d="M55,15.33V22H45V15.33a9.09,9.09,0,0,0,1.36.46c2.34.6,3.38-.24,5-.62A7,7,0,0,1,55,15.33Z"/><path class="cls-3" d="M16,15.33V22H9V16a5.7,5.7,0,0,0,1.36-.21c1.38-.39,2.52-1.13,5-.62C15.55,15.21,15.77,15.27,16,15.33Z"/><path class="cls-3" d="M34,15.33V22H27V16a5.7,5.7,0,0,0,1.36-.21c1.38-.39,2.52-1.13,5-.62C33.55,15.21,33.77,15.27,34,15.33Z"/><path class="cls-3" d="M52,15.33V22H45V16a5.7,5.7,0,0,0,1.36-.21c2.34.6,3.38-.24,5-.62C51.55,15.21,51.77,15.27,52,15.33Z"/><path class="cls-2" d="M55,7v8.33c-5-1.36-5,2-10,0V7Z"/><path class="cls-2" d="M57,5a2,2,0,0,1-2,2H45a2,2,0,0,1-2-2,2,2,0,0,1,2-2H55a2,2,0,0,1,2,2Z"/><path class="cls-4" d="M30,42a1,1,0,0,1-1,1H27V41h2A1,1,0,0,1,30,42Z"/><path class="cls-5" d="M48,41a1,1,0,0,1-1,1H45V40h2A1,1,0,0,1,48,41Z"/><path class="cls-6" d="M32,37a1,1,0,0,1-1,1H27V36h4A1,1,0,0,1,32,37Z"/><path class="cls-7" d="M50,36a1,1,0,0,1-1,1H45V35h4A1,1,0,0,1,50,36Z"/><path class="cls-8" d="M30,32a1,1,0,0,1-1,1H27V31h2A1,1,0,0,1,30,32Z"/><path class="cls-9" d="M48,31a1,1,0,0,1-1,1H45V30h2A1,1,0,0,1,48,31Z"/><path class="cls-10" d="M27,28h4a1,1,0,0,0,0-2H27Z"/><path class="cls-11" d="M12,42a1,1,0,0,1-1,1H9V41h2A1,1,0,0,1,12,42Z"/><path class="cls-12" d="M14,37a1,1,0,0,1-1,1H9V36h4A1,1,0,0,1,14,37Z"/><path class="cls-13" d="M12,32a1,1,0,0,1-1,1H9V31h2A1,1,0,0,1,12,32Z"/><path class="cls-14" d="M14,27a1,1,0,0,1-1,1H9V26h4A1,1,0,0,1,14,27Z"/><path class="cls-15" d="M50,26a1,1,0,0,1-1,1H45V25h4A1,1,0,0,1,50,26Z"/><path class="cls-16" d="M14,50a6,6,0,0,1-6-6V8A1,1,0,0,1,9,7H19a1,1,0,0,1,1,1V44A6,6,0,0,1,14,50ZM10,9V44a4,4,0,0,0,8,0V9Z"/><path class="cls-16" d="M11.91,17a8.68,8.68,0,0,1-3.29-.74,1,1,0,1,1,.76-1.86,5.21,5.21,0,0,0,4.48.18,7.93,7.93,0,0,1,5.4-.21,1,1,0,0,1-.52,1.93,6,6,0,0,0-4.23.17A7.61,7.61,0,0,1,11.91,17Z"/><path class="cls-16" d="M29.91,17a8.68,8.68,0,0,1-3.29-.74,1,1,0,0,1,.76-1.86,5.21,5.21,0,0,0,4.48.18,7.93,7.93,0,0,1,5.4-.21,1,1,0,0,1-.52,1.93,6,6,0,0,0-4.23.17A7.61,7.61,0,0,1,29.91,17Z"/><path class="cls-16" d="M47.91,17a8.68,8.68,0,0,1-3.29-.74,1,1,0,1,1,.76-1.86,5.21,5.21,0,0,0,4.48.18,7.93,7.93,0,0,1,5.4-.21,1,1,0,0,1-.52,1.93,6,6,0,0,0-4.23.17A7.61,7.61,0,0,1,47.91,17Z"/><path class="cls-16" d="M58,61H6a3,3,0,0,1-3-3V24a3,3,0,0,1,3-3H58a3,3,0,0,1,3,3V58A3,3,0,0,1,58,61ZM6,23a1,1,0,0,0-1,1V58a1,1,0,0,0,1,1H58a1,1,0,0,0,1-1V24a1,1,0,0,0-1-1Z"/><path class="cls-16" d="M19,9H9A3,3,0,0,1,9,3H19a3,3,0,0,1,0,6ZM9,5A1,1,0,0,0,9,7H19a1,1,0,0,0,0-2Z"/><path class="cls-16" d="M32,50a6,6,0,0,1-6-6V8a1,1,0,0,1,1-1H37a1,1,0,0,1,1,1V44A6,6,0,0,1,32,50ZM28,9V44a4,4,0,0,0,8,0V9Z"/><path class="cls-16" d="M37,9H27a3,3,0,0,1,0-6H37a3,3,0,0,1,0,6ZM27,5a1,1,0,0,0,0,2H37a1,1,0,0,0,0-2Z"/><path class="cls-16" d="M50,49a6,6,0,0,1-6-6V7a1,1,0,0,1,1-1H55a1,1,0,0,1,1,1V43A6,6,0,0,1,50,49ZM46,8V43a4,4,0,0,0,8,0V8Z"/><path class="cls-16" d="M55,8H45a3,3,0,0,1,0-6H55a3,3,0,0,1,0,6ZM45,4a1,1,0,0,0,0,2H55a1,1,0,0,0,0-2Z"/><path class="cls-16" d="M60,55.58H46.91a1,1,0,0,1,0-2H60a1,1,0,0,1,0,2Z"/><path class="cls-16" d="M38.09,55.58H4a1,1,0,0,1,0-2H38.09a1,1,0,0,1,0,2Z"/><path class="cls-16" d="M43.09,55.58H41.91a1,1,0,0,1,0-2h1.18a1,1,0,0,1,0,2Z"/><path class="cls-17" d="M29,43H27a1,1,0,0,1,0-2h2a1,1,0,0,1,0,2Z"/><path class="cls-17" d="M47,42H45a1,1,0,0,1,0-2h2a1,1,0,0,1,0,2Z"/><path class="cls-17" d="M11,43H10a1,1,0,0,1,0-2h1a1,1,0,0,1,0,2Z"/><path class="cls-17" d="M31,38H27a1,1,0,0,1,0-2h4a1,1,0,0,1,0,2Z"/><path class="cls-17" d="M49,37H45a1,1,0,0,1,0-2h4a1,1,0,0,1,0,2Z"/><path class="cls-17" d="M13,38H10a1,1,0,0,1,0-2h3a1,1,0,0,1,0,2Z"/><path class="cls-17" d="M29,33H27a1,1,0,0,1,0-2h2a1,1,0,0,1,0,2Z"/><path class="cls-17" d="M47,32H45a1,1,0,0,1,0-2h2a1,1,0,0,1,0,2Z"/><path class="cls-17" d="M11,33H10a1,1,0,0,1,0-2h1a1,1,0,0,1,0,2Z"/><path class="cls-17" d="M31,28H27a1,1,0,0,1,0-2h4a1,1,0,0,1,0,2Z"/><path class="cls-17" d="M49,27H45a1,1,0,0,1,0-2h4a1,1,0,0,1,0,2Z"/><path class="cls-17" d="M13,28H10a1,1,0,0,1,0-2h3a1,1,0,0,1,0,2Z"/></g></svg>