<svg xmlns="http://www.w3.org/2000/svg" viewBox="0 0 64 64"><defs><style>.cls-1{fill:#ccd3eb;}.cls-2{fill:#0074ff;}.cls-3{fill:#f0f7fc;}.cls-4{fill:#033c59;}.cls-5{fill:#f5f7ff;}</style></defs><title>Gender</title><g id="Gender"><path class="cls-1" d="M52,47a6,6,0,0,1-11.12,3.12A5.91,5.91,0,0,1,40,47a6,6,0,0,1,6-6,5.91,5.91,0,0,1,3.12.88A6,6,0,0,1,52,47Z"/><path class="cls-1" d="M24,17a6,6,0,0,1-11.12,3.12A5.91,5.91,0,0,1,12,17a6,6,0,0,1,6-6,5.91,5.91,0,0,1,3.12.88A6,6,0,0,1,24,17Z"/><path class="cls-2" d="M28,43H21V29.62h.2A13,13,0,0,0,30.81,17,12.78,12.78,0,0,0,6,12.47,11.12,11.12,0,0,0,5.54,14a13.15,13.15,0,0,0-.35,3A12.26,12.26,0,0,0,5.34,19,12.92,12.92,0,0,0,14.8,29.62H15V43H8a2,2,0,0,0-2,2v2a2,2,0,0,0,2,2h7v9a2,2,0,0,0,2,2h2a2,2,0,0,0,2-2V49h7a2,2,0,0,0,2-2V45A2,2,0,0,0,28,43ZM18,10a7,7,0,1,1-7,7A7,7,0,0,1,18,10Z"/><path class="cls-3" d="M18,10a7,7,0,1,0,7,7A7,7,0,0,0,18,10Zm0,13a6,6,0,1,1,6-6A6,6,0,0,1,18,23Z"/><path class="cls-2" d="M49,34.35V12.25l7.62,4.17A1,1,0,0,0,58,15.5V11L47,4.59a2,2,0,0,0-2,0L34.5,10.71a1,1,0,0,0-.5.86V15.5a1,1,0,0,0,1.38.92L43,12.25v22.1a13,13,0,1,0,6,0ZM46,54a7,7,0,1,1,7-7A7,7,0,0,1,46,54Z"/><path class="cls-3" d="M46,40a7,7,0,1,0,7,7A7,7,0,0,0,46,40Zm0,13a6,6,0,1,1,6-6A6,6,0,0,1,46,53Z"/><path class="cls-4" d="M18,9a8,8,0,1,0,8,8A8,8,0,0,0,18,9Zm0,14a6,6,0,1,1,6-6A6,6,0,0,1,18,23Z"/><path class="cls-5" d="M22,15a6,6,0,0,1-6,6,5.91,5.91,0,0,1-3.12-.88A5.91,5.91,0,0,1,12,17a6,6,0,0,1,6-6,5.91,5.91,0,0,1,3.12.88A5.91,5.91,0,0,1,22,15Z"/><path class="cls-5" d="M50,45a6,6,0,0,1-6,6,5.91,5.91,0,0,1-3.12-.88A5.91,5.91,0,0,1,40,47a6,6,0,0,1,6-6,5.91,5.91,0,0,1,3.12.88A5.91,5.91,0,0,1,50,45Z"/><path class="cls-4" d="M5.24,17h0a1,1,0,0,1-1-1,8.88,8.88,0,0,1,.12-1.19A1,1,0,0,1,5.52,14a1,1,0,0,1,.81,1.16,8,8,0,0,0-.09.91A1,1,0,0,1,5.24,17Z"/><path class="cls-4" d="M19,61H17a3,3,0,0,1-3-3V50H8a3,3,0,0,1-3-3V45a3,3,0,0,1,3-3h6V30.43A13.85,13.85,0,0,1,4.53,20.15a1,1,0,1,1,2-.44,12,12,0,0,0,8.44,8.91H15a1,1,0,0,1,1,1V43a1,1,0,0,1-1,1H8a1,1,0,0,0-1,1v2a1,1,0,0,0,1,1h7a1,1,0,0,1,1,1v9a1,1,0,0,0,1,1h2a1,1,0,0,0,1-1V49a1,1,0,0,1,1-1h7a1,1,0,0,0,1-1V45a1,1,0,0,0-1-1H21a1,1,0,0,1-1-1V29.62a1,1,0,0,1,1-1h.07A12,12,0,0,0,29.81,17,11.93,11.93,0,0,0,18,5,11.84,11.84,0,0,0,7.28,12a1,1,0,0,1-1.82-.82A13.83,13.83,0,0,1,18,3a14,14,0,0,1,4,27.43V42h6a3,3,0,0,1,3,3v2a3,3,0,0,1-3,3H22v8A3,3,0,0,1,19,61Z"/><path class="cls-4" d="M46,39a8,8,0,1,0,8,8A8,8,0,0,0,46,39Zm0,14a6,6,0,1,1,6-6A6,6,0,0,1,46,53Z"/><path class="cls-4" d="M50,33.58V13.94l6.22,3.4A2,2,0,0,0,59,15.5V11a1,1,0,0,0-.5-.86l-11-6.41a2.94,2.94,0,0,0-3,0L34,9.85a2,2,0,0,0-1,1.72V15.5a2,2,0,0,0,2.86,1.8L42,13.94V33.58a14,14,0,1,0,8,0ZM46,59a12,12,0,0,1-2.77-23.68,1,1,0,0,0,.77-1V12.25a1,1,0,0,0-.49-.86,1,1,0,0,0-.51-.14,1,1,0,0,0-.48.12L35,15.49V11.57L45.5,5.45a1,1,0,0,1,1,0L57,11.57v3.92l-7.52-4.12a1,1,0,0,0-1,0,1,1,0,0,0-.49.86v22.1a1,1,0,0,0,.77,1A12,12,0,0,1,46,59Z"/></g></svg>