<svg xmlns="http://www.w3.org/2000/svg" viewBox="0 0 64 64"><defs><style>.cls-1{fill:#ccd3eb;}.cls-2{fill:#f5f7ff;}.cls-3{fill:#0074ff;}.cls-4{fill:#033c59;}</style></defs><title>Health</title><g id="Health"><path class="cls-1" d="M51,7c-6-3.29-13.29-3.48-19.09,2.32A16,16,0,0,0,29.17,7a12.94,12.94,0,0,0-1.29-.74C13-1.23-7.06,21.19,6.48,34.72l22.6,22.6,1.44,1.44a2,2,0,0,0,2.83,0l24-24C66.68,25.43,60.59,12.21,51,7ZM18,30A14,14,0,1,1,32,44,14,14,0,0,1,18,30Z"/><path class="cls-2" d="M54.39,32.72l-24,24a1.92,1.92,0,0,1-1.27.56L6.48,34.72C-7.06,21.19,13-1.23,27.88,6.3c.36.3.71.63,1.05,1L29.17,7a16,16,0,0,1,2.76,2.23C37.73,3.47,45.05,3.66,51,7,58.74,13.05,62.66,24.44,54.39,32.72Z"/><path class="cls-3" d="M32,16A14,14,0,1,0,46,30,14,14,0,0,0,32,16Zm8,17H35v5a2,2,0,0,1-2,2H31a2,2,0,0,1-2-2V33H24a2,2,0,0,1-2-2V29a2,2,0,0,1,2-2h5V22a2,2,0,0,1,2-2h2a2,2,0,0,1,2,2v5h5a2,2,0,0,1,2,2v2A2,2,0,0,1,40,33Z"/><path class="cls-2" d="M42,29v2a2,2,0,0,1-2,2H35v5a2,2,0,0,1-2,2H31a2,2,0,0,1-2-2V33H24a2,2,0,0,1-2-2V29a2,2,0,0,1,2-2h5V22a2,2,0,0,1,2-2h2a2,2,0,0,1,2,2v5h5A2,2,0,0,1,42,29Z"/><path class="cls-4" d="M52.2,8.85A7.56,7.56,0,0,1,53,9.4a1.11,1.11,0,0,0,.63.21,1,1,0,0,0,.57-1.82,10.46,10.46,0,0,0-.89-.64,1,1,0,1,0-1.06,1.7Z"/><path class="cls-4" d="M57.27,10.59A1,1,0,0,0,55.81,12c5.5,5.91,7.91,15,.87,22.06l-24,24a1,1,0,0,1-1.42,0l-24-24A13.38,13.38,0,0,1,3.53,20.45,20.8,20.8,0,0,1,17.66,6.32,13.38,13.38,0,0,1,31.22,10a1,1,0,0,0,1.42,0,14.11,14.11,0,0,1,16.2-3,1,1,0,1,0,.78-1.84C43.26,2.43,36.86,3.44,31.93,7.89A15.44,15.44,0,0,0,17.14,4.38,23,23,0,0,0,1.59,19.93a15.52,15.52,0,0,0,4.18,15.5l24,24a3,3,0,0,0,2.12.87,3,3,0,0,0,2.13-.87l24-24C66,27.49,63.23,17,57.27,10.59Z"/><path class="cls-4" d="M28,22v4H24a3,3,0,0,0-3,3v2a3,3,0,0,0,3,3h4v4a3,3,0,0,0,3,3h2a3,3,0,0,0,3-3V34h4a3,3,0,0,0,3-3V29a3,3,0,0,0-3-3H36V22a3,3,0,0,0-3-3H31A3,3,0,0,0,28,22Zm6,0v5a1,1,0,0,0,1,1h5a1,1,0,0,1,1,1v2a1,1,0,0,1-1,1H35a1,1,0,0,0-1,1v5a1,1,0,0,1-1,1H31a1,1,0,0,1-1-1V33a1,1,0,0,0-1-1H24a1,1,0,0,1-1-1V29a1,1,0,0,1,1-1h5a1,1,0,0,0,1-1V22a1,1,0,0,1,1-1h2A1,1,0,0,1,34,22Z"/><path class="cls-4" d="M17,30A15,15,0,1,0,32,15,15,15,0,0,0,17,30Zm28,0A13,13,0,1,1,32,17,13,13,0,0,1,45,30Z"/></g></svg>