<svg xmlns="http://www.w3.org/2000/svg" viewBox="0 0 64 64"><defs><style>.cls-1{fill:#ccd3eb;}.cls-2{fill:#f5f7ff;}.cls-3{fill:#0074ff;}.cls-4{fill:#033c59;}</style></defs><title>Heartbeat</title><g id="Heartbeat"><path class="cls-1" d="M60.12,31.15,58.9,33a18.23,18.23,0,0,1-1.51,1.72l-24,24a2,2,0,0,1-2.83,0l-24-24A15.78,15.78,0,0,1,5,33a15.08,15.08,0,0,1-1.27-1.95C-3.64,17.55,14.3-.58,27.88,6.3A12.94,12.94,0,0,1,29.17,7a16,16,0,0,1,2.76,2.23C37.74,3.46,45.08,3.66,51.05,7,59.43,11.59,65.12,22.32,60.12,31.15Z"/><path class="cls-2" d="M57.12,29.15,55.9,31a18.23,18.23,0,0,1-1.51,1.72l-24,24a1.92,1.92,0,0,1-1.27.56L6.48,34.72A15.78,15.78,0,0,1,5,33a15.08,15.08,0,0,1-1.27-1.95C-3.64,17.55,14.3-.58,27.88,6.3c.36.3.71.63,1.05,1L29.17,7a16,16,0,0,1,2.76,2.23C37.74,3.46,45.08,3.66,51.05,7,57.69,12.24,61.5,21.42,57.12,29.15Z"/><path class="cls-3" d="M59.61,33H53a1,1,0,0,1,0-2h6.61a1,1,0,0,1,0,2Z"/><path class="cls-3" d="M45,32a1,1,0,0,1-1,1H41a1,1,0,0,1-1-.71l-1.95-6.52L35,38.24A1,1,0,0,1,34,39h0a1,1,0,0,1-.95-.81L29.66,20.55,24.93,32.37A1,1,0,0,1,24,33H4a.93.93,0,0,1-.29,0,11.92,11.92,0,0,1-.7-1.1A1,1,0,0,1,4,31H23.32l5.75-14.37a1,1,0,0,1,1.91.18l3.15,16.54L37,21.76A1,1,0,0,1,38,21a1,1,0,0,1,1,.71L41.74,31H44A1,1,0,0,1,45,32Z"/><path class="cls-4" d="M56.68,10C50.39,3.68,40.09.48,31.93,7.89A15.42,15.42,0,0,0,17.14,4.38,23,23,0,0,0,1.59,19.93,15.39,15.39,0,0,0,3,31.85a11.92,11.92,0,0,0,.7,1.1,17,17,0,0,0,2.06,2.48l24,24a3,3,0,0,0,4.24,0l24-24C66.35,27.17,63.15,16.44,56.68,10Zm0,24-24,24.05a1,1,0,0,1-1.42,0L7.18,34c-.34-.34-.65-.67-.93-1a14,14,0,0,1-1.43-2,13.41,13.41,0,0,1-1.3-10.55A20.87,20.87,0,0,1,17.66,6.31a15.53,15.53,0,0,1,3.91-.53A13.3,13.3,0,0,1,31.22,10a1,1,0,0,0,1.42,0c7.29-7.29,16.84-4.37,22.63,1.42a19,19,0,0,1,5.63,11A13.76,13.76,0,0,1,56.68,34Z"/><path class="cls-3" d="M49,33H48a1,1,0,0,1,0-2h1a1,1,0,0,1,0,2Z"/></g></svg>