<svg xmlns="http://www.w3.org/2000/svg" xmlns:xlink="http://www.w3.org/1999/xlink" viewBox="0 0 64 64"><defs><style>.cls-1{fill:#ccd3eb;}.cls-2{fill:#f5f7ff;}.cls-3{fill:#54a5ff;}.cls-4{fill:url(#linear-gradient);}.cls-5{fill:url(#linear-gradient-2);}.cls-6{fill:url(#linear-gradient-3);}.cls-7{fill:#0074ff;}.cls-8{fill:#b4cde1;}.cls-9{fill:#647499;}.cls-10{fill:#96a1c3;}.cls-11{fill:#033c59;}</style><linearGradient id="linear-gradient" x1="53" y1="5.5" x2="61" y2="5.5" gradientUnits="userSpaceOnUse"><stop offset="0" stop-color="#fe9661"/><stop offset="1" stop-color="#ffb369"/></linearGradient><linearGradient id="linear-gradient-2" y1="58.5" y2="58.5" xlink:href="#linear-gradient"/><linearGradient id="linear-gradient-3" x1="56" y1="32" x2="58" y2="32" xlink:href="#linear-gradient"/></defs><title>Height scale</title><g id="Height_scale" data-name="Height scale"><rect class="cls-1" x="10" y="8" width="7" height="47"/><path class="cls-2" d="M14,8V47.83A4.17,4.17,0,0,1,10,52V8Z"/><path class="cls-3" d="M13,47a1,1,0,0,1-1,1H10V46h2A1,1,0,0,1,13,47Z"/><path class="cls-3" d="M14,40a1,1,0,0,1-1,1H10V39h3A1,1,0,0,1,14,40Z"/><path class="cls-3" d="M13,33a1,1,0,0,1-1,1H10V32h2A1,1,0,0,1,13,33Z"/><path class="cls-3" d="M14,26a1,1,0,0,1-1,1H10V25h3A1,1,0,0,1,14,26Z"/><path class="cls-3" d="M13,19a1,1,0,0,1-1,1H10V18h2A1,1,0,0,1,13,19Z"/><path class="cls-3" d="M14,12a1,1,0,0,1-1,1H10V11h3A1,1,0,0,1,14,12Z"/><path class="cls-4" d="M60,8a1,1,0,0,1-.71-.29L57,5.41l-2.29,2.3a1,1,0,0,1-1.42-1.42l3-3a1,1,0,0,1,1.42,0l3,3a1,1,0,0,1,0,1.42A1,1,0,0,1,60,8Z"/><path class="cls-5" d="M57,61a1,1,0,0,1-.71-.29l-3-3a1,1,0,0,1,1.42-1.42L57,58.59l2.29-2.3a1,1,0,0,1,1.42,1.42l-3,3A1,1,0,0,1,57,61Z"/><path class="cls-6" d="M57,61a1,1,0,0,1-1-1V4a1,1,0,0,1,2,0V60A1,1,0,0,1,57,61Z"/><circle class="cls-7" cx="32" cy="14" r="5"/><path class="cls-7" d="M39,54v1H25V54a3,3,0,0,1,3-3V26H24.06a8,8,0,0,1,15.88,0H36V51A3,3,0,0,1,39,54Z"/><path class="cls-7" d="M28,26V36H27a3,3,0,0,1-3-3V27a8.26,8.26,0,0,1,.06-1Z"/><path class="cls-7" d="M40,27v6a3,3,0,0,1-3,3H36V26h3.94A8.26,8.26,0,0,1,40,27Z"/><path class="cls-8" d="M32,56a1,1,0,0,1-1-1V38a1,1,0,0,1,2,0V55A1,1,0,0,1,32,56Z"/><path class="cls-8" d="M26,5H18a1,1,0,0,1,0-2h8a1,1,0,0,1,0,2Z"/><rect class="cls-9" x="8" y="4" width="11" height="4" rx="1" ry="1"/><path class="cls-9" d="M50,57v3H4V57a2,2,0,0,1,2-2H48A2,2,0,0,1,50,57Z"/><path class="cls-10" d="M48,55a3,3,0,0,1-3,3H4V57a2,2,0,0,1,2-2Z"/><path class="cls-11" d="M17,20a1,1,0,0,0-1,1v1a1,1,0,0,0,2,0V21A1,1,0,0,0,17,20Z"/><path class="cls-9" d="M59.29,56.29,58,57.59V6.41l1.29,1.3a1,1,0,0,0,1.42,0,1,1,0,0,0,0-1.42l-3-3a1,1,0,0,0-.33-.21,1,1,0,0,0-.76,0,1,1,0,0,0-.33.21l-3,3a1,1,0,0,0,1.42,1.42L56,6.41V57.59l-1.29-1.3a1,1,0,0,0-1.42,1.42l3,3a1,1,0,0,0,.33.21.94.94,0,0,0,.76,0,1,1,0,0,0,.33-.21l3-3a1,1,0,0,0-1.42-1.42Z"/><path class="cls-11" d="M48,54H40a4,4,0,0,0-3-3.87V37a4,4,0,0,0,4-4V27a9,9,0,0,0-5.37-8.23,6,6,0,1,0-7.26,0A9,9,0,0,0,23,27v6a4,4,0,0,0,4,4V50.13A4,4,0,0,0,24,54H18V26a1,1,0,0,0-2,0V54H11V48h1a1,1,0,0,0,0-2H11V41h2a1,1,0,0,0,0-2H11V34h1a1,1,0,0,0,0-2H11V27h2a1,1,0,0,0,0-2H11V20h1a1,1,0,0,0,0-2H11V13h2a1,1,0,0,0,0-2H11V9h5v8a1,1,0,0,0,2,0V9h1a1,1,0,0,0,1-1V5h7a1,1,0,0,0,0-2H8A1,1,0,0,0,7,4V8A1,1,0,0,0,8,9H9V54H6a3,3,0,0,0-3,3v3a1,1,0,0,0,1,1H50a1,1,0,0,0,1-1V57A3,3,0,0,0,48,54ZM28,14a4,4,0,1,1,4,4A4,4,0,0,1,28,14Zm0,38a1,1,0,0,0,1-1V26a1,1,0,0,0-2,0v9a2,2,0,0,1-2-2V27a7,7,0,0,1,14,0v6a2,2,0,0,1-2,2V26a1,1,0,0,0-2,0V51a1,1,0,0,0,1,1,2,2,0,0,1,2,2H33V38a1,1,0,0,0-2,0V54H26A2,2,0,0,1,28,52ZM9,5h9V7H9ZM49,59H5V57a1,1,0,0,1,1-1H48a1,1,0,0,1,1,1Z"/></g></svg>