<svg xmlns="http://www.w3.org/2000/svg" viewBox="0 0 64 64"><defs><style>.cls-1{fill:#9db8d3;}.cls-2{fill:#96a1c3;}.cls-3{fill:#ccd3eb;}.cls-4{fill:#f5f7ff;}.cls-5{fill:#f0f7fc;}.cls-6{fill:#d7e9f7;}.cls-7{fill:#647499;}.cls-8{fill:#033c59;}.cls-9{fill:#0074ff;}</style></defs><title>Helicopter</title><g id="Helicopter"><path class="cls-1" d="M36,52a1,1,0,0,1-1-1l-.15-6.87a1,1,0,0,1,1-1h0a1,1,0,0,1,1,1L37,51a1,1,0,0,1-1,1Z"/><path class="cls-1" d="M55.93,53H32a1,1,0,0,1,0-2H55.93a4,4,0,0,0,2.83-1.17l.53-.54a1,1,0,0,1,1.42,1.42l-.54.53A5.93,5.93,0,0,1,55.93,53Z"/><path class="cls-2" d="M61.93,40A7,7,0,0,1,55,46H40a9,9,0,0,1-9-9V32L4.3,26.55A3,3,0,0,1,2,23.63V17a2,2,0,0,1,2-2h.68a2,2,0,0,1,1.84,1.21l2.22,5.18a1,1,0,0,0,.92.61H45c.33,0,.67,0,1,0V32.6A7.34,7.34,0,0,0,53.32,40Z"/><path class="cls-3" d="M61.93,37A7,7,0,0,1,55,43H40a9,9,0,0,1-9-9V29L4.3,23.55A3,3,0,0,1,2,20.63V17a2,2,0,0,1,2-2h.68a2,2,0,0,1,1.84,1.21l2.22,5.18a1,1,0,0,0,.92.61H45c.33,0,.67,0,1,0V29.6A7.34,7.34,0,0,0,53.32,37Z"/><path class="cls-3" d="M62,39a6,6,0,0,1-.07,1H53.32A7.34,7.34,0,0,1,46,32.6V22A17,17,0,0,1,61.88,37,16.52,16.52,0,0,1,62,39Z"/><path class="cls-4" d="M61.88,37H53.32A7.34,7.34,0,0,1,46,29.65V22A17,17,0,0,1,61.88,37Z"/><path class="cls-5" d="M42,31H36a1,1,0,0,1,0-2h6a1,1,0,0,1,0,2Z"/><path class="cls-5" d="M39,34a1,1,0,0,1-1-1V27a1,1,0,0,1,2,0v6A1,1,0,0,1,39,34Z"/><path class="cls-6" d="M34,19a1,1,0,0,1-1-1V12a1,1,0,0,1,2,0v6A1,1,0,0,1,34,19Z"/><path class="cls-2" d="M40,20v2H28V20a2,2,0,0,1,2-2h8A2,2,0,0,1,40,20Z"/><path class="cls-7" d="M56,15H12a1,1,0,0,1,0-2H56a1,1,0,0,1,0,2Z"/><path class="cls-8" d="M55.92,24.69a1,1,0,0,0-1.2,1.6c.26.2.52.41.76.63a1,1,0,1,0,1.36-1.46A11,11,0,0,0,55.92,24.69Z"/><path class="cls-9" d="M40,31h2a1,1,0,0,0,0-2H40V27a1,1,0,0,0-2,0v2H36a1,1,0,0,0,0,2h2v2a1,1,0,0,0,2,0Z"/><path class="cls-8" d="M59.29,49.29l-.53.54a6.4,6.4,0,0,1-.5.41l-1.65-3.4A8,8,0,0,0,63,39a17.86,17.86,0,0,0-3.45-10.6,1,1,0,0,0-1.62,1.18A15.86,15.86,0,0,1,61,39H53a6,6,0,0,1-6-6V23.14a15.71,15.71,0,0,1,4.64,1.3,1.06,1.06,0,0,0,.42.09,1,1,0,0,0,.42-1.91,18.1,18.1,0,0,0-6.22-1.57A1.09,1.09,0,0,0,46,21a.61.61,0,0,0-.13,0q-.43,0-.87,0H41V20a3,3,0,0,0-3-3H35V12a1,1,0,0,0-2,0v5H30a3,3,0,0,0-3,3v1H9.66L7.44,15.81A3,3,0,0,0,4.68,14H4a3,3,0,0,0-3,3v6.63a4,4,0,0,0,3.1,3.9L30,32.82V37a10,10,0,0,0,4.86,8.56L35,50.88A.42.42,0,0,0,35,51H32a1,1,0,0,0,0,2H55.93a5.93,5.93,0,0,0,4.24-1.76l.54-.53a1,1,0,0,0-1.42-1.42ZM29,20a1,1,0,0,1,1-1h8a1,1,0,0,1,1,1v1H29Zm3,17V32s0-.06,0-.1a1.06,1.06,0,0,0,0-.19,1.34,1.34,0,0,0-.07-.18l-.11-.15a.86.86,0,0,0-.13-.14l-.15-.1a.64.64,0,0,0-.19-.08l-.09,0L4.53,25.58A2,2,0,0,1,3,23.63V17a1,1,0,0,1,1-1h.68a1,1,0,0,1,.92.6l2.22,5.19A2,2,0,0,0,9.66,23H45V33a8,8,0,0,0,8,8h7.65A6,6,0,0,1,55,45H40A8,8,0,0,1,32,37Zm5,14a1,1,0,0,0,0-.17l-.11-4.33A10,10,0,0,0,40,47H54.47l1.91,4c-.15,0-.3,0-.45,0Z"/></g></svg>