<svg xmlns="http://www.w3.org/2000/svg" viewBox="0 0 64 64"><defs><style>.cls-1{fill:#ccd3eb;}.cls-2{fill:#f5f7ff;}.cls-3{fill:#0074ff;}.cls-4{fill:#647499;}.cls-5{fill:#96a1c3;}.cls-6{fill:#033c59;}</style></defs><title>Herbal</title><g id="Herbal"><path class="cls-1" d="M57.93,23H6.07A2.07,2.07,0,0,0,4,25.07V27A28,28,0,0,0,19.16,51.88,28.37,28.37,0,0,0,23,53.51a27.93,27.93,0,0,0,18,0A28,28,0,0,0,60,27V25.07A2.07,2.07,0,0,0,57.93,23ZM22,38.13a2,2,0,0,1,2-2h5v-5a2,2,0,0,1,2-2h2a2,2,0,0,1,2,2v5h5a2,2,0,0,1,2,2v2a2,2,0,0,1-2,2H35v5a2,2,0,0,1-2,2H31a2,2,0,0,1-2-2v-5H24a2,2,0,0,1-2-2Z"/><path class="cls-2" d="M56,24v2A28,28,0,0,1,37,52.51a28,28,0,0,1-16.84.37A28,28,0,0,1,5,28V26.07A2.07,2.07,0,0,1,7.07,24Z"/><path class="cls-3" d="M42,38.13v2a2,2,0,0,1-2,2H35v5a2,2,0,0,1-2,2H31a2,2,0,0,1-2-2v-5H24a2,2,0,0,1-2-2v-2a2,2,0,0,1,2-2h5v-5a2,2,0,0,1,2-2h2a2,2,0,0,1,2,2v5h5A2,2,0,0,1,42,38.13Z"/><path class="cls-4" d="M41,53.51V58a2,2,0,0,1-2,2H25a2,2,0,0,1-2-2V53.51a27.95,27.95,0,0,0,16,.6C39.68,53.94,40.34,53.74,41,53.51Z"/><path class="cls-5" d="M39,54.11V56a2,2,0,0,1-2,2H23V53.51a27.95,27.95,0,0,0,16,.6Z"/><path class="cls-5" d="M57.77,10l-1.54,2.58-6.87-4.1,1.53-2.57A4,4,0,0,1,57.77,10Z"/><polygon class="cls-2" points="56.23 12.55 50.01 23 40.7 23 49.36 8.45 56.23 12.55"/><path class="cls-3" d="M29,10v6a10,10,0,0,1-2.86,7H20V21a9.84,9.84,0,0,0-.66-3.57A10,10,0,0,1,29,10Z"/><path class="cls-3" d="M20,21v2H12a9.93,9.93,0,0,1-2-6V11a10,10,0,0,1,9.34,6.43A9.84,9.84,0,0,1,20,21Z"/><path class="cls-6" d="M58.49,37.06a1.12,1.12,0,0,1-.35-.06,1,1,0,0,1-.59-1.29c.12-.32.22-.65.32-1a1,1,0,1,1,1.92.54c-.1.38-.22.77-.36,1.15A1,1,0,0,1,58.49,37.06Z"/><path class="cls-6" d="M32,56A29,29,0,0,1,3,27V25.07A3.08,3.08,0,0,1,6.07,22H57.93A3.08,3.08,0,0,1,61,25.07V27a28.75,28.75,0,0,1-.31,4.28,1,1,0,1,1-2-.3A27.42,27.42,0,0,0,59,27V25.07A1.07,1.07,0,0,0,57.93,24H6.07A1.07,1.07,0,0,0,5,25.07V27A27,27,0,0,0,56.06,39.25a1,1,0,0,1,1.78.9A28.92,28.92,0,0,1,32,56Z"/><path class="cls-6" d="M39,61H25a3,3,0,0,1-3-3V53.51a1,1,0,1,1,2,0V58a1,1,0,0,0,1,1H39a1,1,0,0,0,1-1V53.51a1,1,0,1,1,2,0V58A3,3,0,0,1,39,61Z"/><path class="cls-6" d="M50,24a1,1,0,0,1-.51-.14,1,1,0,0,1-.35-1.37l7.76-13a3,3,0,0,0,.33-2.27,2.94,2.94,0,0,0-1.37-1.84,3,3,0,0,0-4.12,1L41.56,23.51a1,1,0,0,1-1.72-1L50,5.37a5,5,0,0,1,6.86-1.74,5,5,0,0,1,1.74,6.85l-7.76,13A1,1,0,0,1,50,24Z"/><path class="cls-6" d="M55.37,13a1.06,1.06,0,0,1-.51-.14L49.71,9.83a1,1,0,0,1,1-1.72l5.16,3.07A1,1,0,0,1,55.37,13Z"/><path class="cls-6" d="M26.14,24a1,1,0,0,1-.7-.29,1,1,0,0,1,0-1.41A8.92,8.92,0,0,0,28,16V11.06a9,9,0,0,0-7.69,6.63,1,1,0,0,1-1.94-.52A11,11,0,0,1,29,9a1,1,0,0,1,1,1v6a10.91,10.91,0,0,1-3.15,7.7A1,1,0,0,1,26.14,24Z"/><path class="cls-6" d="M12,24a1,1,0,0,1-.8-.4A10.86,10.86,0,0,1,9,17V11a1,1,0,0,1,1-1,11,11,0,0,1,10.27,7.07A10.92,10.92,0,0,1,21,21v2a1,1,0,0,1-2,0V21a9,9,0,0,0-8-8.94V17a8.93,8.93,0,0,0,1.81,5.4,1,1,0,0,1-.2,1.4A1,1,0,0,1,12,24Z"/><path class="cls-6" d="M40,43.13H35a1,1,0,0,1,0-2h5a1,1,0,0,0,1-1v-2a1,1,0,0,0-1-1H35a1,1,0,0,1,0-2h5a3,3,0,0,1,3,3v2A3,3,0,0,1,40,43.13Z"/><path class="cls-6" d="M35,37.13a1,1,0,0,1-1-1v-5a1,1,0,0,0-1-1H31a1,1,0,0,0-1,1v5a1,1,0,0,1-2,0v-5a3,3,0,0,1,3-3h2a3,3,0,0,1,3,3v5A1,1,0,0,1,35,37.13Z"/><path class="cls-6" d="M33,50.13H31a3,3,0,0,1-3-3v-5a1,1,0,1,1,2,0v5a1,1,0,0,0,1,1h2a1,1,0,0,0,1-1v-5a1,1,0,1,1,2,0v5A3,3,0,0,1,33,50.13Z"/><path class="cls-6" d="M29,43.13H24a3,3,0,0,1-3-3v-2a3,3,0,0,1,3-3h5a1,1,0,0,1,0,2H24a1,1,0,0,0-1,1v2a1,1,0,0,0,1,1h5a1,1,0,0,1,0,2Z"/></g></svg>