<svg xmlns="http://www.w3.org/2000/svg" viewBox="0 0 64 64"><defs><style>.cls-1{fill:#ccd3eb;}.cls-2{fill:#f5f7ff;}.cls-3{fill:#b4cde1;}.cls-4{fill:#96a1c3;}.cls-5{fill:#0074ff;}.cls-6{fill:#fe9661;}.cls-7{fill:#033c59;}</style></defs><title>Hospital</title><g id="Hospital"><path class="cls-1" d="M15,21V61h7V51a2,2,0,0,1,2-2H40a2,2,0,0,1,2,2V61h7V21ZM25,44H19V38h6Zm0-12H19V26h6ZM35,44H29V38h6Zm0-12H29V26h6ZM45,44H39V38h6Zm0-12H39V26h6Z"/><rect class="cls-2" x="14" y="18" width="34" height="40"/><path class="cls-1" d="M2,29V61H15V29Zm9,21H6V45h5Zm0-10H6V35h5Z"/><path class="cls-1" d="M50,29V61H63V29Zm9,21H54V45h5Zm0-10H54V35h5Z"/><path class="cls-3" d="M19,27v4a1,1,0,0,0,1,1h4a1,1,0,0,0,1-1V27a1,1,0,0,0-1-1H20A1,1,0,0,0,19,27Zm10,0v4a1,1,0,0,0,1,1h4a1,1,0,0,0,1-1V27a1,1,0,0,0-1-1H30A1,1,0,0,0,29,27Zm10,0v4a1,1,0,0,0,1,1h4a1,1,0,0,0,1-1V27a1,1,0,0,0-1-1H40A1,1,0,0,0,39,27Z"/><path class="cls-4" d="M42,51V61H32V49h8A2,2,0,0,1,42,51Z"/><path class="cls-1" d="M40,49v6.33A3.64,3.64,0,0,1,36.35,59H30V49Z"/><path class="cls-4" d="M32,49V61H22V51a2,2,0,0,1,2-2Z"/><path class="cls-1" d="M32,49V59H22V51a2,2,0,0,1,2-2Z"/><rect class="cls-3" x="39" y="26" width="6" height="6" rx="1" ry="1"/><rect class="cls-3" x="39" y="38" width="6" height="6" rx="1" ry="1"/><rect class="cls-3" x="29" y="38" width="6" height="6" rx="1" ry="1"/><rect class="cls-3" x="19" y="38" width="6" height="6" rx="1" ry="1"/><rect class="cls-3" x="19" y="26" width="6" height="6" rx="1" ry="1"/><rect class="cls-3" x="29" y="26" width="6" height="6" rx="1" ry="1"/><rect class="cls-3" x="39" y="26" width="6" height="6" rx="1" ry="1"/><rect class="cls-3" x="39" y="38" width="6" height="6" rx="1" ry="1"/><rect class="cls-3" x="29" y="38" width="6" height="6" rx="1" ry="1"/><rect class="cls-3" x="19" y="38" width="6" height="6" rx="1" ry="1"/><rect class="cls-5" x="29" y="26" width="6" height="6" rx="1" ry="1"/><rect class="cls-2" x="2" y="26" width="13" height="32"/><rect class="cls-5" x="19" y="26" width="6" height="6" rx="1" ry="1"/><rect class="cls-5" x="6" y="35" width="5" height="5" rx="1" ry="1"/><path class="cls-2" d="M59,29V51a7,7,0,0,1-7,7H50V29Z"/><rect class="cls-5" x="53" y="35" width="5" height="5" rx="1" ry="1"/><rect class="cls-5" x="6" y="45" width="5" height="5" rx="1" ry="1"/><rect class="cls-5" x="53" y="45" width="5" height="5" rx="1" ry="1"/><rect class="cls-5" x="39" y="26" width="6" height="6" rx="1" ry="1"/><rect class="cls-5" x="29" y="38" width="6" height="6" rx="1" ry="1"/><rect class="cls-5" x="19" y="38" width="6" height="6" rx="1" ry="1"/><rect class="cls-5" x="39" y="38" width="6" height="6" rx="1" ry="1"/><path class="cls-4" d="M15,25v4H3a2,2,0,0,1-1.41-.59A2,2,0,0,1,1,27a2,2,0,0,1,2-2Z"/><path class="cls-4" d="M63,27a2,2,0,0,1-2,2H49V25H61A2,2,0,0,1,63,27Z"/><path class="cls-4" d="M51,19a2,2,0,0,1-2,2H15a2,2,0,0,1-2-2,2,2,0,0,1,2-2H49a2,2,0,0,1,2,2Z"/><path class="cls-5" d="M40,5V17H24V5a2,2,0,0,1,2-2H38A2,2,0,0,1,40,5Z"/><path class="cls-6" d="M32,14a1,1,0,0,1-1-1V7a1,1,0,0,1,2,0v6A1,1,0,0,1,32,14Z"/><path class="cls-6" d="M35,11H29a1,1,0,0,1,0-2h6a1,1,0,0,1,0,2Z"/><path class="cls-7" d="M38,22h1a1,1,0,0,0,1-1h0a1,1,0,0,0-1-1H38a1,1,0,0,0-1,1h0A1,1,0,0,0,38,22Z"/><path class="cls-7" d="M29,33h6a1,1,0,0,0,1-1V26a1,1,0,0,0-1-1H29a1,1,0,0,0-1,1v6A1,1,0,0,0,29,33Zm1-6h4v4H30Z"/><path class="cls-7" d="M19,33h6a1,1,0,0,0,1-1V26a1,1,0,0,0-1-1H19a1,1,0,0,0-1,1v6A1,1,0,0,0,19,33Zm1-6h4v4H20Z"/><path class="cls-7" d="M11,34H6a1,1,0,0,0-1,1v5a1,1,0,0,0,1,1h5a1,1,0,0,0,1-1V35A1,1,0,0,0,11,34Zm-1,5H7V36h3Z"/><path class="cls-7" d="M53,41h5a1,1,0,0,0,1-1V35a1,1,0,0,0-1-1H53a1,1,0,0,0-1,1v5A1,1,0,0,0,53,41Zm1-5h3v3H54Z"/><path class="cls-7" d="M11,44H6a1,1,0,0,0-1,1v5a1,1,0,0,0,1,1h5a1,1,0,0,0,1-1V45A1,1,0,0,0,11,44Zm-1,5H7V46h3Z"/><path class="cls-7" d="M53,51h5a1,1,0,0,0,1-1V45a1,1,0,0,0-1-1H53a1,1,0,0,0-1,1v5A1,1,0,0,0,53,51Zm1-5h3v3H54Z"/><path class="cls-7" d="M38,26v6a1,1,0,0,0,1,1h6a1,1,0,0,0,1-1V26a1,1,0,0,0-1-1H39A1,1,0,0,0,38,26Zm2,1h4v4H40Z"/><path class="cls-7" d="M29,45h6a1,1,0,0,0,1-1V38a1,1,0,0,0-1-1H29a1,1,0,0,0-1,1v6A1,1,0,0,0,29,45Zm1-6h4v4H30Z"/><path class="cls-7" d="M25,45a1,1,0,0,0,1-1V38a1,1,0,0,0-1-1H19a1,1,0,0,0-1,1v6a1,1,0,0,0,1,1Zm-5-6h4v4H20Z"/><path class="cls-7" d="M45,37H39a1,1,0,0,0-1,1v6a1,1,0,0,0,1,1h6a1,1,0,0,0,1-1V38A1,1,0,0,0,45,37Zm-1,6H40V39h4Z"/><path class="cls-7" d="M64,27a3,3,0,0,0-3-3H50V21.82A3,3,0,0,0,52,19a3,3,0,0,0-3-3H41V5a3,3,0,0,0-3-3H26a3,3,0,0,0-3,3V16H15a3,3,0,0,0-3,3,3,3,0,0,0,2,2.82V24H3a3,3,0,0,0-2,5.22V61a1,1,0,0,0,1,1H15l.1,0h6.8l.1,0H42l.1,0h6.8l.1,0H62a1,1,0,0,0,1-1V29.22A3,3,0,0,0,64,27Zm-3-1a1,1,0,0,1,0,2H50V26ZM25,5a1,1,0,0,1,1-1H38a1,1,0,0,1,1,1V16H25ZM3,26H14v2H3a1,1,0,0,1,0-2Zm0,4H14V60H3Zm13-1V22H34a1,1,0,0,0,1-1h0a1,1,0,0,0-1-1H15a1,1,0,0,1-.71-.31A.93.93,0,0,1,14,19a1,1,0,0,1,1-1H49a1,1,0,0,1,.71.31A.93.93,0,0,1,50,19a1,1,0,0,1-1,1H43a1,1,0,0,0-1,1v0a1,1,0,0,0,1,1h5V60H43V51a3,3,0,0,0-3-3H24a3,3,0,0,0-3,3v9H16Zm7,31V51a1,1,0,0,1,1-1h7V60Zm10,0V50h7a1,1,0,0,1,1,1v9Zm28,0H50V30H61Z"/><path class="cls-2" d="M35,9H33V7a1,1,0,0,0-2,0V9H29a1,1,0,0,0,0,2h2v2a1,1,0,0,0,2,0V11h2a1,1,0,0,0,0-2Z"/></g></svg>