<svg xmlns="http://www.w3.org/2000/svg" viewBox="0 0 64 64"><defs><style>.cls-1{fill:#9db8d3;}.cls-2{fill:#b4cde1;}.cls-3{fill:#96a1c3;}.cls-4{fill:#ccd3eb;}.cls-5{fill:#d7e9f7;}.cls-6{fill:#0074ff;}.cls-7{fill:#647499;}.cls-8{fill:#f5f7ff;}.cls-9{fill:#033c59;}</style></defs><title>Infirmary</title><g id="Infirmary"><path class="cls-1" d="M17,55a1,1,0,0,1-1-1V50a1,1,0,0,1,2,0v4A1,1,0,0,1,17,55Z"/><path class="cls-1" d="M47,55a1,1,0,0,1-1-1V50a1,1,0,0,1,2,0v4A1,1,0,0,1,47,55Z"/><path class="cls-2" d="M18,38a1,1,0,0,1-1-1V4a1,1,0,0,1,2,0V37A1,1,0,0,1,18,38Z"/><path class="cls-2" d="M26,9a1,1,0,0,1-1-1V5H11V8A1,1,0,0,1,9,8V4a1,1,0,0,1,1-1H26a1,1,0,0,1,1,1V8A1,1,0,0,1,26,9Z"/><path class="cls-2" d="M10,19a1,1,0,0,1-1-1V17a1,1,0,0,1,2,0v1A1,1,0,0,1,10,19Z"/><path class="cls-2" d="M26,19a1,1,0,0,1-1-1V16a1,1,0,0,1,2,0v2A1,1,0,0,1,26,19Z"/><path class="cls-3" d="M51,32v6H27V32a2,2,0,0,1,2-2H49A2,2,0,0,1,51,32Z"/><path class="cls-4" d="M49,30v.67A5.33,5.33,0,0,1,43.67,36H27V32a2,2,0,0,1,2-2Z"/><path class="cls-5" d="M46,30v8a1,1,0,0,1-2,0V30Z"/><path class="cls-5" d="M40,30v8a1,1,0,0,1-2,0V30Z"/><path class="cls-5" d="M34,30v8a1,1,0,0,1-2,0V30Z"/><path class="cls-6" d="M53,44v4a2,2,0,0,1-2,2H13a2,2,0,0,1-2-2V44Z"/><path class="cls-7" d="M20,57a3,3,0,0,1-3,3,2.93,2.93,0,0,1-2.24-1A3,3,0,0,1,17,54a1,1,0,0,1,.24,0A3,3,0,0,1,20,57Z"/><path class="cls-7" d="M50,57a3,3,0,0,1-3,3,2.93,2.93,0,0,1-2.24-1A3,3,0,0,1,47,54a1,1,0,0,1,.24,0A3,3,0,0,1,50,57Z"/><path class="cls-3" d="M18,56a3,3,0,0,1-3,3,1,1,0,0,1-.24,0A3,3,0,0,1,17,54a1,1,0,0,1,.24,0A3,3,0,0,1,18,56Z"/><path class="cls-3" d="M48,56a3,3,0,0,1-3,3,1,1,0,0,1-.24,0A3,3,0,0,1,47,54a1,1,0,0,1,.24,0A3,3,0,0,1,48,56Z"/><path class="cls-4" d="M60,41a3,3,0,0,1-3,3H23a3,3,0,0,1-2.83-2,3.12,3.12,0,0,1-.16-.87v0a.86.86,0,0,0,0-.16A3,3,0,0,1,23,38H57A3,3,0,0,1,60,41Z"/><path class="cls-8" d="M57,39a3,3,0,0,1-3,3H20.16a3.12,3.12,0,0,1-.16-.87v0a.86.86,0,0,0,0-.16A3,3,0,0,1,23,38H56.82A3,3,0,0,1,57,39Z"/><path class="cls-5" d="M60,43a1,1,0,0,1-1-1V31a1,1,0,0,1,2,0V42A1,1,0,0,1,60,43Z"/><path class="cls-4" d="M20,41.09v0A3,3,0,0,1,17.69,44H16.34a2.89,2.89,0,0,1-1.49-.83L5.09,33.08a3,3,0,0,1-.44-3.58,2.66,2.66,0,0,1,.51-.66,3,3,0,0,1,4.24.07L19.16,39a2.75,2.75,0,0,1,.44.59A2.89,2.89,0,0,1,20,40.93.86.86,0,0,1,20,41.09Z"/><path class="cls-8" d="M19.6,39.59a3.47,3.47,0,0,1-.51.65,3,3,0,0,1-1.4.76H16.34a2.89,2.89,0,0,1-1.49-.83L5.09,30.08a2.69,2.69,0,0,1-.44-.58,2.66,2.66,0,0,1,.51-.66,3,3,0,0,1,4.24.07L19.16,39A2.75,2.75,0,0,1,19.6,39.59Z"/><path class="cls-3" d="M29,8v5a3,3,0,0,1-5.87.87A3.1,3.1,0,0,1,23,13V8Z"/><path class="cls-3" d="M13,8v5a3,3,0,0,1-5.87.87A3.1,3.1,0,0,1,7,13V8Z"/><path class="cls-4" d="M27,8v3a3,3,0,0,1-3,3,3.1,3.1,0,0,1-.87-.13A3.1,3.1,0,0,1,23,13V8Z"/><path class="cls-4" d="M11,8v3a3,3,0,0,1-3,3,3.1,3.1,0,0,1-.87-.13A3.1,3.1,0,0,1,7,13V8Z"/><path class="cls-9" d="M37,49H36a1,1,0,0,0,0,2h1a1,1,0,0,0,0-2Z"/><path class="cls-9" d="M60,29a1,1,0,0,0-1,1v7.56A3.91,3.91,0,0,0,57,37H52V32a3,3,0,0,0-3-3H29a3,3,0,0,0-3,3v5H23a4,4,0,0,0-3,1.41.48.48,0,0,1-.09-.11l-.95-1A1.13,1.13,0,0,0,19,37V5h6V7H23a1,1,0,0,0-1,1v5a4,4,0,0,0,3,3.86V18a1,1,0,0,0,2,0V16.86A4,4,0,0,0,30,13V8a1,1,0,0,0-1-1H27V4a1,1,0,0,0-1-1H10A1,1,0,0,0,9,4V7H7A1,1,0,0,0,6,8v5a4,4,0,0,0,3,3.87A.5.5,0,0,0,9,17v1a1,1,0,0,0,2,0V17a.5.5,0,0,0,0-.13A4,4,0,0,0,14,13V8a1,1,0,0,0-1-1H11V5h6V35.32l-6.87-7.11A4,4,0,0,0,7.31,27a4.13,4.13,0,0,0-2.84,1.13A4,4,0,0,0,3.25,31a3.93,3.93,0,0,0,1.13,2.78L13.3,43H11a1,1,0,0,0-1,1v4a3,3,0,0,0,3,3h3v2.14a4,4,0,1,0,2,0V51H32a1,1,0,0,0,0-2H13a1,1,0,0,1-1-1V45H52v3a1,1,0,0,1-1,1H41a1,1,0,0,0,0,2h5v2.14a4,4,0,1,0,2,0V51h3a3,3,0,0,0,3-3V45h3a4,4,0,0,0,4-4V30A1,1,0,0,0,60,29ZM28,13a2,2,0,0,1-4,0V9h4ZM12,13a2,2,0,0,1-4,0V9h4Zm7,44a2,2,0,1,1-2-2A2,2,0,0,1,19,57Zm30,0a2,2,0,1,1-2-2A2,2,0,0,1,49,57Zm1-25v5H46V31h3A1,1,0,0,1,50,32ZM40,37V31h4v6Zm-6,0V31h4v6Zm-6-5a1,1,0,0,1,1-1h3v6H28ZM15.58,42.47,5.81,32.38a2,2,0,0,1,.06-2.82A1.94,1.94,0,0,1,7.25,29h0a2,2,0,0,1,1.41.62l9.76,10.08A2,2,0,0,1,19,41h0v0s0,0,0,.07v0a2,2,0,0,1-.61,1.4,1.92,1.92,0,0,1-.86.48h-1A1.82,1.82,0,0,1,15.58,42.47ZM57,43H23a2,2,0,0,1-2-1.91h0A.49.49,0,0,0,21,41a2,2,0,0,1,2-2H57a2,2,0,0,1,0,4Z"/></g></svg>