<svg xmlns="http://www.w3.org/2000/svg" xmlns:xlink="http://www.w3.org/1999/xlink" viewBox="0 0 64 64"><defs><style>.cls-1{fill:url(#linear-gradient);}.cls-2{fill:url(#linear-gradient-2);}.cls-3{fill:#fe9661;}.cls-4{fill:#96a1c3;}.cls-5{fill:#ccd3eb;}.cls-6{fill:#0074ff;}.cls-7{fill:#f5f7ff;}.cls-8{fill:url(#linear-gradient-3);}.cls-9{fill:url(#linear-gradient-4);}.cls-10{fill:url(#linear-gradient-5);}.cls-11{fill:#647499;}.cls-12{fill:#033c59;}</style><linearGradient id="linear-gradient" x1="29" y1="35.5" x2="52" y2="35.5" gradientUnits="userSpaceOnUse"><stop offset="0" stop-color="#54a5ff"/><stop offset="1" stop-color="#8ad3fe"/></linearGradient><linearGradient id="linear-gradient-2" x1="50" y1="48" y2="48" xlink:href="#linear-gradient"/><linearGradient id="linear-gradient-3" x1="22" y1="29" x2="27" y2="29" gradientUnits="userSpaceOnUse"><stop offset="0" stop-color="#d3e6f5"/><stop offset="1" stop-color="#f0f7fc"/></linearGradient><linearGradient id="linear-gradient-4" y1="25" y2="25" xlink:href="#linear-gradient-3"/><linearGradient id="linear-gradient-5" y1="17" y2="17" xlink:href="#linear-gradient-3"/></defs><title>Infusion</title><g id="Infusion"><path class="cls-1" d="M36,49a7,7,0,0,1-7-7V37a1,1,0,0,1,2,0v5a5,5,0,0,0,10,0V27.5a5.5,5.5,0,0,1,11,0V42a1,1,0,0,1-2,0V27.5a3.5,3.5,0,0,0-7,0V42A7,7,0,0,1,36,49Z"/><path class="cls-2" d="M51,51c-.55,0-1-.67-1-1.5v-3c0-.83.45-1.5,1-1.5s1,.67,1,1.5v3C52,50.33,51.55,51,51,51Z"/><path class="cls-3" d="M17,54a1,1,0,0,1-1-1V6a5,5,0,0,1,5-5h6a1,1,0,0,1,1,1,2,2,0,0,0,4,0,1,1,0,0,1,2,0,4,4,0,0,1-7.87,1H21a3,3,0,0,0-3,3V53A1,1,0,0,1,17,54Z"/><path class="cls-3" d="M30,10a1,1,0,0,1-1-1V5a1,1,0,0,1,2,0V9A1,1,0,0,1,30,10Z"/><rect class="cls-4" x="26" y="9" width="8" height="4" rx="1" ry="1"/><path class="cls-5" d="M32,9v1a1,1,0,0,1-1,1H26V10a1,1,0,0,1,1-1Z"/><path class="cls-6" d="M38,20.85V31a3,3,0,0,1-3,3H25a3,3,0,0,1-3-3V21.24C29.77,23.65,30.23,19.33,38,20.85Z"/><path class="cls-5" d="M38,17v3.85a16.32,16.32,0,0,0-2-.27c-5.92-.5-7,2.84-14,.66V17a3,3,0,0,1,3-3H35a2.77,2.77,0,0,1,1,.18A3,3,0,0,1,38,17Z"/><path class="cls-7" d="M36,14.18v6.67c-7-1.38-8.08,1.29-14,.15V16a2,2,0,0,1,2-2H35A2.77,2.77,0,0,1,36,14.18Z"/><path class="cls-4" d="M33,33v2a2,2,0,0,1-2,2H29a2,2,0,0,1-2-2V33Z"/><path class="cls-5" d="M32,33a2,2,0,0,1-2,2H28a2,2,0,0,1-1-.27V33Z"/><path class="cls-6" d="M53.93,42.78,51,48l-2.93-5.22c-.18-.33,0-.78.35-.78h5.16C53.91,42,54.11,42.45,53.93,42.78Z"/><path class="cls-8" d="M27,29a1,1,0,0,1-1,1H22V28h4A1,1,0,0,1,27,29Z"/><path class="cls-9" d="M27,25a1,1,0,0,1-1,1H22V24h4A1,1,0,0,1,27,25Z"/><path class="cls-10" d="M27,17a1,1,0,0,1-1,1H22V16h4A1,1,0,0,1,27,17Z"/><path class="cls-3" d="M22,59a1,1,0,0,1-1-1V54.56a.62.62,0,0,0-.67-.56H13.67a.62.62,0,0,0-.67.56V58a1,1,0,0,1-2,0V54.56A2.62,2.62,0,0,1,13.67,52h6.66A2.62,2.62,0,0,1,23,54.56V58A1,1,0,0,1,22,59Z"/><circle class="cls-11" cx="12" cy="60" r="2"/><circle class="cls-11" cx="22" cy="60" r="2"/><path class="cls-12" d="M38,26a1,1,0,0,0-1,1v1a1,1,0,0,0,2,0V27A1,1,0,0,0,38,26Z"/><path class="cls-12" d="M54.79,41.71A1.38,1.38,0,0,0,53.58,41H52V27.5a5.5,5.5,0,0,0-11,0V42a5,5,0,0,1-10,0V38a3,3,0,0,0,3-3V34h1a4,4,0,0,0,3.11-1.5,1,1,0,1,0-1.56-1.24A2,2,0,0,1,35,32H25a2,2,0,0,1-2-2h3a1,1,0,0,0,0-2H23V26h3a1,1,0,0,0,0-2H23V21.58a6.4,6.4,0,0,1,1.33.36,7.76,7.76,0,0,0,3,.54,7.86,7.86,0,0,0,3-.54,5.72,5.72,0,0,1,2.33-.42,5.71,5.71,0,0,1,2.32.42,7.64,7.64,0,0,0,2,.49V23a1,1,0,0,0,2,0V16a4,4,0,0,0-4-4V10a2,2,0,0,0-2-2H31V5.86A4,4,0,0,0,34,2a1,1,0,0,0-2,0,2,2,0,0,1-4,0,1,1,0,0,0-1-1H21a5,5,0,0,0-5,5V52H13.67A2.62,2.62,0,0,0,11,54.56v2.62a3,3,0,1,0,2,0V54.56a.62.62,0,0,1,.67-.56h6.66a.62.62,0,0,1,.67.56v2.62a3,3,0,1,0,2,0V54.56A2.62,2.62,0,0,0,20.33,52H18V6a3,3,0,0,1,3-3h5.13A4,4,0,0,0,29,5.86V8H27a2,2,0,0,0-2,2v2a4,4,0,0,0-4,4V30a4,4,0,0,0,4,4h1v1a3,3,0,0,0,3,3v4a7,7,0,0,0,14,0V27.5a3.5,3.5,0,0,1,7,0V41H48.42a1.38,1.38,0,0,0-1.21.71,1.58,1.58,0,0,0,0,1.56l2.8,5V50a1,1,0,0,0,2,0V48.26l2.8-5A1.58,1.58,0,0,0,54.79,41.71ZM12,61a1,1,0,1,1,1-1A1,1,0,0,1,12,61Zm10,0a1,1,0,1,1,1-1A1,1,0,0,1,22,61Zm5-51h6v2H27Zm-2,4H35a2,2,0,0,1,2,2v4.42a6.23,6.23,0,0,1-1.33-.36,8.63,8.63,0,0,0-6,0,5.76,5.76,0,0,1-2.33.42A5.76,5.76,0,0,1,25,20.06a7.45,7.45,0,0,0-2-.49V18h3a1,1,0,0,0,0-2H23A2,2,0,0,1,25,14Zm3,21V34h4v1a1,1,0,0,1-1,1H29A1,1,0,0,1,28,35ZM51,46l-1.66-3h3.32Z"/></g></svg>