<svg xmlns="http://www.w3.org/2000/svg" viewBox="0 0 64 64"><defs><style>.cls-1{fill:#ccd3eb;}.cls-2{fill:#f5f7ff;}.cls-3{fill:#96a1c3;}.cls-4{fill:#0074ff;}.cls-5{fill:#d7e9f7;}.cls-6{fill:#b4cde1;}.cls-7{fill:#9db8d3;}.cls-8{fill:#033c59;}.cls-9{fill:#647499;}</style></defs><title>Medical document</title><g id="Medical_document" data-name="Medical document"><path class="cls-1" d="M47,13a1.94,1.94,0,0,1-2-1.87V3H16.9A1.8,1.8,0,0,0,15,4.67V51.33A1.8,1.8,0,0,0,16.9,53H53.1A1.8,1.8,0,0,0,55,51.33V13ZM35,11A10,10,0,1,1,25,21,10,10,0,0,1,35,11Z"/><path class="cls-2" d="M51,13V36.19A13.81,13.81,0,0,1,37.19,50H15V4.67A1.8,1.8,0,0,1,16.9,3H45v8.13A1.94,1.94,0,0,0,47,13Z"/><path class="cls-3" d="M55,13H47a1.94,1.94,0,0,1-2-1.87V3Z"/><path class="cls-1" d="M47,53v5a2,2,0,0,1-2,2H11a2,2,0,0,1-2-2V12a2,2,0,0,1,2-2h4V51.33A1.8,1.8,0,0,0,16.9,53Z"/><path class="cls-2" d="M41,20v2a1,1,0,0,1-1,1H37v3a1,1,0,0,1-1,1H34a1,1,0,0,1-1-1V23H30a1,1,0,0,1-1-1V20a1,1,0,0,1,1-1h3V16a1,1,0,0,1,1-1h2a1,1,0,0,1,1,1v3h3A1,1,0,0,1,41,20Z"/><path class="cls-4" d="M35,11A10,10,0,1,0,45,21,10,10,0,0,0,35,11Zm6,11a1,1,0,0,1-1,1H37v3a1,1,0,0,1-1,1H34a1,1,0,0,1-1-1V23H30a1,1,0,0,1-1-1V20a1,1,0,0,1,1-1h3V16a1,1,0,0,1,1-1h2a1,1,0,0,1,1,1v3h3a1,1,0,0,1,1,1Z"/><path class="cls-5" d="M44.9,38H25.1a1,1,0,0,1,0-2H44.9a1,1,0,1,1,0,2Z"/><path class="cls-6" d="M44.9,43H25.1a1,1,0,1,1,0-2H44.9a1,1,0,1,1,0,2Z"/><path class="cls-7" d="M44.9,48H25.1a1,1,0,1,1,0-2H44.9a1,1,0,1,1,0,2Z"/><path class="cls-8" d="M55.74,12.33h0l0,0-10-10,0,0h0A1,1,0,0,0,45,2H16.9A2.8,2.8,0,0,0,14,4.67V9H11a3,3,0,0,0-3,3V58a3,3,0,0,0,3,3H45a3,3,0,0,0,3-3V54h5.1a2.88,2.88,0,0,0,2.79-2A1,1,0,0,0,56,51.6V13A1,1,0,0,0,55.74,12.33ZM46,5.41,52.59,12H47a1,1,0,0,1-1-.87ZM46,58a1,1,0,0,1-1,1H11a1,1,0,0,1-1-1V12a1,1,0,0,1,1-1h3V51.33A2.8,2.8,0,0,0,16.9,54H46Zm8-6.67c0,.36-.42.67-.9.67H16.9c-.48,0-.9-.31-.9-.67V4.67c0-.36.42-.67.9-.67H44v7.13A2.94,2.94,0,0,0,47,14h7Z"/><path class="cls-8" d="M30,24h2v2a2,2,0,0,0,2,2h2a2,2,0,0,0,2-2V24h2a2,2,0,0,0,2-2V20a2,2,0,0,0-2-2H38V16a2,2,0,0,0-2-2H34a2,2,0,0,0-2,2v2H30a2,2,0,0,0-2,2v2A2,2,0,0,0,30,24Zm0-4h3a1,1,0,0,0,1-1V16h2v3a1,1,0,0,0,1,1h3v2H37a1,1,0,0,0-1,1v3H34V23a1,1,0,0,0-1-1H30Z"/><path class="cls-8" d="M25.87,16.92a1,1,0,0,0,.46.11,1,1,0,0,0,.89-.54,3.19,3.19,0,0,1,.26-.42,1,1,0,0,0-1.62-1.18,5.92,5.92,0,0,0-.42.68A1,1,0,0,0,25.87,16.92Z"/><path class="cls-8" d="M35,10a10.92,10.92,0,0,0-6.08,1.84A1,1,0,0,0,30,13.5,8.88,8.88,0,0,1,35,12a9,9,0,1,1-9,9,8.82,8.82,0,0,1,.07-1.11,1,1,0,0,0-2-.24A10.55,10.55,0,0,0,24,21,11,11,0,1,0,35,10Z"/><path class="cls-9" d="M44.9,36H25.1a1,1,0,0,0,0,2H44.9a1,1,0,1,0,0-2Z"/><path class="cls-9" d="M44.9,41H25.1a1,1,0,1,0,0,2H44.9a1,1,0,1,0,0-2Z"/><path class="cls-9" d="M44.9,46H25.1a1,1,0,1,0,0,2H44.9a1,1,0,1,0,0-2Z"/></g></svg>