<svg xmlns="http://www.w3.org/2000/svg" viewBox="0 0 64 64"><defs><style>.cls-1{fill:#ccd3eb;}.cls-2{fill:none;stroke:#000;stroke-linecap:round;stroke-linejoin:round;stroke-width:2px;}.cls-3{fill:#0074ff;}.cls-4{fill:#f5f7ff;}.cls-5{fill:#f0f7fc;}.cls-6{fill:#b4cde1;}.cls-7{fill:#033c59;}.cls-8{fill:#647499;}</style></defs><title>Medical result</title><g id="Medical_result" data-name="Medical result"><path class="cls-1" d="M47,12H46L17,12a2,2,0,0,0-2,2V55.64A1.5,1.5,0,0,0,16.64,57H47.36A1.5,1.5,0,0,0,49,55.64V24.2L49,14A2,2,0,0,0,47,12ZM32,18.31c5.62-5.62,14.22,3,8.6,8.6L32,35.52l-8.6-8.61C17.78,21.3,26.38,12.69,32,18.31ZM20,40a1,1,0,1,1-1,1A1,1,0,0,1,20,40Zm0,5a1,1,0,1,1-1,1A1,1,0,0,1,20,45Zm0,5a1,1,0,1,1-1,1A1,1,0,0,1,20,50Z"/><line class="cls-2" x1="48.97" y1="55.75" x2="48.97" y2="55.64"/><path class="cls-3" d="M48,8H40.82A2.77,2.77,0,0,1,41,9a3,3,0,0,1-3,3H26a3,3,0,0,1-3-3,2.77,2.77,0,0,1,.18-1H16a5,5,0,0,0-5,5V59a3,3,0,0,0,3,3H50a3,3,0,0,0,3-3V13A5,5,0,0,0,48,8Zm1,16.2V55.64A1.5,1.5,0,0,1,47.36,57H16.64A1.5,1.5,0,0,1,15,55.64V14a2,2,0,0,1,2-2l30,0a2,2,0,0,1,2,2Z"/><path class="cls-4" d="M46,12V43.71A10.29,10.29,0,0,1,35.71,54H15V14a2,2,0,0,1,2-2Z"/><path class="cls-1" d="M42.41,23.09A5.34,5.34,0,0,1,42,25a6.64,6.64,0,0,1-1.35,1.91L32,35.52l-8-8-.59-.59c-.14-.14-.27-.28-.4-.43-4.79-5.6,3.52-13.65,9-8.17C36.42,13.89,42.7,18.28,42.41,23.09Z"/><path class="cls-5" d="M42.41,23.09A5.34,5.34,0,0,1,42,25H35l-2.16,4a1,1,0,0,1-.82.52H32a1,1,0,0,1-.81-.42l-4.12-5.76L24.86,27a1,1,0,0,1-.87.49l-.59-.59c-.14-.14-.27-.28-.4-.43a1,1,0,0,1,.14-.49l3-5A1,1,0,0,1,27,20.5a1,1,0,0,1,.85.42l4.08,5.7,1.68-3.1a.43.43,0,0,1,.09-.1,1,1,0,0,1,.13-.16l.16-.11a1.19,1.19,0,0,1,.16-.08.54.54,0,0,1,.22,0,.53.53,0,0,1,.12,0H42A1,1,0,0,1,42.41,23.09Z"/><path class="cls-1" d="M41,9a3,3,0,0,1-3,3H26a3,3,0,0,1-3-2.76A1,1,0,0,1,23,9a2.77,2.77,0,0,1,.18-1A3,3,0,0,1,26,6h3V5a3,3,0,0,1,5-2.24A2.75,2.75,0,0,1,34.82,4,2.77,2.77,0,0,1,35,5V6h3a3,3,0,0,1,2.82,2A2.77,2.77,0,0,1,41,9Z"/><path class="cls-4" d="M40,7a3,3,0,0,1-3,3H25a3,3,0,0,1-2-.76A1,1,0,0,1,23,9a2.77,2.77,0,0,1,.18-1A3,3,0,0,1,26,6h3V5a3,3,0,0,1,5-2.24A1,1,0,0,1,34,3V4h.82A2.77,2.77,0,0,1,35,5V6h3a2.91,2.91,0,0,1,2,.76A1.93,1.93,0,0,1,40,7Z"/><path class="cls-6" d="M44,42H24a1,1,0,0,1,0-2H44a1,1,0,0,1,0,2Z"/><circle class="cls-6" cx="20" cy="41" r="1"/><path class="cls-6" d="M44,47H24a1,1,0,0,1,0-2H44a1,1,0,0,1,0,2Z"/><circle class="cls-6" cx="20" cy="46" r="1"/><path class="cls-6" d="M44,52H24a1,1,0,0,1,0-2H44a1,1,0,0,1,0,2Z"/><circle class="cls-6" cx="20" cy="51" r="1"/><path class="cls-7" d="M48,7H41.44A4,4,0,0,0,38,5H36a4,4,0,0,0-8,0H26a4,4,0,0,0-3.44,2H16a6,6,0,0,0-6,6V59a4,4,0,0,0,4,4H50a4,4,0,0,0,4-4V13A6,6,0,0,0,48,7Zm-1,6a1,1,0,0,1,1,1l0,10.16h0V55.64c0,.12-.23.34-.62.34H16.65c-.39,0-.62-.22-.62-.34V14a1,1,0,0,1,1-1ZM26,7h3a1,1,0,0,0,1-1V5a2,2,0,0,1,4,0V6a1,1,0,0,0,1,1h3a2,2,0,0,1,0,4H26a2,2,0,0,1,0-4ZM52,59a2,2,0,0,1-2,2H14a2,2,0,0,1-2-2V13a4,4,0,0,1,4-4h6a4,4,0,0,0,.56,2H17a3,3,0,0,0-3,3V55.64A2.49,2.49,0,0,0,16.65,58h30.7a2.54,2.54,0,0,0,2.59-2,.91.91,0,0,0,0-.23V24.2L50,14a3,3,0,0,0-3-3H41.43A4,4,0,0,0,42,9h6a4,4,0,0,1,4,4Z"/><path class="cls-7" d="M38.53,18.15a2.82,2.82,0,0,1,.44.26,1,1,0,0,0,.6.2,1,1,0,0,0,.8-.4,1,1,0,0,0-.2-1.4,5.09,5.09,0,0,0-.74-.46,1,1,0,1,0-.9,1.8Z"/><path class="cls-7" d="M31.29,36.23a1,1,0,0,0,1.42,0l8.6-8.61A6.56,6.56,0,0,0,43,20.35a1,1,0,0,0-1.86.72A4.78,4.78,0,0,1,41.41,23h-7a.53.53,0,0,0-.12,0,.54.54,0,0,0-.22,0,1.19,1.19,0,0,0-.16.08l-.16.11a1,1,0,0,0-.13.16.43.43,0,0,0-.09.1l-1.68,3.1-4.08-5.7A1,1,0,0,0,27,20.5a1,1,0,0,0-.82.49l-2.67,4.45a4.39,4.39,0,0,1-.74-3.85,5.76,5.76,0,0,1,3.94-3.95A4.57,4.57,0,0,1,31.29,19a1,1,0,0,0,1.42,0,5,5,0,0,1,2.54-1.45,1,1,0,1,0-.42-2A6.75,6.75,0,0,0,32,17a6.44,6.44,0,0,0-5.84-1.26,7.79,7.79,0,0,0-5.36,5.36,6.58,6.58,0,0,0,1.89,6.55ZM27.07,23.32l4.12,5.76a1,1,0,0,0,.81.42h.06a1,1,0,0,0,.82-.52L35,25h5.77a5.35,5.35,0,0,1-.92,1.2L32,34.1,24.88,27Z"/><path class="cls-8" d="M23,41a1,1,0,0,0,1,1H44a1,1,0,0,0,0-2H24A1,1,0,0,0,23,41Z"/><circle class="cls-8" cx="20" cy="41" r="1"/><path class="cls-8" d="M44,45H24a1,1,0,0,0,0,2H44a1,1,0,0,0,0-2Z"/><circle class="cls-8" cx="20" cy="46" r="1"/><path class="cls-8" d="M44,50H24a1,1,0,0,0,0,2H44a1,1,0,0,0,0-2Z"/><circle class="cls-8" cx="20" cy="51" r="1"/></g></svg>