<svg xmlns="http://www.w3.org/2000/svg" viewBox="0 0 64 64"><defs><style>.cls-1{fill:#ccd3eb;}.cls-2{fill:#f5f7ff;}.cls-3{fill:#96a1c3;}.cls-4{fill:#b4cde1;}.cls-5{fill:#0074ff;}.cls-6{fill:#033c59;}</style></defs><title>Medical drop</title><g id="Medical_drop" data-name="Medical drop"><path class="cls-1" d="M19,27V47.5A5,5,0,0,1,17.54,51a4.69,4.69,0,0,1-.54.46V55a3,3,0,0,1-3.61,2.94,2.84,2.84,0,0,1-1.6-.95A3.26,3.26,0,0,1,11,54.85V51.5A5,5,0,0,1,9,48a4.07,4.07,0,0,1,0-.5V27Z"/><path class="cls-2" d="M17,27V46.5A5,5,0,0,1,15.54,50a4.69,4.69,0,0,1-.54.46V54a3,3,0,0,1-3.21,3A3.26,3.26,0,0,1,11,54.85V51.5A5,5,0,0,1,9,48a4.07,4.07,0,0,1,0-.5V27Z"/><path class="cls-3" d="M24,24.17v.66A2.17,2.17,0,0,1,21.83,27H6.17A2.16,2.16,0,0,1,4,25a.86.86,0,0,1,0-.16v-.66A2.17,2.17,0,0,1,6.17,22H22A2.16,2.16,0,0,1,24,24.17Z"/><path class="cls-1" d="M22,22.17v.66A2.17,2.17,0,0,1,19.83,25H4a.86.86,0,0,1,0-.16v-.66A2.17,2.17,0,0,1,6.17,22H22A.86.86,0,0,1,22,22.17Z"/><path class="cls-4" d="M13,47a1,1,0,0,1-1,1H9a4.07,4.07,0,0,1,0-.5V46h3A1,1,0,0,1,13,47Z"/><path class="cls-4" d="M13,43a1,1,0,0,1-1,1H9V42h3A1,1,0,0,1,13,43Z"/><path class="cls-4" d="M13,39a1,1,0,0,1-1,1H9V38h3A1,1,0,0,1,13,39Z"/><path class="cls-4" d="M13,35a1,1,0,0,1-1,1H9V34h3A1,1,0,0,1,13,35Z"/><path class="cls-5" d="M58,31v3H32V31a4,4,0,0,1,4-4H54A4,4,0,0,1,58,31Z"/><path class="cls-5" d="M58,54v2a4,4,0,0,1-4,4H36a4,4,0,0,1-4-4V54Z"/><path class="cls-1" d="M32,34V54H58V34Zm13,3.68s5.17,4.62,5.17,7.47a5.17,5.17,0,1,1-10.34,0C39.83,42.3,45,37.68,45,37.68Z"/><path class="cls-2" d="M56,34V44.17A7.84,7.84,0,0,1,48.17,52H32V34Z"/><path class="cls-5" d="M50.17,45.15a5.17,5.17,0,1,1-10.34,0c0-2.85,5.17-7.47,5.17-7.47S50.17,42.3,50.17,45.15Z"/><path class="cls-5" d="M20,10V22H8V10a6,6,0,0,1,6-6,6,6,0,0,1,6,6Z"/><path class="cls-3" d="M55,24.5A2.5,2.5,0,0,1,52.5,27h-15A2.5,2.5,0,0,1,35,25a2.32,2.32,0,0,1,0-.46A2.5,2.5,0,0,1,37.5,22h15A2.32,2.32,0,0,1,53,22a2.5,2.5,0,0,1,2,2.46Z"/><path class="cls-1" d="M53,22.5A2.5,2.5,0,0,1,50.5,25h-15A2.32,2.32,0,0,1,35,25a2.32,2.32,0,0,1,0-.46A2.5,2.5,0,0,1,37.5,22h15A2.32,2.32,0,0,1,53,22,2.32,2.32,0,0,1,53,22.5Z"/><path class="cls-3" d="M51,10V22H39V10a6,6,0,0,1,2.37-4.77A5.87,5.87,0,0,1,45,4a6,6,0,0,1,6,6Z"/><path class="cls-1" d="M49,11V22H39V10a6,6,0,0,1,2.37-4.77A5.84,5.84,0,0,1,43,5a6,6,0,0,1,6,6Z"/><path class="cls-6" d="M21.83,21H21V19a1,1,0,0,0-2,0v2H9V10a5,5,0,0,1,10,0,1,1,0,0,0,2,0,7,7,0,0,0-7-7,7,7,0,0,0-7,7V21H6.17A3.17,3.17,0,0,0,3,24.17v.66A3.17,3.17,0,0,0,6.17,28H8V47.5A6.07,6.07,0,0,0,10,52v2.88a4.09,4.09,0,0,0,3.19,4.07A4.43,4.43,0,0,0,14,59a4,4,0,0,0,4-4V52s0,0,0,0a1.78,1.78,0,0,0,.26-.22A6,6,0,0,0,20,47.5V28h1.83A3.17,3.17,0,0,0,25,24.83v-.66A3.17,3.17,0,0,0,21.83,21ZM18,47.5a4,4,0,0,1-1.17,2.83,2.86,2.86,0,0,1-.42.36,1,1,0,0,0-.36,1.08A1,1,0,0,0,16,52v3a2,2,0,0,1-2.42,2A2.12,2.12,0,0,1,12,54.85V52a.79.79,0,0,0-.05-.22,1,1,0,0,0-.35-1.08A4,4,0,0,1,10.06,48H12a1,1,0,0,0,0-2H10V44h2a1,1,0,0,0,0-2H10V40h2a1,1,0,0,0,0-2H10V36h2a1,1,0,0,0,0-2H10V28h8Zm5-22.67A1.17,1.17,0,0,1,21.83,26H6.17A1.17,1.17,0,0,1,5,24.83v-.66A1.17,1.17,0,0,1,6.17,23H21.83A1.17,1.17,0,0,1,23,24.17Z"/><path class="cls-6" d="M55.51,26.26a3.48,3.48,0,0,0-3-5.26H52V10a7,7,0,0,0-14,0V21h-.5a3.48,3.48,0,0,0-3,5.26A5,5,0,0,0,31,31V56a5,5,0,0,0,5,5H54a5,5,0,0,0,5-5V31A5,5,0,0,0,55.51,26.26ZM33,35H57V53H33Zm7-25a5,5,0,0,1,10,0V21H40ZM37.5,23h15a1.5,1.5,0,0,1,0,3h-15a1.5,1.5,0,0,1,0-3ZM36,28H54a3,3,0,0,1,3,3v2H33V31A3,3,0,0,1,36,28ZM54,59H36a3,3,0,0,1-3-3V55H57v1A3,3,0,0,1,54,59Z"/><path class="cls-6" d="M45.67,36.93a1,1,0,0,0-1.34,0c-.56.5-5.5,5-5.5,8.22a6.17,6.17,0,1,0,12.34,0C51.17,41.94,46.23,37.43,45.67,36.93ZM45,49.32a4.17,4.17,0,0,1-4.17-4.17c0-1.55,2.34-4.33,4.17-6.11,1.83,1.78,4.17,4.56,4.17,6.11A4.17,4.17,0,0,1,45,49.32Z"/><path class="cls-6" d="M20,13a1,1,0,0,0-1,1v1a1,1,0,0,0,2,0V14A1,1,0,0,0,20,13Z"/></g></svg>