<svg xmlns="http://www.w3.org/2000/svg" viewBox="0 0 64 64"><defs><style>.cls-1{fill:#647499;}.cls-2{fill:#96a1c3;}.cls-3{fill:#ccd3eb;}.cls-4{fill:#f5f7ff;}.cls-5{fill:#0074ff;}.cls-6{fill:#9db8d3;}.cls-7{fill:#b4cde1;}.cls-8{fill:#033c59;}</style></defs><title>Medicine book</title><g id="Medicine_book" data-name="Medicine book"><path class="cls-1" d="M55,50V62H15a6,6,0,0,1-5.8-4.48A5.81,5.81,0,0,1,9,56a6,6,0,0,1,6-6Z"/><path class="cls-2" d="M53,50v2.13C53,56.48,49.83,60,45.92,60H13.25A6,6,0,0,1,9.2,58.36,7.18,7.18,0,0,1,9,56.67,7,7,0,0,1,10.76,52,5.64,5.64,0,0,1,15,50Z"/><path class="cls-3" d="M15,2V50H55V2ZM35,41A14,14,0,1,1,49,27,14,14,0,0,1,35,41Z"/><path class="cls-4" d="M15,2V50H25.88A29.12,29.12,0,0,0,55,20.88V2ZM36.82,40.88A14,14,0,1,1,48.88,28.82,14,14,0,0,1,36.82,40.88Z"/><path class="cls-3" d="M15,2V50a6,6,0,0,0-6,6V8A6,6,0,0,1,15,2Z"/><path class="cls-3" d="M35,13A14,14,0,1,0,49,27,14,14,0,0,0,35,13Zm8,17H38v5a2,2,0,0,1-2,2H34a2,2,0,0,1-2-2V30H27a2,2,0,0,1-2-2V26a2,2,0,0,1,2-2h5V19a2,2,0,0,1,2-2h2a2,2,0,0,1,2,2v5h5a2,2,0,0,1,2,2v2A2,2,0,0,1,43,30Z"/><path class="cls-5" d="M45,26v2a2,2,0,0,1-2,2H38v5a2,2,0,0,1-2,2H34a2,2,0,0,1-2-2V30H27a2,2,0,0,1-2-2V26a2,2,0,0,1,2-2h5V19a2,2,0,0,1,2-2h2a2,2,0,0,1,2,2v5h5A2,2,0,0,1,45,26Z"/><path class="cls-6" d="M55,57v2H14a1,1,0,0,1,0-2Z"/><path class="cls-7" d="M55,53v2H14a1,1,0,0,1,0-2Z"/><path class="cls-8" d="M45,49H44a1,1,0,0,0,0,2h1a1,1,0,0,0,0-2Z"/><path class="cls-8" d="M55,1H15A7,7,0,0,0,8,8V56a7,7,0,0,0,7,7H55a1,1,0,0,0,1-1V2A1,1,0,0,0,55,1ZM10,8a5,5,0,0,1,4-4.9v46a6.85,6.85,0,0,0-3.94,2l-.06.06ZM54,49H49a1,1,0,0,0,0,2h5v2H14a1,1,0,0,0,0,2H54v2H14a1,1,0,0,0,0,2H54v2H15a5,5,0,0,1,0-10H40a1,1,0,0,0,0-2H16V3H54Z"/><path class="cls-8" d="M31,31v4a3,3,0,0,0,3,3h2a3,3,0,0,0,3-3V31h4a3,3,0,0,0,3-3V26a3,3,0,0,0-3-3H39V19a3,3,0,0,0-3-3H34a3,3,0,0,0-3,3v4H27a3,3,0,0,0-3,3v2a3,3,0,0,0,3,3Zm-5-3V26a1,1,0,0,1,1-1h5a1,1,0,0,0,1-1V19a1,1,0,0,1,1-1h2a1,1,0,0,1,1,1v5a1,1,0,0,0,1,1h5a1,1,0,0,1,1,1v2a1,1,0,0,1-1,1H38a1,1,0,0,0-1,1v5a1,1,0,0,1-1,1H34a1,1,0,0,1-1-1V30a1,1,0,0,0-1-1H27A1,1,0,0,1,26,28Z"/><path class="cls-8" d="M35,42A15,15,0,1,0,20,27,15,15,0,0,0,35,42Zm0-28A13,13,0,1,1,22,27,13,13,0,0,1,35,14Z"/></g></svg>