<svg xmlns="http://www.w3.org/2000/svg" viewBox="0 0 64 64"><defs><style>.cls-1{fill:#fe9661;}.cls-2{fill:#96a1c3;}.cls-3{fill:#ccd3eb;}.cls-4{fill:#f5f7ff;}.cls-5{fill:#0074ff;}.cls-6{fill:#033c59;}</style></defs><title>Microscope</title><g id="Microscope"><path class="cls-1" d="M46,41H18a1,1,0,0,1,0-2H46a1,1,0,0,1,0,2Z"/><rect class="cls-2" x="4" y="54" width="56" height="7" rx="2" ry="2"/><path class="cls-3" d="M58,54a5,5,0,0,1-5,5H4V56a2,2,0,0,1,2-2Z"/><path class="cls-3" d="M54,36a4.91,4.91,0,0,0-2.41-1,3.88,3.88,0,0,0-.76,0,4.83,4.83,0,0,0-1.87.43A12.49,12.49,0,0,0,36.5,24H30.1l1.12-4,.28-1h5A17.51,17.51,0,0,1,54,36Z"/><path class="cls-4" d="M50.82,35a4.83,4.83,0,0,0-1.87.43A12.49,12.49,0,0,0,36.5,24H30.1l1.12-4H33.5A17.52,17.52,0,0,1,50.82,35Z"/><path class="cls-3" d="M51.76,44.94A18.11,18.11,0,0,1,36.05,54H21a2,2,0,0,1-2-2V51a2,2,0,0,1,2-2H36.13a13.11,13.11,0,0,0,10.39-5.23c.18-.24.36-.49.52-.74a5.24,5.24,0,0,0,1,1c.16.12.33.23.51.34a4.91,4.91,0,0,0,1.9.63A5,5,0,0,0,51.76,44.94Z"/><path class="cls-4" d="M48.76,43.94l-.24.4A18.11,18.11,0,0,1,33.05,53H19.27A2,2,0,0,1,19,52V51a2,2,0,0,1,2-2H36.13a13.11,13.11,0,0,0,10.39-5.23,4.52,4.52,0,0,0,.9.2A5.83,5.83,0,0,0,48,44,4.74,4.74,0,0,0,48.76,43.94Z"/><path class="cls-5" d="M56,40.58A5,5,0,0,1,47,43a4.94,4.94,0,0,1-1-3,5.78,5.78,0,0,1,0-.58,5,5,0,0,1,2.92-4,5,5,0,0,1,7,5.14Z"/><path class="cls-3" d="M32.55,15.22,31.5,19l-1.4,5-1.85,6.63A2,2,0,0,1,25.79,32l-7.71-2.15a2,2,0,0,1-1.38-2.46l.09-.34L21,12a2,2,0,0,1,2.47-1.39l1.9.53,3.85,1.07,1.25.35.7.2A2,2,0,0,1,32.55,15.22Z"/><path class="cls-4" d="M30.46,12.56,29.5,16l-1.4,5-1.85,6.63A2,2,0,0,1,23.79,29l-7-1.95L21,12a2,2,0,0,1,2.47-1.39l1.9.53,3.85,1.07Z"/><path class="cls-3" d="M25.76,32l-.53,1.92A3,3,0,0,1,21.53,36l-1.92-.54A3,3,0,0,1,17.44,33a3.06,3.06,0,0,1,.08-1.2l.54-1.92h0l6.27,1.76Z"/><path class="cls-4" d="M24.35,31.63l-.12.44a3,3,0,0,1-3.7,2.09l-1.92-.54A2.89,2.89,0,0,1,17.44,33a3.06,3.06,0,0,1,.08-1.2l.54-1.92h0Z"/><polygon class="cls-3" points="30.29 8.36 29.21 12.21 25.36 11.14 26.43 7.29 30.29 8.36"/><path class="cls-2" d="M34,6.27,33.45,8.2a1,1,0,0,1-1.24.7l-1.92-.54L26.43,7.29,24.5,6.75a1,1,0,0,1-.69-1.23l.54-1.93a1,1,0,0,1,1.23-.69L33.29,5A1,1,0,0,1,34,6.27Z"/><path class="cls-6" d="M58,53H44.59a18.93,18.93,0,0,0,7.8-7.18A6,6,0,0,0,57,40.7h0a6,6,0,0,0-2-5.21,18.35,18.35,0,0,0-5.37-12.07,2,2,0,0,0-.22-.2A1,1,0,0,0,48,23.4a1,1,0,0,0,.18,1.44,16.42,16.42,0,0,1,4.69,9.45A6.19,6.19,0,0,0,51.7,34a6.07,6.07,0,0,0-1.91.09A13.48,13.48,0,0,0,36.5,23H31.42l.84-3H36.5a16.34,16.34,0,0,1,4.28.57l.26,0a1,1,0,0,0,1-.74,1,1,0,0,0-.71-1.23A18.55,18.55,0,0,0,36.5,18H32.82l.7-2.51a3,3,0,0,0-.28-2.28,3,3,0,0,0-1.81-1.41l-1-.28L31,9.59l1.93.54a.84.84,0,0,0,.27,0,1,1,0,0,0,1-.73l1.07-3.86a1,1,0,0,0-.69-1.23L24.89,1.67a1,1,0,0,0-.76.09,1,1,0,0,0-.48.6L22.58,6.21a1,1,0,0,0,.69,1.23L25.2,8l-.54,1.93-.93-.26A3,3,0,0,0,20,11.73l-4.3,15.41A3,3,0,0,0,16,29.42a3,3,0,0,0,.87,1l-.32,1.15a4,4,0,0,0,2.78,4.92l1.92.54a4,4,0,0,0,4.93-2.78l.32-1.13a3,3,0,0,0,2.71-2.18L30.86,25H36.5a11.47,11.47,0,0,1,11.37,9.89A6,6,0,0,0,45.09,39H18a1,1,0,0,0,0,2H45.09a5.79,5.79,0,0,0,.73,2,12.11,12.11,0,0,1-9.69,5H21a3,3,0,0,0-3,3v1a3,3,0,0,0,.18,1H6a3,3,0,0,0-3,3v3a3,3,0,0,0,3,3H58a3,3,0,0,0,3-3V56A3,3,0,0,0,58,53ZM25.31,3.86,33,6l-.54,1.93L28.63,6.86,26.7,6.32h0l-1.93-.53Zm2.78,4.93,1,.27L28.52,11l-1.93-.53.54-1.93ZM24.26,33.67a2,2,0,0,1-2.46,1.39l-1.93-.53a2,2,0,0,1-1.39-2.47l.27-1,5.78,1.61Zm3-3.3a1,1,0,0,1-1.23.69L22,29.92l-3.62-1a1,1,0,0,1-.69-1.23L22,12.27a1,1,0,0,1,1-.73l.27,0,4,1.12,1.76.49h0l1.95.54A1,1,0,0,1,31.59,15ZM47,39.54A4,4,0,0,1,51,36l.47,0A4,4,0,0,1,50.54,44a3.93,3.93,0,0,1-2.66-1.48l0-.05A4,4,0,0,1,47,39.54ZM20,52V51a1,1,0,0,1,1-1H36.13a14.12,14.12,0,0,0,11-5.41A6,6,0,0,0,50,45.9,17.12,17.12,0,0,1,36.05,53H21A1,1,0,0,1,20,52Zm39,7a1,1,0,0,1-1,1H6a1,1,0,0,1-1-1V56a1,1,0,0,1,1-1H58a1,1,0,0,1,1,1Z"/><path class="cls-6" d="M44.23,21.92c.3.16.59.32.88.5a1,1,0,0,0,.51.14,1,1,0,0,0,.51-1.86l-.94-.54a1,1,0,0,0-1,1.76Z"/></g></svg>