<svg xmlns="http://www.w3.org/2000/svg" viewBox="0 0 64 64"><defs><style>.cls-1{fill:#96a1c3;}.cls-2{fill:#ccd3eb;}.cls-3{fill:#d7e9f7;}.cls-4{fill:#f5f7ff;}.cls-5{fill:#0074ff;}.cls-6{fill:#033c59;}</style></defs><title>Mortar</title><g id="Mortar"><path class="cls-1" d="M57.77,9l-1.54,2.58-6.87-4.1,1.53-2.57A4,4,0,0,1,57.77,9Z"/><polygon class="cls-2" points="56.23 11.55 51.2 20 41.89 20 49.36 7.45 56.23 11.55"/><path class="cls-3" d="M60,22v4H4V22a2,2,0,0,1,2-2H58A2,2,0,0,1,60,22Z"/><path class="cls-4" d="M57,20v2.34A2.66,2.66,0,0,1,54.34,25H4V22a2,2,0,0,1,2-2Z"/><path class="cls-3" d="M4,26v.43A28.79,28.79,0,0,0,17.79,51,27.86,27.86,0,0,0,23,53.49,27.21,27.21,0,0,0,31.41,55,28,28,0,0,0,51.8,46.8,28,28,0,0,0,60,27V26ZM22,40a2,2,0,0,1,2-2h5V33a2,2,0,0,1,2-2h2a2,2,0,0,1,2,2v5h5a2,2,0,0,1,2,2v2a2,2,0,0,1-2,2H35v5a2,2,0,0,1-2,2H31a2,2,0,0,1-2-2V44H24a2,2,0,0,1-2-2Z"/><path class="cls-4" d="M56,26A28,28,0,0,1,37,51.51,27.69,27.69,0,0,1,27.41,53,27.21,27.21,0,0,1,19,51.49c-.41-.14-.81-.29-1.21-.45A28.79,28.79,0,0,1,4,26.43V26Z"/><path class="cls-5" d="M42,40v2a2,2,0,0,1-2,2H35v5a2,2,0,0,1-2,2H31a2,2,0,0,1-2-2V44H24a2,2,0,0,1-2-2V40a2,2,0,0,1,2-2h5V33a2,2,0,0,1,2-2h2a2,2,0,0,1,2,2v5h5A2,2,0,0,1,42,40Z"/><path class="cls-1" d="M41,53.51v4.37A2.07,2.07,0,0,1,39,60H25a2.05,2.05,0,0,1-2-2,.49.49,0,0,1,0-.12V53.49A27.21,27.21,0,0,0,31.41,55,28,28,0,0,0,39,54.11C39.68,53.94,40.34,53.74,41,53.51Z"/><path class="cls-2" d="M39,54.11v1.77A2.07,2.07,0,0,1,37,58H23a.49.49,0,0,1,0-.12V53.49A27.21,27.21,0,0,0,31.41,55,28,28,0,0,0,39,54.11Z"/><path class="cls-6" d="M58,19H53l5.67-9.52a5,5,0,0,0-1.74-6.85A5,5,0,0,0,50,4.37L41.32,19H22a1,1,0,0,0,0,2H58a1,1,0,0,1,1,1v3H5V22a1,1,0,0,1,1-1h7a1,1,0,0,0,0-2H6a3,3,0,0,0-3,3v4.43A29.73,29.73,0,0,0,22,54.16V58a3,3,0,0,0,3,3H39a3,3,0,0,0,3-3V54.24A29,29,0,0,0,61,27V22A3,3,0,0,0,58,19ZM55.87,4.35a2.94,2.94,0,0,1,1.37,1.84,3,3,0,0,1-.33,2.27l-1,1.72h0L50.73,7.11h0l1-1.72A3,3,0,0,1,55.87,4.35ZM49.71,8.83h0l5.15,3.07L50.63,19h-7ZM40,58a1,1,0,0,1-1,1H25a1,1,0,0,1-1-1V54.84A27.83,27.83,0,0,0,31.39,56H32a28.83,28.83,0,0,0,8-1.12ZM51.09,46.09A26.92,26.92,0,0,1,40.8,52.55a1,1,0,0,0-.25.08A27,27,0,0,1,31.43,54C17,53.7,5.3,41.64,5,27H59A26.84,26.84,0,0,1,51.09,46.09Z"/><path class="cls-6" d="M17,21h1a1,1,0,0,0,0-2H17a1,1,0,0,0,0,2Z"/><path class="cls-6" d="M24,45h4v4a3,3,0,0,0,3,3h2a3,3,0,0,0,3-3V45h4a3,3,0,0,0,3-3V40a3,3,0,0,0-3-3H36V33a3,3,0,0,0-3-3H31a3,3,0,0,0-3,3v4H24a3,3,0,0,0-3,3v2A3,3,0,0,0,24,45Zm-1-5a1,1,0,0,1,1-1h5a1,1,0,0,0,1-1V33a1,1,0,0,1,1-1h2a1,1,0,0,1,1,1v5a1,1,0,0,0,1,1h5a1,1,0,0,1,1,1v2a1,1,0,0,1-1,1H35a1,1,0,0,0-1,1v5a1,1,0,0,1-1,1H31a1,1,0,0,1-1-1V44a1,1,0,0,0-1-1H24a1,1,0,0,1-1-1Z"/></g></svg>