<svg xmlns="http://www.w3.org/2000/svg" xmlns:xlink="http://www.w3.org/1999/xlink" viewBox="0 0 64 64"><defs><style>.cls-1{fill:#f5f7ff;}.cls-2{fill:#96a1c3;}.cls-3{fill:#ccd3eb;}.cls-4{fill:#0074ff;}.cls-5{fill:url(#linear-gradient);}.cls-6{fill:#033c59;}</style><linearGradient id="linear-gradient" x1="24" y1="55" x2="40" y2="55" gradientUnits="userSpaceOnUse"><stop offset="0" stop-color="#fe9661"/><stop offset="1" stop-color="#ffb369"/></linearGradient></defs><title>MRI</title><g id="MRI"><path class="cls-1" d="M49,28a17,17,0,0,1-9,15V39a2,2,0,0,0-2-2H26a2,2,0,0,0-2,2v4a17,17,0,0,1-9-15,16.75,16.75,0,0,1,1.14-6.11A3,3,0,1,0,19,18a2.82,2.82,0,0,0-.83.12,16.92,16.92,0,0,1,11.46-7,3,3,0,1,0,4.74,0,16.92,16.92,0,0,1,11.46,7A2.82,2.82,0,0,0,45,18a3,3,0,1,0,2.86,3.89A16.75,16.75,0,0,1,49,28Z"/><path class="cls-2" d="M22,21a3,3,0,0,1-5.86.89h0a16.44,16.44,0,0,1,2-3.76A2.82,2.82,0,0,1,19,18,3,3,0,0,1,22,21Z"/><path class="cls-2" d="M47.86,21.88h0A3,3,0,1,1,45,18a2.82,2.82,0,0,1,.83.12A16.44,16.44,0,0,1,47.86,21.88Z"/><path class="cls-3" d="M40,39v4H24V39a2,2,0,0,1,2-2H38A2,2,0,0,1,40,39Z"/><path class="cls-2" d="M58,28a25.82,25.82,0,0,1-4.84,15.1,26.08,26.08,0,0,1-10.23,8.49h-.07l-1-2.93L40,43a17,17,0,0,0,9-15,16.75,16.75,0,0,0-1.14-6.11h0a16.44,16.44,0,0,0-2-3.76,16.92,16.92,0,0,0-11.46-7,8.58,8.58,0,0,0-.87-.1L33,11c-.34,0-.67,0-1,0s-.67,0-1,0l-.49,0a8.58,8.58,0,0,0-.87.1,16.92,16.92,0,0,0-11.46,7,16.44,16.44,0,0,0-2,3.76h0A16.75,16.75,0,0,0,15,28a17,17,0,0,0,9,15l-1.88,5.66-1,2.93h-.07A26.08,26.08,0,0,1,10.84,43.1,26,26,0,1,1,58,28Z"/><path class="cls-3" d="M54.85,28.06a22.85,22.85,0,0,1-13,20.6L40,43a17,17,0,0,0,9-15,16.75,16.75,0,0,0-1.14-6.11h0a16.44,16.44,0,0,0-2-3.76,16.92,16.92,0,0,0-11.46-7,8.58,8.58,0,0,0-.87-.1L33,11c-.34,0-.67,0-1,0s-.67,0-1,0l-.49,0a8.58,8.58,0,0,0-.87.1,16.92,16.92,0,0,0-11.46,7,16.44,16.44,0,0,0-2,3.76h0A16.75,16.75,0,0,0,15,28a17,17,0,0,0,9,15l-1.88,5.66a22.85,22.85,0,1,1,32.73-20.6Z"/><path class="cls-3" d="M21.14,51.59,20,55v5H10.27a2.09,2.09,0,0,1-2-2.52L10.84,43.1a25.36,25.36,0,0,0,2,2.49,26,26,0,0,0,8.2,6Z"/><path class="cls-3" d="M53.73,60H44V55l-1.14-3.41h.07a26,26,0,0,0,8.2-6,25.36,25.36,0,0,0,2-2.49l2.55,14.38A2.09,2.09,0,0,1,53.73,60Z"/><path class="cls-1" d="M21.14,51.59,20,55v2H13.27a2.09,2.09,0,0,1-2-2.52l1.58-8.89a26,26,0,0,0,8.2,6Z"/><path class="cls-1" d="M50.73,57H44V55l-1.14-3.41h.07a26,26,0,0,0,8.2-6l1.58,8.89A2.09,2.09,0,0,1,50.73,57Z"/><path class="cls-2" d="M35,13a3,3,0,1,1-5.37-1.83,8.58,8.58,0,0,1,.87-.1L31,11c.34,0,.67,0,1,0s.67,0,1,0l.49,0a8.58,8.58,0,0,1,.87.1A3,3,0,0,1,35,13Z"/><polygon class="cls-4" points="44 55 44 60 20 60 20 55 21.14 51.59 42.86 51.59 44 55"/><polygon class="cls-4" points="42.86 51.59 21.14 51.59 24 43 40 43 42.86 51.59"/><path class="cls-5" d="M39,56H25a1,1,0,0,1,0-2H39a1,1,0,0,1,0,2Z"/><path class="cls-6" d="M51.73,12.65a1,1,0,0,0,.8.41.92.92,0,0,0,.59-.2,1,1,0,0,0,.21-1.39c-.11-.16-.24-.33-.37-.49a1,1,0,0,0-1.56,1.26Z"/><path class="cls-6" d="M54,43.82s0-.08,0-.13a26.9,26.9,0,0,0,1.54-29,1,1,0,1,0-1.74,1A24.95,24.95,0,0,1,43.45,50.2l-2.24-6.74A18,18,0,0,0,50,28a17.78,17.78,0,0,0-1.16-6.29,1.1,1.1,0,0,0-.12-.33,17.37,17.37,0,0,0-2-3.7.75.75,0,0,0-.15-.2,18,18,0,0,0-12-7.27l-.09,0-.36,0-.57-.06c-.5-.05-1-.07-1.52-.08h-.12c-.51,0-1,0-1.52.08l-.57.06-.36,0-.09,0a18,18,0,0,0-12,7.27.75.75,0,0,0-.15.2,17.37,17.37,0,0,0-2,3.7,1.1,1.1,0,0,0-.12.33A17.78,17.78,0,0,0,14,28a18,18,0,0,0,8.79,15.46L20.55,50.2A25,25,0,1,1,48.78,9.48,1,1,0,0,0,50.12,8,27,27,0,0,0,10.06,43.69c0,.05,0,.08,0,.13L7.46,57.45a3,3,0,0,0,3,3.55H53.59a3,3,0,0,0,2.95-3.55ZM39,42H25V39a1,1,0,0,1,1-1H38a1,1,0,0,1,1,1Zm6.24-23a15.24,15.24,0,0,1,1.53,2.84A1.94,1.94,0,0,1,45,23a2,2,0,0,1,0-4A1.75,1.75,0,0,1,45.24,19ZM34,13a2,2,0,0,1-4,0,2,2,0,0,1,.22-.89h0a15.75,15.75,0,0,1,3.5,0h0A2,2,0,0,1,34,13ZM19,19a2,2,0,0,1,0,4,1.94,1.94,0,0,1-1.77-1.13A15.24,15.24,0,0,1,18.76,19,1.75,1.75,0,0,1,19,19Zm-3,9a15.51,15.51,0,0,1,.5-3.88,4,4,0,1,0,3.72-6.91A16,16,0,0,1,28,12.52,3.88,3.88,0,0,0,28,13a4,4,0,0,0,8,0,3.88,3.88,0,0,0,0-.48,16,16,0,0,1,7.82,4.69,4,4,0,1,0,3.72,6.91A15.51,15.51,0,0,1,48,28a16,16,0,0,1-7,13.22V39a3,3,0,0,0-3-3H26a3,3,0,0,0-3,3v2.22A16,16,0,0,1,16,28ZM9.64,58.64a1,1,0,0,1-.22-.83l2.27-12.05a26.81,26.81,0,0,0,8.22,6.36l-.86,2.56A1.19,1.19,0,0,0,19,55v4H10.41A1,1,0,0,1,9.64,58.64ZM21,55.16,24.72,44H39.28L43,55.16V59H21Zm33.36,3.48a1,1,0,0,1-.77.36H45V55a1.19,1.19,0,0,0,0-.32l-.86-2.56a26.81,26.81,0,0,0,8.22-6.36l2.27,12.05A1,1,0,0,1,54.36,58.64Z"/><path class="cls-1" d="M39,54H25a1,1,0,0,0,0,2H39a1,1,0,0,0,0-2Z"/></g></svg>