<svg xmlns="http://www.w3.org/2000/svg" viewBox="0 0 64 64"><defs><style>.cls-1{fill:#0074ff;}.cls-2{fill:#ccd3eb;}.cls-3{fill:#f5f7ff;}.cls-4{fill:none;stroke:#000;stroke-linecap:round;stroke-linejoin:round;stroke-width:2px;}.cls-5{fill:#96a1c3;}.cls-6{fill:#b4cde1;}.cls-7{fill:#4795ea;}.cls-8{fill:#647499;}.cls-9{fill:#d7e9f7;}.cls-10{fill:#033c59;}</style></defs><title>Nurse</title><g id="Nurse"><path class="cls-1" d="M44,7v7H20V7c0-2.76,5.37-5,12-5S44,4.24,44,7Z"/><path class="cls-2" d="M44,22v2a12,12,0,0,1-8,11.31,11.94,11.94,0,0,1-8,0A12,12,0,0,1,20,24V19h.61a8,8,0,0,0,4.46-1.37,7.81,7.81,0,0,0,2.52-2.77A6.78,6.78,0,0,0,28,14a20.08,20.08,0,0,0,6,5.34l.07,0A19.61,19.61,0,0,0,42,21.89,16.64,16.64,0,0,0,44,22Z"/><path class="cls-3" d="M42,21.89V23a12,12,0,0,1-8,11.31,11.94,11.94,0,0,1-8,0l-.39-.16A12,12,0,0,1,20,24V19h.61a8,8,0,0,0,4.46-1.37,7.81,7.81,0,0,0,2.52-2.77A19.77,19.77,0,0,0,34,19.34l.07,0A19.61,19.61,0,0,0,42,21.89Z"/><line class="cls-4" x1="35.94" y1="39.36" x2="35.93" y2="39.36"/><path class="cls-5" d="M53.8,61.77a1,1,0,0,1-1,1.23H11.19a1,1,0,0,1-1-1.23l.72-4.29a22.24,22.24,0,0,1,12.33-16.6h17.5a21.12,21.12,0,0,1,5,3.29,22.59,22.59,0,0,1,7.31,13.31Z"/><path class="cls-2" d="M50.8,61.77a1,1,0,0,1-1,1.23H11.19a1,1,0,0,1-1-1.23l.72-4.29a22.24,22.24,0,0,1,12.33-16.6h14.5a21.12,21.12,0,0,1,5,3.29,22.59,22.59,0,0,1,7.31,13.31Z"/><line class="cls-4" x1="28.07" y1="39.36" x2="28.06" y2="39.36"/><path class="cls-4" d="M44,16a4.7,4.7,0,0,0,0-.53"/><path class="cls-6" d="M32,33a4,4,0,0,1-2.83-1.17,1,1,0,0,1,1.42-1.42,2,2,0,0,0,2.82,0,1,1,0,1,1,1.42,1.42A4,4,0,0,1,32,33Z"/><path class="cls-7" d="M34,9H30a1,1,0,0,1,0-2h4a1,1,0,0,1,0,2Z"/><path class="cls-7" d="M32,11a1,1,0,0,1-1-1V6a1,1,0,0,1,2,0v4A1,1,0,0,1,32,11Z"/><path class="cls-8" d="M44,14v8a20,20,0,0,1-16-8Z"/><path class="cls-8" d="M28,35.31V39H23a7,7,0,0,1-7-7V21a4,4,0,0,0,4,4V24A12,12,0,0,0,28,35.31Z"/><path class="cls-8" d="M28,14a8,8,0,0,1-7.39,5H20V14Z"/><path class="cls-2" d="M20,17v8a4,4,0,1,1,0-8Z"/><path class="cls-5" d="M20,7.41V17a3.93,3.93,0,0,0-1.64.36,3,3,0,0,0-.36.18,4.23,4.23,0,0,0-.83.63A4,4,0,0,0,16,21V18A16,16,0,0,1,20,7.41Z"/><path class="cls-2" d="M36,35.31V39l-.06.32s0,0,0,0C35.59,40.29,34,41,32,41s-3.59-.71-3.93-1.64c0,0,0,0,0,0L28,39V35.31a11.94,11.94,0,0,0,8,0Z"/><path class="cls-3" d="M36,35.31V37l-.06.32s0,0,0,0C35.59,38.29,34,39,32,39s-3.59-.71-3.93-1.64c0,0,0,0,0,0L28,37V35.31a11.94,11.94,0,0,0,8,0Z"/><path class="cls-8" d="M48,21V32a7,7,0,0,1-7,7H36V35.31A12,12,0,0,0,44,24v1a4,4,0,0,0,2-.54,4.23,4.23,0,0,0,.83-.63A4,4,0,0,0,48,21Z"/><path class="cls-5" d="M48,18v3a4,4,0,0,0-2-3.46,3,3,0,0,0-.36-.18A3.93,3.93,0,0,0,44,17V7.41A16,16,0,0,1,48,18Z"/><path class="cls-1" d="M32,41v1a3,3,0,0,1-3,3,5,5,0,0,1-5-5V39h4l.06.32s0,0,0,0C28.41,40.29,30,41,32,41Z"/><path class="cls-1" d="M40,39v1a5,5,0,0,1-5,5,3,3,0,0,1-3-3V41c2,0,3.59-.71,3.93-1.64,0,0,0,0,0,0L36,39Z"/><circle class="cls-9" cx="32" cy="49" r="1"/><circle class="cls-9" cx="32" cy="54" r="1"/><circle class="cls-9" cx="32" cy="59" r="1"/><rect class="cls-3" x="37" y="54" width="10" height="5" rx="1" ry="1"/><path class="cls-2" d="M48,21a4,4,0,0,1-4,4V17A4,4,0,0,1,48,21Z"/><path class="cls-10" d="M54.07,56.56a22.45,22.45,0,0,0-7.66-13.31A22.14,22.14,0,0,0,41.2,40,8,8,0,0,0,49,32V18A17,17,0,0,0,45,7.06V7c0-3.42-5.59-6-13-6S19,3.58,19,7v.06A17,17,0,0,0,15,18V32a8,8,0,0,0,7.79,8A22.31,22.31,0,0,0,9.94,56.56L9,61.83A1,1,0,0,0,9.83,63H10a1,1,0,0,0,1-.83l.93-5.27A20.36,20.36,0,0,1,23.33,42,6,6,0,0,0,29,46a4,4,0,0,0,3-1.38A4,4,0,0,0,35,46a6,6,0,0,0,5.67-4A20.32,20.32,0,0,1,52.1,56.9L53,62.17A1,1,0,0,0,54,63h.17A1,1,0,0,0,55,61.83ZM41,38H37V36a13,13,0,0,0,7.85-10.08A5,5,0,0,0,47,25v7A6,6,0,0,1,41,38Zm-9,2c-1.68,0-2.77-.58-3-.94l0-2.41.24,0a8.87,8.87,0,0,0,1,.18l.36.05a11.77,11.77,0,0,0,2.74,0l.36-.05a9,9,0,0,0,1-.18l.23,0v2.26l0,.15C34.77,39.42,33.68,40,32,40ZM19,23.83a3,3,0,0,1,0-5.66v5.66ZM21,17V15h5.34A6.91,6.91,0,0,1,21,18Zm0,3a8.89,8.89,0,0,0,7.19-4.17A21.11,21.11,0,0,0,43,23v1A11,11,0,0,1,30.14,34.84a10.25,10.25,0,0,1-1.81-.47A11,11,0,0,1,21,24Zm24,2V18.17a3,3,0,0,1,0,5.66Zm2-5a4.89,4.89,0,0,0-2-.89V10.53A14.92,14.92,0,0,1,47,17ZM21,7c0-1.81,4.31-3.81,10.2-4h0c.51,0,1.05,0,1.56,0h0C38.7,3.19,43,5.2,43,7v6H42a1,1,0,0,0,0,2h1v.42a.92.92,0,0,0,0,.16c0,.14,0,.28,0,.42v5a19.08,19.08,0,0,1-12.85-6H33a1,1,0,0,0,0-2H21Zm-2,7v2.1a4.89,4.89,0,0,0-1.95.89A14.92,14.92,0,0,1,19,10.53ZM17,32V25a5,5,0,0,0,2.15.94A13,13,0,0,0,27,36v2H23A6,6,0,0,1,17,32ZM29,44a4,4,0,0,1-4-4h2.28A4.74,4.74,0,0,0,31,41.94V42A2,2,0,0,1,29,44Zm6,0a2,2,0,0,1-2-2v-.06A4.74,4.74,0,0,0,36.72,40H39A4,4,0,0,1,35,44Z"/><path class="cls-10" d="M32,33a4,4,0,0,0,2.83-1.17,1,1,0,1,0-1.42-1.42,2,2,0,0,1-2.82,0,1,1,0,0,0-1.42,1.42A4,4,0,0,0,32,33Z"/><path class="cls-3" d="M30,9h1v1a1,1,0,0,0,2,0V9h1a1,1,0,0,0,0-2H33V6a1,1,0,0,0-2,0V7H30a1,1,0,0,0,0,2Z"/><path class="cls-10" d="M37,15h1a1,1,0,0,0,0-2H37a1,1,0,0,0,0,2Z"/><circle class="cls-10" cx="32" cy="49" r="1"/><circle class="cls-10" cx="32" cy="54" r="1"/><circle class="cls-10" cx="32" cy="59" r="1"/><path class="cls-10" d="M47,53H37a1,1,0,0,0-1,1v5a1,1,0,0,0,1,1H47a1,1,0,0,0,1-1V54A1,1,0,0,0,47,53Zm-1,5H38V55h8Z"/></g></svg>