<svg xmlns="http://www.w3.org/2000/svg" xmlns:xlink="http://www.w3.org/1999/xlink" viewBox="0 0 64 64"><defs><style>.cls-1{fill:#b4cde1;}.cls-2{fill:#d7e9f7;}.cls-3{fill:#0074ff;}.cls-4{fill:#96a1c3;}.cls-5{fill:#ccd3eb;}.cls-6{fill:#647499;}.cls-7{fill:url(#linear-gradient);}.cls-8{fill:url(#linear-gradient-2);}.cls-9{fill:#f5f7ff;}.cls-10{fill:#033c59;}</style><linearGradient id="linear-gradient" x1="25" y1="13" x2="31" y2="13" gradientUnits="userSpaceOnUse"><stop offset="0" stop-color="#54a5ff"/><stop offset="1" stop-color="#8ad3fe"/></linearGradient><linearGradient id="linear-gradient-2" x2="27" xlink:href="#linear-gradient"/></defs><title>Oxygen</title><g id="Oxygen"><path class="cls-1" d="M49.5,51.9A4.51,4.51,0,0,1,45,47.4V23a5,5,0,0,0-5-5H34a1,1,0,0,1,0-2h6a7,7,0,0,1,7,7V47.4a2.5,2.5,0,1,0,5,0V14a1,1,0,0,1,2,0V47.4A4.51,4.51,0,0,1,49.5,51.9Z"/><path class="cls-1" d="M39,14H34a1,1,0,0,1,0-2h5a1,1,0,0,0,1-1V10a1,1,0,0,1,2,0v1A3,3,0,0,1,39,14Z"/><path class="cls-2" d="M44,62a1,1,0,0,1-1-1V58a1,1,0,0,1,2,0v3A1,1,0,0,1,44,62Z"/><path class="cls-3" d="M22.63,55A5.05,5.05,0,0,0,20,52.31a5.08,5.08,0,0,0-4,0A5,5,0,1,0,22.63,55ZM18,57.9a1,1,0,1,1,1-1A1,1,0,0,1,18,57.9Z"/><path class="cls-1" d="M18,54.9a2,2,0,1,0,2,2A2,2,0,0,0,18,54.9Zm0,2Z"/><path class="cls-3" d="M44.9,5.9A3.88,3.88,0,0,1,43,9.27a3.85,3.85,0,0,1-3.9,0,3.76,3.76,0,0,1-.72-.54A3.83,3.83,0,0,1,37.1,5.9,3.91,3.91,0,0,1,41,2a3.71,3.71,0,0,1,.67.06A3.9,3.9,0,0,1,44.9,5.9Z"/><path class="cls-4" d="M39,25.9V35H25V25.9a5,5,0,0,1,5-5V11.7a2,2,0,0,1,2.66-1.76A1.93,1.93,0,0,1,34,11.8v9.1A5,5,0,0,1,39,25.9Z"/><path class="cls-4" d="M39,42V52.9a2,2,0,0,1-2,2H27a2,2,0,0,1-2-2V42Z"/><path class="cls-5" d="M39,25.9V35H25V25.9a5,5,0,0,1,5-5V11.7a2,2,0,0,1,2.66-1.76A1.93,1.93,0,0,1,34,11.8v9.1A5,5,0,0,1,39,25.9Z"/><path class="cls-5" d="M37,42v5.49a5.42,5.42,0,0,1-5.41,5.41H25V42Z"/><path class="cls-6" d="M57,13.9c0,1.66-1.79,3-4,3a4.58,4.58,0,0,1-3.13-1.13A2.58,2.58,0,0,1,49,13.9c0-1.63,1.73-5.75,3.88-5.89H53C55.21,8,57,12.24,57,13.9Z"/><path class="cls-4" d="M55,12.9c0,1.66-1.79,3-4,3a4.66,4.66,0,0,1-1.13-.13A2.58,2.58,0,0,1,49,13.9c0-1.63,1.73-5.75,3.88-5.89A8.88,8.88,0,0,1,55,12.9Z"/><path class="cls-7" d="M30,14H26a1,1,0,0,1,0-2h4a1,1,0,0,1,0,2Z"/><path class="cls-8" d="M26,16a1,1,0,0,1-1-1V11a1,1,0,0,1,2,0v4A1,1,0,0,1,26,16Z"/><rect class="cls-6" x="25" y="35" width="14" height="7"/><rect class="cls-4" x="25" y="35" width="12" height="7"/><path class="cls-3" d="M45,56v2a1,1,0,0,1-1,1H22.54A5.08,5.08,0,0,0,23,56.9a5,5,0,0,0-.37-1.9H44A1,1,0,0,1,45,56Z"/><path class="cls-3" d="M20,8V52.31a5.08,5.08,0,0,0-4,0V8a2,2,0,0,0-2-2H9A2,2,0,0,1,9,2h5A6,6,0,0,1,20,8Z"/><circle class="cls-9" cx="18" cy="56.9" r="2"/><path class="cls-10" d="M58,13.9c0-2-2-6.9-5-6.9s-5,4.91-5,6.9,1.72,3.55,4,3.92V47.4a2.5,2.5,0,1,1-5,0V23a7,7,0,0,0-7-7H35V14h4a3,3,0,0,0,3-3v-.32a4.7,4.7,0,0,0,1.45-.54,4.9,4.9,0,1,0-4.9,0,4.7,4.7,0,0,0,1.45.54V11a1,1,0,0,1-1,1H35v-.2A3,3,0,0,0,33,9a3.1,3.1,0,0,0-2.79.46A2.79,2.79,0,0,0,29,11.7V12H27V11a1,1,0,0,0-2,0v4a1,1,0,0,0,2,0V14h2v6a6,6,0,0,0-5,5.91v27a2.88,2.88,0,0,0,.22,1.1h-1A6.11,6.11,0,0,0,21,51.71V27a1,1,0,0,0-2,0V51a6.64,6.64,0,0,0-1-.09A6.64,6.64,0,0,0,17,51V8a3,3,0,0,0-3-3H9A1,1,0,0,1,9,3h5a5,5,0,0,1,5,5V18a1,1,0,0,0,2,0V8a7,7,0,0,0-7-7H9A3,3,0,0,0,9,7h5a1,1,0,0,1,1,1V51.71A6,6,0,1,0,23.13,60H44v2a1,1,0,0,0,2,0V55a1,1,0,0,0-1-1H39.78A2.88,2.88,0,0,0,40,52.9v-27A6,6,0,0,0,35,20V18h5a5,5,0,0,1,5,5V47.4a4.5,4.5,0,1,0,9,0V17.82C56.28,17.45,58,15.83,58,13.9Zm-19.9-8a2.9,2.9,0,1,1,1.45,2.51A2.9,2.9,0,0,1,38.1,5.9ZM18,60.9a4,4,0,1,1,4-4A4,4,0,0,1,18,60.9ZM44,58H23.89A5.7,5.7,0,0,0,24,56.9a5.29,5.29,0,0,0-.08-.9H44ZM26,43H38v9.9a1,1,0,0,1-1,1H27a1,1,0,0,1-1-1Zm12-2H26V36H38Zm0-15.1V34H26V25.9a4,4,0,0,1,4-4,1,1,0,0,0,1-1V11.7a.83.83,0,0,1,.36-.66,1.11,1.11,0,0,1,1-.14.94.94,0,0,1,.63.9v9.1a1,1,0,0,0,1,1A4,4,0,0,1,38,25.9Zm15-10c-1.63,0-3-.92-3-2C50,12.52,51.63,9,53,9s3,3.52,3,4.9C56,15,54.63,15.9,53,15.9Z"/><path class="cls-10" d="M20,21a1,1,0,0,0-1,1v1a1,1,0,0,0,2,0V22A1,1,0,0,0,20,21Z"/></g></svg>