<svg xmlns="http://www.w3.org/2000/svg" viewBox="0 0 64 64"><defs><style>.cls-1{fill:#ccd3eb;}.cls-2{fill:#0074ff;}.cls-3{fill:#f5f7ff;}.cls-4{fill:#96a1c3;}.cls-5{fill:#647499;}.cls-6{fill:#54a5ff;}.cls-7{fill:#eb7f58;}.cls-8{fill:#033c59;}</style></defs><title>Pharmacy</title><g id="Pharmacy"><path class="cls-1" d="M22,11v7H12V11.7c0-.39.45-.7,1-.7Z"/><path class="cls-1" d="M52,11.7V18H42V11h9C51.55,11,52,11.31,52,11.7Z"/><path class="cls-2" d="M60,20a2,2,0,0,1-2,2H6a2,2,0,0,1-2-2,2,2,0,0,1,2-2H58A2,2,0,0,1,60,20Z"/><rect class="cls-2" x="4" y="57" width="56" height="4" rx="1" ry="1"/><path class="cls-1" d="M7,22V57h5V31a1,1,0,0,1,1-1H24a1,1,0,0,1,1,1V57H57V22ZM53,48H29V44h2V31a1,1,0,0,1,1-1H50a1,1,0,0,1,1,1V44h2Z"/><path class="cls-3" d="M54,22V35.62A18.28,18.28,0,0,1,52,44a18.54,18.54,0,0,1-2.77,4,18.35,18.35,0,0,1-13.59,6H7V22Z"/><path class="cls-2" d="M41,3H23a1,1,0,0,0-1,1V18H42V4A1,1,0,0,0,41,3Z"/><path class="cls-4" d="M51,31V44H31V31a1,1,0,0,1,1-1H50A1,1,0,0,1,51,31Z"/><path class="cls-1" d="M49,30v7.62A4.38,4.38,0,0,1,44.62,42H31V31a1,1,0,0,1,1-1Z"/><rect class="cls-5" x="29" y="44" width="24" height="4" rx="1" ry="1"/><path class="cls-4" d="M25,31V57H12V31a1,1,0,0,1,1-1H24A1,1,0,0,1,25,31Z"/><path class="cls-1" d="M23,30V50.28A4.72,4.72,0,0,1,18.28,55H12V31a1,1,0,0,1,1-1Z"/><path class="cls-6" d="M21,43a1,1,0,0,1-1-1V41a1,1,0,0,1,2,0v1A1,1,0,0,1,21,43Z"/><path class="cls-7" d="M32,15a1,1,0,0,1-1-1V7a1,1,0,0,1,2,0v7A1,1,0,0,1,32,15Z"/><path class="cls-7" d="M35.5,11.5h-7a1,1,0,0,1,0-2h7a1,1,0,0,1,0,2Z"/><path class="cls-8" d="M59,56H58V23a3,3,0,0,0,3-3,3,3,0,0,0-3-3H53V11.7A1.85,1.85,0,0,0,51,10H43V3a1,1,0,0,0-1-1H22a1,1,0,0,0-1,1v7H13a1.85,1.85,0,0,0-2,1.7V17H6a3,3,0,0,0-3,3,3,3,0,0,0,3,3V56H5a2,2,0,0,0-2,2v2a2,2,0,0,0,2,2H59a2,2,0,0,0,2-2V58A2,2,0,0,0,59,56ZM51,12v5H43V12ZM23,4H41V17H23ZM13,12h8v5H13ZM5,20a1,1,0,0,1,.31-.71A.93.93,0,0,1,6,19H58a1,1,0,0,1,1,1,1,1,0,0,1-.31.71A.93.93,0,0,1,58,21H6A1,1,0,0,1,5,20ZM59,60H5V58H34a1,1,0,0,0,0-2H26V31a2,2,0,0,0-2-2H13a2,2,0,0,0-2,2V56H8V23H56V56H43a1,1,0,0,0,0,2H59ZM24,48H13V37H24Zm0-13H13V31H24ZM13,50H24v6H13Z"/><path class="cls-8" d="M39,56H38a1,1,0,0,0,0,2h1a1,1,0,0,0,0-2Z"/><path class="cls-8" d="M54,48V44a1,1,0,0,0-1-1H52V31a2,2,0,0,0-2-2H32a2,2,0,0,0-2,2V43H29a1,1,0,0,0-1,1v4a1,1,0,0,0,1,1H53A1,1,0,0,0,54,48ZM32,31H50V43H32ZM52,47H30V45H52Z"/><path class="cls-8" d="M21,43a1,1,0,0,0,1-1V41a1,1,0,0,0-2,0v1A1,1,0,0,0,21,43Z"/><path class="cls-3" d="M35.5,9.5H33V7a1,1,0,0,0-2,0V9.5H28.5a1,1,0,0,0,0,2H31V14a1,1,0,0,0,2,0V11.5h2.5a1,1,0,0,0,0-2Z"/></g></svg>