<svg xmlns="http://www.w3.org/2000/svg" viewBox="0 0 64 64"><defs><style>.cls-1{fill:#b4cde1;}.cls-2{fill:#96a1c3;}.cls-3{fill:#ccd3eb;}.cls-4{fill:#f5f7ff;}.cls-5{fill:#0074ff;}.cls-6{fill:#033c59;}</style></defs><title>Phonendoscope</title><g id="Phonendoscope"><path class="cls-1" d="M6,24.13a1,1,0,0,1-1-1V11a6,6,0,0,1,6-6,1,1,0,0,1,0,2,4,4,0,0,0-4,4V23.13A1,1,0,0,1,6,24.13Z"/><path class="cls-1" d="M32,24.13a1,1,0,0,1-1-1V11a4,4,0,0,0-4-4,1,1,0,0,1,0-2,6,6,0,0,1,6,6V23.13A1,1,0,0,1,32,24.13Z"/><path class="cls-1" d="M36,61A18,18,0,0,1,18,43a1,1,0,0,1,2,0,16,16,0,0,0,32,0V19a1,1,0,0,1,2,0V43A18,18,0,0,1,36,61Z"/><path class="cls-2" d="M53,8a7,7,0,1,0,7,7A7,7,0,0,0,53,8Zm0,10a3,3,0,1,1,3-3A3,3,0,0,1,53,18Z"/><path class="cls-3" d="M53,10a5,5,0,1,0,5,5A5,5,0,0,0,53,10Zm0,7.14A2.14,2.14,0,1,1,55.14,15,2.13,2.13,0,0,1,53,17.14Z"/><path class="cls-3" d="M56,15a3,3,0,0,1-3,3,2.93,2.93,0,0,1-2.24-1A3,3,0,0,1,53,12a1,1,0,0,1,.24,0A3,3,0,0,1,56,15Z"/><path class="cls-4" d="M54,14a3,3,0,0,1-3,3,1,1,0,0,1-.24,0A3,3,0,0,1,53,12a1,1,0,0,1,.24,0A3,3,0,0,1,54,14Z"/><path class="cls-5" d="M33.71,25.54a11.47,11.47,0,0,1-4.3,6.26A16.64,16.64,0,0,1,21,35v6a2,2,0,0,1-2,2,2,2,0,0,1-2-2V35c-6.29-.67-11.35-4.47-12.67-9.37a2,2,0,0,1,1.93-2.52h0a2,2,0,0,1,1.91,1.46c1,3.72,5.44,6.55,10.82,6.55a13,13,0,0,0,8-2.52,7.55,7.55,0,0,0,2.84-4,2,2,0,0,1,1.92-1.49h0A2,2,0,0,1,33.71,25.54Z"/><path class="cls-3" d="M15,6a2,2,0,0,1-2,2H11V4h2A2,2,0,0,1,15,6Z"/><path class="cls-3" d="M27,4V8H25a2,2,0,0,1-2-2,2,2,0,0,1,2-2Z"/><path class="cls-6" d="M61,15a8,8,0,1,0-9,7.93V43a16,16,0,0,1-32,.81,3,3,0,0,0,1.07-.68A3,3,0,0,0,22,41V35.9a17.32,17.32,0,0,0,8-3.31,12.42,12.42,0,0,0,4.66-6.81,2.9,2.9,0,0,0-.55-2.49A2.94,2.94,0,0,0,33,22.41V11a6,6,0,0,0-5-5.91V4a1,1,0,0,0-1-1H25a3,3,0,0,0,0,6h2a1,1,0,0,0,1-1V7.14A4,4,0,0,1,31,11V22.23a3,3,0,0,0-2.16,2.14,5.58,5.58,0,0,1-1,1.94,1,1,0,0,0,1.6,1.2,7.65,7.65,0,0,0,1.3-2.64,1,1,0,0,1,1-.74,1,1,0,0,1,.81.4.87.87,0,0,1,.18.77A10.5,10.5,0,0,1,28.8,31a15.65,15.65,0,0,1-7.9,3,1,1,0,0,0-.9,1v6a1,1,0,0,1-.31.71A.93.93,0,0,1,19,42a1,1,0,0,1-1-1V35a1,1,0,0,0-.89-1c-5.84-.63-10.59-4.1-11.81-8.64a1,1,0,0,1,.17-.87,1,1,0,0,1,.8-.39,1,1,0,0,1,.94.71c1.08,4.23,6,7.3,11.79,7.3A16.14,16.14,0,0,0,21.14,32,1,1,0,0,0,22,30.87,1,1,0,0,0,20.86,30a13.63,13.63,0,0,1-1.86.12c-4.77,0-9-2.49-9.85-5.8A2.93,2.93,0,0,0,7,22.23V11a4,4,0,0,1,3-3.86V8a1,1,0,0,0,1,1h2a3,3,0,0,0,0-6H11a1,1,0,0,0-1,1V5.09A6,6,0,0,0,5,11V22.41a3,3,0,0,0-1.64,3.5c1.38,5.09,6.4,9,12.64,10V41a3,3,0,0,0,2,2.83A18,18,0,0,0,54,43V22.93A8,8,0,0,0,61,15ZM26,7H25a1,1,0,0,1,0-2h1ZM12,5h1a1,1,0,0,1,0,2H12ZM53,17a2,2,0,1,1,2-2A2,2,0,0,1,53,17Zm1,3.91V19a.5.5,0,0,0,0-.13,4,4,0,1,0-1.94,0A.5.5,0,0,0,52,19v1.91a6,6,0,1,1,2,0Z"/><path class="cls-6" d="M24.7,31a1,1,0,0,0,.37-.07,9.82,9.82,0,0,0,1.09-.53A1,1,0,0,0,26.53,29a1,1,0,0,0-1.37-.36,6.24,6.24,0,0,1-.83.4A1,1,0,0,0,24.7,31Z"/></g></svg>