<svg xmlns="http://www.w3.org/2000/svg" viewBox="0 0 64 64"><defs><style>.cls-1{fill:#ccd3eb;}.cls-2{fill:#f5f7ff;}.cls-3{fill:#0074ff;}.cls-4{fill:#033c59;}</style></defs><title>Pills</title><g id="Pills"><path class="cls-1" d="M50.56,3.58A5.74,5.74,0,0,0,48.71,3,5.53,5.53,0,0,0,48,3H32V4H16a6,6,0,0,0-6,6V54a5.91,5.91,0,0,0,.73,2.87A6,6,0,0,0,16,60H32V59H48a4.36,4.36,0,0,0,.51,0A6,6,0,0,0,54,53V9A6,6,0,0,0,50.56,3.58Zm-11.1,7.88a5,5,0,0,1,3-1.43,7.49,7.49,0,0,1,1.16,0A5,5,0,1,1,40,19a3.87,3.87,0,0,1-.54-.46,5,5,0,0,1-1.44-3A5,5,0,0,1,39.46,11.46Zm0,16a5,5,0,0,1,3-1.43,7.49,7.49,0,0,1,1.16,0A5,5,0,1,1,40,35a3.87,3.87,0,0,1-.54-.46,5,5,0,0,1-1.44-3A5,5,0,0,1,39.46,27.46Zm0,16a5,5,0,0,1,3-1.43,7.49,7.49,0,0,1,1.16,0A5,5,0,1,1,40,51a3.87,3.87,0,0,1-.54-.46,5,5,0,0,1-1.44-3A5,5,0,0,1,39.46,43.46Zm-22-31a5,5,0,1,1,0,7.08A5,5,0,0,1,17.46,12.46Zm0,16a5,5,0,1,1,0,7.08A5,5,0,0,1,17.46,28.46Zm0,16a5,5,0,1,1,0,7.08A5,5,0,0,1,17.46,44.46Z"/><path class="cls-2" d="M51,6V47.27A9.72,9.72,0,0,1,41.27,57H12a5.53,5.53,0,0,1-.71,0,5,5,0,0,1-.56-.09A5.91,5.91,0,0,1,10,54V12.73A8.73,8.73,0,0,1,18.73,4H32V3H48a5.53,5.53,0,0,1,.71,0h0A2.59,2.59,0,0,1,51,5.37Q51,5.69,51,6Z"/><path class="cls-3" d="M24.54,12.46l-7.08,7.08a5,5,0,0,1,7.08-7.08Z"/><path class="cls-1" d="M24.54,19.54a5,5,0,0,1-7.08,0l7.08-7.08A5,5,0,0,1,24.54,19.54Z"/><path class="cls-3" d="M24.54,28.46l-7.08,7.08a5,5,0,0,1,7.08-7.08Z"/><path class="cls-1" d="M24.54,35.54a5,5,0,0,1-7.08,0l7.08-7.08A5,5,0,0,1,24.54,35.54Z"/><path class="cls-3" d="M24.54,44.46l-7.08,7.08a5,5,0,0,1,7.08-7.08Z"/><path class="cls-1" d="M24.54,51.54a5,5,0,0,1-7.08,0l7.08-7.08A5,5,0,0,1,24.54,51.54Z"/><path class="cls-1" d="M46.54,19.54a5,5,0,0,1-7.08,0l7.08-7.08A5,5,0,0,1,46.54,19.54Z"/><path class="cls-3" d="M46.54,12.46l-7.08,7.08a5,5,0,0,1,7.08-7.08Z"/><path class="cls-1" d="M46.54,35.54a5,5,0,0,1-7.08,0l7.08-7.08A5,5,0,0,1,46.54,35.54Z"/><path class="cls-3" d="M46.54,28.46l-7.08,7.08a5,5,0,0,1,7.08-7.08Z"/><path class="cls-3" d="M46.54,44.46l-7.08,7.08a5,5,0,0,1,7.08-7.08Z"/><path class="cls-1" d="M46.54,51.54a5,5,0,0,1-7.08,0l7.08-7.08A5,5,0,0,1,46.54,51.54Z"/><path class="cls-4" d="M54,22a1,1,0,0,1-1-1V20a1,1,0,0,1,2,0v1A1,1,0,0,1,54,22Z"/><path class="cls-4" d="M54,17a1,1,0,0,0,1-1V10a7,7,0,0,0-6.29-7A5.53,5.53,0,0,0,48,3H16a7,7,0,0,0-7,7V54a7,7,0,0,0,7,7H48a7,7,0,0,0,7-7V25a1,1,0,0,0-2,0V54a5,5,0,0,1-4.49,5A4.36,4.36,0,0,1,48,59H33V5H48a5,5,0,0,1,5,5v6A1,1,0,0,0,54,17ZM31,59H16a5,5,0,0,1-5-5V10a5,5,0,0,1,5-5H31Z"/><path class="cls-4" d="M25.24,11.76a6,6,0,0,0-8.49,8.48h0a6,6,0,0,0,8.48-8.49ZM19,19.44,24.43,14A4,4,0,0,1,19,19.44ZM21,12a4,4,0,0,1,2,.57L17.56,18A4,4,0,0,1,21,12Z"/><path class="cls-4" d="M25.24,27.76a6,6,0,0,0-8.49,8.48h0a6,6,0,0,0,8.48-8.49ZM19,35.44,24.43,30A4,4,0,0,1,19,35.44ZM21,28a4,4,0,0,1,2,.57L17.56,34A4,4,0,0,1,21,28Z"/><path class="cls-4" d="M25.24,43.76a6,6,0,0,0-8.49,8.48h0a6,6,0,0,0,8.48-8.49ZM19,51.44,24.43,46A4,4,0,0,1,19,51.44ZM21,44a4,4,0,0,1,2,.57L17.56,50A4,4,0,0,1,21,44Z"/><path class="cls-4" d="M47.24,11.76A6,6,0,0,0,43.58,10a7.49,7.49,0,0,0-1.16,0,6,6,0,0,0-3.67,10.21h0a6,6,0,0,0,8.48-8.49ZM43,12a4,4,0,0,1,2,.57L39.56,18A4,4,0,0,1,43,12Zm-.22,8a3.92,3.92,0,0,1-1.8-.54L46.43,14a4,4,0,0,1-3.49,6Z"/><path class="cls-4" d="M47.24,27.76A6,6,0,0,0,43.58,26a7.49,7.49,0,0,0-1.16,0,6,6,0,0,0-3.67,10.21h0a6,6,0,0,0,8.48-8.49ZM43,28a4,4,0,0,1,2,.57L39.56,34A4,4,0,0,1,43,28Zm-.22,8a3.92,3.92,0,0,1-1.8-.54L46.43,30a4,4,0,0,1-3.49,6Z"/><path class="cls-4" d="M47.24,43.76A6,6,0,0,0,43.58,42a7.49,7.49,0,0,0-1.16,0,6,6,0,0,0-3.67,10.21h0a6,6,0,0,0,8.48-8.49ZM41,51.44,46.43,46a4,4,0,0,1-3.49,6h-.16A3.92,3.92,0,0,1,41,51.44Zm-.81-6.27A4,4,0,0,1,43,44a4,4,0,0,1,2,.57L39.56,50A4,4,0,0,1,40.17,45.17Z"/></g></svg>