<svg xmlns="http://www.w3.org/2000/svg" viewBox="0 0 64 64"><defs><style>.cls-1{fill:#9db8d3;}.cls-2{fill:#0074ff;}.cls-3{fill:#ccd3eb;}.cls-4{fill:#f5f7ff;}.cls-5{fill:#d7e9f7;}.cls-6{fill:#96a1c3;}.cls-7{fill:#647499;}.cls-8{fill:#033c59;}</style></defs><title>Stretcher</title><g id="Stretcher"><path class="cls-1" d="M44,58H20a1,1,0,0,1,0-2H44a1,1,0,0,1,0,2Z"/><path class="cls-1" d="M44.84,55.93a1,1,0,0,1-.42-.09L16.58,42.91a1,1,0,0,1,.84-1.82L45.26,54a1,1,0,0,1,.49,1.33A1,1,0,0,1,44.84,55.93Z"/><path class="cls-1" d="M18.83,55.63a1,1,0,0,1-.41-1.91L46.59,41.09a1,1,0,0,1,.82,1.82L19.24,55.54A1,1,0,0,1,18.83,55.63Z"/><path class="cls-1" d="M3,24a1,1,0,0,1-1-1V6A3,3,0,0,1,5,3H9a1,1,0,0,1,1,1V7.5a1.5,1.5,0,0,0,3,0V4a1,1,0,0,1,2,0V7.5a3.5,3.5,0,0,1-7,0V5H5A1,1,0,0,0,4,6V23A1,1,0,0,1,3,24Z"/><path class="cls-2" d="M61,23V34a2,2,0,0,1-2,2H5a2,2,0,0,1-2-2V23a1,1,0,0,1,1-1H8v7a1,1,0,0,0,1,1H55a1,1,0,0,0,1-1V22h4A1,1,0,0,1,61,23Z"/><path class="cls-3" d="M51,24v6H27V24a2,2,0,0,1,2-2H49A2,2,0,0,1,51,24Z"/><path class="cls-4" d="M49,22v2.56A3.44,3.44,0,0,1,45.56,28H27V24a2,2,0,0,1,2-2Z"/><path class="cls-3" d="M22.12,30H16.34l-3.48-6a1.9,1.9,0,0,1-.25-.75,2,2,0,0,1,1-2l.87-.5a2,2,0,0,1,2.73.74Z"/><path class="cls-4" d="M20,30H16.34l-3.48-6a1.9,1.9,0,0,1-.25-.75l.85-.49a2,2,0,0,1,2.73.74Z"/><path class="cls-5" d="M46,22v8a1,1,0,0,1-2,0V22Z"/><path class="cls-5" d="M40,22v8a1,1,0,0,1-2,0V22Z"/><path class="cls-5" d="M34,22v8a1,1,0,0,1-2,0V22Z"/><path class="cls-6" d="M53,36v4a2,2,0,0,1-2,2H13a2,2,0,0,1-2-2V36Z"/><path class="cls-3" d="M50.25,36v1.88a2,2,0,0,1-2,2H11V36Z"/><path class="cls-7" d="M20,57a3,3,0,0,1-3,3,2.93,2.93,0,0,1-2.24-1A3,3,0,0,1,17,54h.23a2.89,2.89,0,0,1,1.6.62A3,3,0,0,1,20,57Z"/><path class="cls-7" d="M50,57a3,3,0,0,1-3,3,2.93,2.93,0,0,1-2.24-1A3,3,0,0,1,44,57a2.94,2.94,0,0,1,.84-2.07A3,3,0,0,1,47,54a1,1,0,0,1,.24,0A3,3,0,0,1,50,57Z"/><path class="cls-6" d="M18,56a3,3,0,0,1-3,3,1,1,0,0,1-.24,0A3,3,0,0,1,17,54h.23A2.92,2.92,0,0,1,18,56Z"/><path class="cls-6" d="M48,56a3,3,0,0,1-3,3,1,1,0,0,1-.24,0A3,3,0,0,1,44,57a2.94,2.94,0,0,1,.84-2.07A3,3,0,0,1,47,54a1,1,0,0,1,.24,0A3,3,0,0,1,48,56Z"/><path class="cls-8" d="M40,35H39a1,1,0,0,0,0,2h1a1,1,0,0,0,0-2Z"/><path class="cls-8" d="M60,21H56a1,1,0,0,0-1,1v7H52V24a3,3,0,0,0-3-3H29a3,3,0,0,0-3,3v5H22.7l-4.64-8a3,3,0,0,0-1.82-1.4,3,3,0,0,0-2.28.29l-.88.51A3,3,0,0,0,12,24.47L14.61,29H9V22a1,1,0,0,0-1-1H4V6A1,1,0,0,1,5,5H8V7.5a3.5,3.5,0,0,0,7,0V4a1,1,0,0,0-2,0V7.5a1.5,1.5,0,0,1-3,0V4A1,1,0,0,0,9,3H5A3,3,0,0,0,2,6V34a3,3,0,0,0,3,3h5v3a3,3,0,0,0,3,3h3.78l12.55,5.83L18.9,53.5A4,4,0,0,0,17,53a4,4,0,1,0,3.86,5H43.14a4,4,0,1,0,1.54-4.25L34.14,48.86,47.21,43H51a3,3,0,0,0,3-3V37h5a3,3,0,0,0,3-3V23A2,2,0,0,0,60,21ZM50,24v5H46V23h3A1,1,0,0,1,50,24ZM40,29V23h4v6Zm-6,0V23h4v6Zm-6-5a1,1,0,0,1,1-1h3v6H28Zm-14.27-.53a1,1,0,0,1,.36-1.37l.87-.5a1,1,0,0,1,1.36.37l4.07,7H16.92ZM17,59a2,2,0,1,1,2-2A2,2,0,0,1,17,59Zm32-2a2,2,0,1,1-3.44-1.38l0,0A2,2,0,0,1,47,55,2,2,0,0,1,49,57Zm-5.63-1.65a3.87,3.87,0,0,0-.23.65H20.86a3.54,3.54,0,0,0-.42-1l11.29-5.06ZM31.74,47.74,21.53,43h20.8ZM60,34a1,1,0,0,1-1,1H44a1,1,0,0,0,0,2h8v3a1,1,0,0,1-1,1H13a1,1,0,0,1-1-1V37H35a1,1,0,0,0,0-2H5a1,1,0,0,1-1-1V23H7v6a2,2,0,0,0,2,2H55a2,2,0,0,0,2-2V23h3Z"/></g></svg>