<svg xmlns="http://www.w3.org/2000/svg" viewBox="0 0 64 64"><defs><style>.cls-1{fill:#96a1c3;}.cls-2{fill:#ccd3eb;}.cls-3{fill:#647499;}.cls-4{fill:#0074ff;}.cls-5{fill:#f5f7ff;}.cls-6{fill:#d7e9f7;}.cls-7{fill:#033c59;}</style></defs><title>Surgery</title><g id="Surgery"><rect class="cls-1" x="11" y="52" width="42" height="4" rx="1" ry="1"/><path class="cls-2" d="M50.75,52v1.06a1,1,0,0,1-1,1H11V53a1,1,0,0,1,1-1Z"/><path class="cls-3" d="M50,57a3,3,0,0,1-3,3,2.93,2.93,0,0,1-2.24-1A3,3,0,0,1,44,57a2.77,2.77,0,0,1,.18-1h5.64A2.77,2.77,0,0,1,50,57Z"/><path class="cls-3" d="M20,57a3,3,0,0,1-3,3,2.93,2.93,0,0,1-2.24-1A3,3,0,0,1,14,57a2.77,2.77,0,0,1,.18-1h5.64A2.77,2.77,0,0,1,20,57Z"/><path class="cls-1" d="M48,56a3,3,0,0,1-3,3,1,1,0,0,1-.24,0A3,3,0,0,1,44,57a2.77,2.77,0,0,1,.18-1Z"/><path class="cls-1" d="M18,56a3,3,0,0,1-3,3,1,1,0,0,1-.24,0A3,3,0,0,1,14,57a2.77,2.77,0,0,1,.18-1Z"/><path class="cls-1" d="M36,46v6H28V46a1,1,0,0,1,1-1h6A1,1,0,0,1,36,46Z"/><path class="cls-2" d="M34,45v3.4A1.6,1.6,0,0,1,32.4,50H28V46a1,1,0,0,1,1-1Z"/><rect class="cls-1" x="30" y="39" width="4" height="6"/><path class="cls-2" d="M33,39v3.65A1.36,1.36,0,0,1,31.65,44H30V39Z"/><rect class="cls-4" x="4" y="35" width="56" height="4" rx="1" ry="1"/><path class="cls-2" d="M58,32.5A2.5,2.5,0,0,1,55.5,35H8.5A2.5,2.5,0,0,1,6,33a2.32,2.32,0,0,1,0-.46A2.5,2.5,0,0,1,8.5,30h47A2.32,2.32,0,0,1,56,30a2.5,2.5,0,0,1,2,2.46Z"/><path class="cls-5" d="M56,30.5A2.5,2.5,0,0,1,53.5,33H6.5A2.32,2.32,0,0,1,6,33a2.32,2.32,0,0,1,0-.46A2.5,2.5,0,0,1,8.5,30h47A2.32,2.32,0,0,1,56,30,2.32,2.32,0,0,1,56,30.5Z"/><path class="cls-4" d="M20,28v2H10V28a2,2,0,0,1,2-2h6A2,2,0,0,1,20,28Z"/><path class="cls-6" d="M32,8a1,1,0,0,1-1-1V4a1,1,0,0,1,2,0V7A1,1,0,0,1,32,8Z"/><path class="cls-3" d="M35,8v3H29V8a1,1,0,0,1,1-1h4A1,1,0,0,1,35,8Z"/><path class="cls-1" d="M40,15a1,1,0,0,1-1,1H25a1,1,0,0,1-1-1,3.93,3.93,0,0,1,.36-1.64,3.87,3.87,0,0,1,.81-1.19A4,4,0,0,1,28,11h8A4,4,0,0,1,40,15Z"/><path class="cls-2" d="M37.87,16H25a1,1,0,0,1-1-1,3.93,3.93,0,0,1,.36-1.64A3.93,3.93,0,0,1,26,13h8A4,4,0,0,1,37.87,16Z"/><path class="cls-7" d="M60,34H58.65A3.45,3.45,0,0,0,59,32.5,3.52,3.52,0,0,0,58,30a3.48,3.48,0,0,0-2.48-1H48a1,1,0,0,0,0,2h7.5a1.5,1.5,0,0,1,1.06.44A1.48,1.48,0,0,1,57,32.5,1.5,1.5,0,0,1,55.5,34H8.5a1.5,1.5,0,0,1-1.06-.44A1.48,1.48,0,0,1,7,32.5,1.5,1.5,0,0,1,8.5,31H39a1,1,0,0,0,0-2H21V28a3,3,0,0,0-3-3H12a3,3,0,0,0-3,3v1H8.5A3.5,3.5,0,0,0,5,32.5,3.55,3.55,0,0,0,5.35,34H4a1,1,0,0,0-1,1v4a1,1,0,0,0,1,1H29v4H28a1,1,0,0,0-1,1v6H11a1,1,0,0,0-1,1v4a1,1,0,0,0,1,1h2a4,4,0,0,0,8,0H43a4,4,0,0,0,8,0h2a1,1,0,0,0,1-1V52a1,1,0,0,0-1-1H37V45a1,1,0,0,0-1-1H35V40H60a1,1,0,0,0,1-1V35A1,1,0,0,0,60,34ZM11,28a1,1,0,0,1,1-1h6a1,1,0,0,1,1,1v1H11Zm6,31a2,2,0,0,1-2-2h4A2,2,0,0,1,17,59Zm30,0a2,2,0,0,1-2-2h4A2,2,0,0,1,47,59Zm5-4H12V53H52ZM29,51V46h6v5Zm4-7H31V40h2Zm26-6H5V36H59Z"/><path class="cls-7" d="M43,31h1a1,1,0,0,0,0-2H43a1,1,0,0,0,0,2Z"/><path class="cls-7" d="M24,17H40a1,1,0,0,0,1-1V15a5,5,0,0,0-5-5V7a1,1,0,0,0-1-1H33V4a1,1,0,0,0-2,0V6H29a1,1,0,0,0-1,1v3a5,5,0,0,0-5,5v1A1,1,0,0,0,24,17Zm6-9h4v2H30Zm-2,4h8a3,3,0,0,1,3,3H25A3,3,0,0,1,28,12Z"/></g></svg>