<svg xmlns="http://www.w3.org/2000/svg" viewBox="0 0 64 64"><defs><style>.cls-1{fill:#9db8d3;}.cls-2{fill:#0074ff;}.cls-3{fill:#96a1c3;}.cls-4{fill:#ccd3eb;}.cls-5{fill:#f5f7ff;}.cls-6{fill:none;}.cls-7{fill:#033c59;}</style></defs><title>Syringe</title><g id="Syringe"><path class="cls-1" d="M4,61.18a1,1,0,0,1-.71-1.71L18,44.77a1,1,0,0,1,1.42,0,1,1,0,0,1,0,1.41L4.71,60.88A1,1,0,0,1,4,61.18Z"/><rect class="cls-2" x="45.84" y="9.84" width="11" height="6" transform="translate(5.96 40.06) rotate(-45)"/><path class="cls-3" d="M44.27,31.22,32.84,42.65a5,5,0,0,1-7.07,0l-4.24-4.24a5,5,0,0,1-1.2-5.14A5.11,5.11,0,0,1,21,32a4.07,4.07,0,0,1,.53-.65l.82-.82h0l1.76-1.76h0l4.23-4.23h0l1.41-1.42.71-.71.71-.7,2.19-2.19Z"/><polygon class="cls-4" points="53.11 22.38 44.27 31.22 33.38 19.49 36.14 16.73 36.84 16.02 38.26 14.61 38.96 13.9 41.79 11.07 45.33 14.61 49.57 18.85 51.29 20.57 53.11 22.38"/><path class="cls-4" d="M42.93,28.93,32.72,39.14a5,5,0,0,1-7.07,0L21.41,34.9a4.93,4.93,0,0,1-1.08-1.63A5.11,5.11,0,0,1,21,32a4.07,4.07,0,0,1,.53-.65l.82-.82h0l1.76-1.76h0l4.23-4.23h0l1.41-1.42.71-.71.71-.7,2.25-2.24Z"/><polygon class="cls-5" points="51.29 20.57 42.93 28.93 33.44 19.44 36.14 16.73 36.84 16.02 38.26 14.61 38.96 13.9 41.79 11.07 45.33 14.61 49.57 18.85 51.29 20.57"/><line class="cls-6" x1="33.44" y1="19.44" x2="33" y2="19"/><path class="cls-2" d="M25.77,42.65l-2.83,2.83a3,3,0,0,1-4.24-4.25l2.83-2.82Z"/><path class="cls-1" d="M26.94,30.16a1,1,0,0,1-1.41,0l-1.41-1.41h0l1.41-1.41,1.41,1.42A1,1,0,0,1,26.94,30.16Z"/><path class="cls-1" d="M31.19,28.75a1,1,0,0,1-.71.29,1,1,0,0,1-.71-.29l-2.83-2.83,1.41-1.41h0l2.83,2.82A1,1,0,0,1,31.19,28.75Z"/><path class="cls-1" d="M25.19,34.75a1,1,0,0,1-.71.29,1,1,0,0,1-.71-.29L21,32a4.07,4.07,0,0,1,.53-.65l.82-.82h0l2.83,2.82A1,1,0,0,1,25.19,34.75Z"/><path class="cls-1" d="M32.6,24.51a1,1,0,0,1-1.41,0l-1.42-1.42.71-.71.71-.7,1.41,1.41A1,1,0,0,1,32.6,24.51Z"/><path class="cls-1" d="M38.26,18.85a1,1,0,0,1-1.42,0l-1.41-1.41.71-.71.7-.71,1.42,1.42A1,1,0,0,1,38.26,18.85Z"/><path class="cls-1" d="M42.5,17.43a1,1,0,0,1-.71.3,1,1,0,0,1-.7-.3l-2.83-2.82.7-.71.71-.71L42.5,16A1,1,0,0,1,42.5,17.43Z"/><path class="cls-7" d="M36.64,37.43l-.91.91a1,1,0,0,0,0,1.42,1,1,0,0,0,1.42,0l.91-.91a1,1,0,0,0-1.42-1.42Z"/><path class="cls-7" d="M60.88,13.19l-2.82-2.83L53.81,6.12,51,3.29a1,1,0,0,0-1.42,1.42l2.12,2.12-6.36,6.36-.08-.08L39.67,7.54a1,1,0,0,0-1.41,0,1,1,0,0,0,0,1.41l2.12,2.12L20.82,30.63a6,6,0,0,0-.63,7.7L18,40.53a3.95,3.95,0,0,0-.6,4.85L3.29,59.47a1,1,0,1,0,1.42,1.41L18.8,46.79a3.94,3.94,0,0,0,4.85-.61L25.84,44a6,6,0,0,0,7.71-.63l1.21-1.21a1,1,0,0,0-1.42-1.42l-1.21,1.21a4,4,0,0,1-5.65,0h0L22.24,37.7h0a4,4,0,0,1-.52-5l2.06,2.06a1,1,0,0,0,.71.29,1,1,0,0,0,.71-.29,1,1,0,0,0,0-1.42l-2.13-2.12,1.76-1.76.71.71a1,1,0,0,0,1.41,0,1,1,0,0,0,0-1.41L26.23,28l1.42-1.41,2.12,2.12a1,1,0,0,0,.71.29,1,1,0,0,0,.71-.29,1,1,0,0,0,0-1.42l-2.13-2.12,1.42-1.41.71.71a1,1,0,1,0,1.41-1.42l-.71-.71L33.31,21l9.9,9.9-3.78,3.77a1,1,0,0,0,1.42,1.42l4.47-4.48h0l7.78-7.77,2.12,2.12a1,1,0,0,0,1.41,0,1,1,0,0,0,0-1.41L53.83,21.7v0L51,18.85l6.36-6.36,2.12,2.12a1,1,0,0,0,.71.29,1,1,0,0,0,.7-.29A1,1,0,0,0,60.88,13.19ZM22.24,44.77a2,2,0,0,1-2.83,0,2,2,0,0,1,0-2.83l2.12-2.12,2.83,2.83ZM44.62,29.46l-9.9-9.91,1.41-1.41.71.71a1,1,0,0,0,1.42,0,1,1,0,0,0,0-1.41l-.71-.71L39,15.31l2.13,2.12a1,1,0,0,0,.7.3A1,1,0,0,0,42.5,16L40.38,13.9l1.41-1.42,2.61,2.61.22.22h0l4.24,4.25h0l2.82,2.82Zm5-12-2.83-2.82,6.37-6.37,2.83,2.83Z"/><line class="cls-6" x1="45" y1="32" x2="44.27" y2="31.22"/><line class="cls-6" x1="33.38" y1="19.49" x2="32" y2="18"/></g></svg>