<svg xmlns="http://www.w3.org/2000/svg" viewBox="0 0 64 64"><defs><style>.cls-1{fill:#ccd3eb;}.cls-2{fill:#f5f7ff;}.cls-3{fill:#96a1c3;}.cls-4{fill:#0074ff;}.cls-5{fill:#033c59;}</style></defs><title>Syrup</title><g id="Syrup"><rect class="cls-1" x="12" y="4" width="25" height="28"/><path class="cls-2" d="M36,4V29H23.38A12.39,12.39,0,0,1,12,21.51V4Z"/><path class="cls-3" d="M51,10V26H47l-.79,1.58A8,8,0,0,1,39.06,32H37V4h2.06a8,8,0,0,1,7.15,4.42L47,10Z"/><path class="cls-3" d="M12,4V32H8a4,4,0,0,1-4-4V8A4,4,0,0,1,8,4Z"/><path class="cls-1" d="M51,10V21H47l-.79,1.58A8,8,0,0,1,39.06,27H37V4h2.06a8,8,0,0,1,7.15,4.42L47,10Z"/><path class="cls-1" d="M12,4V27H8a4,4,0,0,1-4-4V8A4,4,0,0,1,8,4Z"/><path class="cls-4" d="M31.32,17.5s-4.62,5.17-7.47,5.17a5.17,5.17,0,0,1,0-10.34C26.7,12.33,31.32,17.5,31.32,17.5Z"/><path class="cls-4" d="M58.19,38.44A4.19,4.19,0,0,1,54,42.62a3.66,3.66,0,0,1-1-.13,4.17,4.17,0,0,1-3.19-4.05c0-1.58,1.95-3.83,3.19-5.09.58-.59,1-1,1-1S58.19,36.12,58.19,38.44Z"/><path class="cls-3" d="M63,48v2A10,10,0,0,1,53,60a22.45,22.45,0,0,1-17.18-8H8.1C6.94,52,6,51.4,6,50.67V49.33a.93.93,0,0,1,0-.29A2.12,2.12,0,0,1,8.1,48Z"/><path class="cls-1" d="M9.1,48H64a9.94,9.94,0,0,1-9.8,9c-6.63,0-12.71-1.87-17-6.79a.61.61,0,0,0-.46-.21H6"/><path class="cls-3" d="M55,10V26a2,2,0,0,1-4,0V10a2,2,0,0,1,2-2,2,2,0,0,1,2,2Z"/><path class="cls-5" d="M39.06,33a9,9,0,0,0,8-5l.51-1h2.56A3,3,0,0,0,56,26V24a1,1,0,0,0-2,0v2a1,1,0,0,1-2,0V10a1,1,0,0,1,1-1,1,1,0,0,1,.71.31A.93.93,0,0,1,54,10v5a1,1,0,0,0,2,0V10a3,3,0,0,0-3-3,3,3,0,0,0-2.82,2H47.62l-.51-1a9,9,0,0,0-8-5H8A5,5,0,0,0,3,8V28a5,5,0,0,0,5,5ZM13,31V5H36V31ZM45.32,8.87l.79,1.58A1,1,0,0,0,47,11h3V25H47a1,1,0,0,0-.89.55l-.79,1.58A7,7,0,0,1,39.06,31H38V5h1.06A7,7,0,0,1,45.32,8.87ZM5,28V8A3,3,0,0,1,8,5h3V31H8A3,3,0,0,1,5,28Z"/><path class="cls-5" d="M32.07,16.83c-.5-.56-5-5.5-8.22-5.5a6.17,6.17,0,0,0,0,12.34c3.21,0,7.72-4.94,8.22-5.5A1,1,0,0,0,32.07,16.83Zm-8.22,4.84a4.17,4.17,0,0,1,0-8.34c1.55,0,4.33,2.34,6.11,4.17C28.18,19.33,25.4,21.67,23.85,21.67Z"/><path class="cls-5" d="M54.67,31.63a1,1,0,0,0-1.34,0c-.75.67-4.52,4.18-4.52,6.81a5.19,5.19,0,0,0,10.38,0C59.19,35.81,55.42,32.3,54.67,31.63Zm-.67,10a3.2,3.2,0,0,1-3.19-3.19c0-1.12,1.7-3.22,3.19-4.69,1.49,1.47,3.19,3.57,3.19,4.69A3.2,3.2,0,0,1,54,41.63Z"/><path class="cls-5" d="M63,47H8.1C6.36,47,5,48,5,49.33v1.34C5,52,6.36,53,8.1,53H35.38A23.41,23.41,0,0,0,53,61,11,11,0,0,0,64,50V48A1,1,0,0,0,63,47Zm-1,3a9,9,0,0,1-9,9,21.43,21.43,0,0,1-16.41-7.64,1,1,0,0,0-.77-.36H8.1A1.66,1.66,0,0,1,7,50.67V49.38A1.41,1.41,0,0,1,8.1,49H62Z"/><path class="cls-5" d="M55,18a1,1,0,0,0-1,1v1a1,1,0,0,0,2,0V19A1,1,0,0,0,55,18Z"/></g></svg>