<svg xmlns="http://www.w3.org/2000/svg" viewBox="0 0 64 64"><defs><style>.cls-1{fill:#96a1c3;}.cls-2{fill:#fe9661;}.cls-3{fill:#ccd3eb;}.cls-4{fill:#f5f7ff;}.cls-5{fill:#f0f7fc;}.cls-6{fill:#0074ff;}.cls-7{fill:#033c59;}</style></defs><title>Thermometer</title><g id="Thermometer"><path class="cls-1" d="M49,6.08A11.92,11.92,0,0,0,41,3H23A12,12,0,0,0,11,15V49A12,12,0,0,0,23,61H41A12,12,0,0,0,53,49V15A12,12,0,0,0,49,6.08ZM27,40.52V12a4.62,4.62,0,0,1,.1-1,5,5,0,0,1,9.8,0,4.62,4.62,0,0,1,.1,1V40.52A9,9,0,0,1,40.78,46,9.24,9.24,0,0,1,41,48a9.18,9.18,0,0,1-1.1,4.31A9,9,0,1,1,27,40.52Z"/><path class="cls-2" d="M44.83,13H37a1,1,0,0,1,0-2h7.83a1,1,0,0,1,0,2Z"/><path class="cls-2" d="M27,13H19.17a1,1,0,0,1,0-2H27a1,1,0,0,1,0,2Z"/><path class="cls-3" d="M50,11V45A13,13,0,0,1,37,58H19a12.81,12.81,0,0,1-4.92-1A11.92,11.92,0,0,1,11,49V15A12,12,0,0,1,23,3H41a11.92,11.92,0,0,1,8,3.08A12.81,12.81,0,0,1,50,11Z"/><path class="cls-2" d="M44.83,21H37a1,1,0,0,1,0-2h7.83a1,1,0,0,1,0,2Z"/><path class="cls-2" d="M27,21H19.17a1,1,0,0,1,0-2H27a1,1,0,0,1,0,2Z"/><path class="cls-2" d="M44.83,29H37a1,1,0,0,1,0-2h7.83a1,1,0,0,1,0,2Z"/><path class="cls-2" d="M27,29H19.17a1,1,0,0,1,0-2H27a1,1,0,0,1,0,2Z"/><path class="cls-2" d="M44.83,37H37a1,1,0,0,1,0-2h7.83a1,1,0,0,1,0,2Z"/><path class="cls-2" d="M27,37H19.17a1,1,0,0,1,0-2H27a1,1,0,0,1,0,2Z"/><path class="cls-3" d="M40.78,46A9,9,0,0,0,37,40.52V12a4.62,4.62,0,0,0-.1-1,5,5,0,0,0-9.8,0,4.62,4.62,0,0,0-.1,1V40.52a9,9,0,0,0,3.47,16.35A8.62,8.62,0,0,0,32,57a9,9,0,0,0,8.49-6A8.87,8.87,0,0,0,41,48,9.24,9.24,0,0,0,40.78,46ZM28,48a4,4,0,0,1,3-3.87,3.83,3.83,0,0,1,2,0A4,4,0,1,1,28,48Z"/><path class="cls-4" d="M38,48a9.18,9.18,0,0,1-1.1,4.31,9,9,0,0,1-6.43,4.56A9,9,0,0,1,27,40.52V12a4.62,4.62,0,0,1,.1-1,5,5,0,0,1,3.4-3.78A5,5,0,0,1,33.9,11a4.62,4.62,0,0,1,.1,1V40.52A9,9,0,0,1,37.78,46,9.24,9.24,0,0,1,38,48Z"/><path class="cls-5" d="M32,45a1,1,0,0,1-1-1V15a1,1,0,0,1,2,0V44A1,1,0,0,1,32,45Z"/><circle class="cls-6" cx="32" cy="48" r="4"/><path class="cls-7" d="M41,2H23A13,13,0,0,0,10,15V49A13,13,0,0,0,23,62H41A13,13,0,0,0,54,49V15A13,13,0,0,0,41,2ZM52,49A11,11,0,0,1,41,60H23A11,11,0,0,1,12,49V15A11,11,0,0,1,23,4H41A11,11,0,0,1,52,15Z"/><path class="cls-7" d="M41,48a1,1,0,0,0-1.09.91,5.69,5.69,0,0,1-.14.86A1,1,0,0,0,40.53,51a1,1,0,0,0,.24,0,1,1,0,0,0,1-.76,8.55,8.55,0,0,0,.2-1.16A1,1,0,0,0,41,48Z"/><path class="cls-7" d="M33,43.1V15a1,1,0,0,0-2,0V43.1a5,5,0,1,0,2,0ZM32,51a3,3,0,1,1,3-3A3,3,0,0,1,32,51Z"/><path class="cls-7" d="M44.83,13a1,1,0,0,0,0-2H37.91a6,6,0,0,0-11.82,0H19.17a1,1,0,0,0,0,2H26v6H19.17a1,1,0,0,0,0,2H26v6H19.17a1,1,0,0,0,0,2H26v6H19.17a1,1,0,0,0,0,2H26v3A10,10,0,1,0,40.19,53.74a1,1,0,1,0-1.64-1.16,8,8,0,1,1-11-11.23s0-.05.06-.06l.15-.15.1-.15a1.34,1.34,0,0,0,.07-.18,1.18,1.18,0,0,0,0-.2s0-.06,0-.09V12a4,4,0,0,1,8,0V40.52s0,.06,0,.09a1.18,1.18,0,0,0,0,.2,1.11,1.11,0,0,0,.17.33,1,1,0,0,0,.15.14.23.23,0,0,0,.07.07,8.07,8.07,0,0,1,3.12,4,1,1,0,0,0,.94.67,1,1,0,0,0,.33-.06,1,1,0,0,0,.61-1.27A10.06,10.06,0,0,0,38,40V37h6.83a1,1,0,0,0,0-2H38V29h6.83a1,1,0,0,0,0-2H38V21h6.83a1,1,0,0,0,0-2H38V13Z"/></g></svg>