<svg xmlns="http://www.w3.org/2000/svg" xmlns:xlink="http://www.w3.org/1999/xlink" viewBox="0 0 64 64"><defs><style>.cls-1{fill:#b4cde1;}.cls-2{fill:#96a1c3;}.cls-3{fill:#d7e9f7;}.cls-4{fill:#0074ff;}.cls-5{fill:#ccd3eb;}.cls-6{fill:#eb7f58;}.cls-7{fill:#e0633d;}.cls-8{fill:#f5f7ff;}.cls-9{fill:#f0f7fc;}.cls-10{fill:url(#linear-gradient);}.cls-11{fill:#033c59;}</style><linearGradient id="linear-gradient" x1="31" y1="49" x2="35" y2="49" gradientUnits="userSpaceOnUse"><stop offset="0" stop-color="#d3e6f5"/><stop offset="1" stop-color="#f0f7fc"/></linearGradient></defs><title>Ultrasonography</title><g id="Ultrasonography"><path class="cls-1" d="M49,61H44a6,6,0,0,1-6-6V49a1,1,0,0,1,2,0v6a4,4,0,0,0,4,4h5a4,4,0,0,0,4-4V34a1,1,0,0,1,2,0V55A6,6,0,0,1,49,61Z"/><path class="cls-2" d="M42,4H6A2,2,0,0,0,4,6V36a2,2,0,0,0,2,2H42a2,2,0,0,0,2-2V6A2,2,0,0,0,42,4ZM40,34H8V8H40Z"/><rect class="cls-3" x="10" y="38" width="28" height="5"/><path class="cls-4" d="M42,43H6a2,2,0,0,0-2,2v8a2,2,0,0,0,2,2H42a2,2,0,0,0,2-2V45A2,2,0,0,0,42,43ZM27,50a1,1,0,1,1,1-1A1,1,0,0,1,27,50Zm6,0a1,1,0,1,1,1-1A1,1,0,0,1,33,50Zm6,0a1,1,0,1,1,1-1A1,1,0,0,1,39,50Z"/><path class="cls-1" d="M17,48H8a1,1,0,0,0,0,2h9a1,1,0,0,0,0-2Z"/><path class="cls-2" d="M57,24v8a2,2,0,0,1-2,2H53a2,2,0,0,1-2-2V24Z"/><path class="cls-5" d="M55,24v6a2,2,0,0,1-2,2H51V24Z"/><path class="cls-2" d="M60,21.69A2.3,2.3,0,0,1,57.69,24H50.31a2.27,2.27,0,0,1-1.63-.68A2.22,2.22,0,0,1,48,22a2.83,2.83,0,0,1,0-.29A5.69,5.69,0,0,1,53.69,16h.62a5.78,5.78,0,0,1,4,1.67A5.67,5.67,0,0,1,60,21.69Z"/><path class="cls-5" d="M58,19.69A2.3,2.3,0,0,1,55.69,22H48.31L48,22a2.83,2.83,0,0,1,0-.29A5.69,5.69,0,0,1,53.69,16h.62a5.58,5.58,0,0,1,2.89.8A5.58,5.58,0,0,1,58,19.69Z"/><path class="cls-6" d="M56.12,12.88a1,1,0,0,1-.71-.29,2,2,0,0,0-2.82,0,1,1,0,0,1-1.42-1.42,4.1,4.1,0,0,1,5.66,0,1,1,0,0,1,0,1.42A1,1,0,0,1,56.12,12.88Z"/><path class="cls-7" d="M59,10a1,1,0,0,1-.71-.29,6.06,6.06,0,0,0-8.58,0,1,1,0,0,1-1.42-1.42,8.09,8.09,0,0,1,11.42,0,1,1,0,0,1,0,1.42A1,1,0,0,1,59,10Z"/><path class="cls-5" d="M8,8V34H40V8Zm27.41,8.3Q33.57,21,32,25.73a26.09,26.09,0,0,0-16,0Q14.43,21,12.59,16.3A36.49,36.49,0,0,1,35.41,16.3Z"/><path class="cls-8" d="M38,8V25a7,7,0,0,1-7,7H8V8Z"/><path class="cls-4" d="M35.21,16.8c-1.09,2.8-2.11,5.63-3.05,8.47a.48.48,0,0,1-.61.31,26.23,26.23,0,0,0-15.1,0,.48.48,0,0,1-.61-.31c-.94-2.84-2-5.67-3.05-8.47a.5.5,0,0,1,.31-.67,36.67,36.67,0,0,1,21.8,0A.5.5,0,0,1,35.21,16.8Z"/><path class="cls-9" d="M39,47a2,2,0,1,0,2,2A2,2,0,0,0,39,47Zm0,2Z"/><path class="cls-10" d="M33,47a2,2,0,1,0,2,2A2,2,0,0,0,33,47Zm0,2Z"/><path class="cls-3" d="M27,47a2,2,0,1,0,2,2A2,2,0,0,0,27,47Zm0,2Z"/><path class="cls-11" d="M36.32,15.87a1,1,0,0,0-.59-.52,37.77,37.77,0,0,0-23.46,0,1,1,0,0,0-.59.52,1,1,0,0,0,0,.79C12.88,19.75,14,22.9,15,26a1,1,0,0,0,.5.58,1,1,0,0,0,.76.06,24.86,24.86,0,0,1,15.4,0,1.12,1.12,0,0,0,.31.05A1,1,0,0,0,33,26c1-3.14,2.16-6.29,3.38-9.38A1,1,0,0,0,36.32,15.87Zm-4.95,8.62a26.88,26.88,0,0,0-14.74,0c-.84-2.53-1.75-5.07-2.72-7.56a35.89,35.89,0,0,1,20.18,0C33.12,19.42,32.21,22,31.37,24.49Z"/><circle class="cls-11" cx="33" cy="49" r="2"/><circle class="cls-11" cx="27" cy="49" r="2"/><path class="cls-11" d="M17,48H8a1,1,0,0,0,0,2h9a1,1,0,0,0,0-2Z"/><path class="cls-11" d="M61,21.69A6.7,6.7,0,0,0,54.31,15h-.62A6.7,6.7,0,0,0,47,21.69,3.3,3.3,0,0,0,50,25v7a3,3,0,0,0,3,3V55a4,4,0,0,1-4,4H44a4,4,0,0,1-3.86-3H42a3,3,0,0,0,3-3V45a3,3,0,0,0-3-3H39V39h3a3,3,0,0,0,3-3V6a3,3,0,0,0-3-3H6A3,3,0,0,0,3,6V36a3,3,0,0,0,3,3H9v3H6a3,3,0,0,0-3,3v8a3,3,0,0,0,3,3H38.09A6,6,0,0,0,44,61h5a6,6,0,0,0,6-6V35a3,3,0,0,0,3-3V25A3.3,3.3,0,0,0,61,21.69ZM5,36V6A1,1,0,0,1,6,5H42a1,1,0,0,1,1,1V36a1,1,0,0,1-1,1H6A1,1,0,0,1,5,36Zm6,3H37v3H11ZM5,53V45a1,1,0,0,1,1-1H42a1,1,0,0,1,1,1v8a1,1,0,0,1-1,1H40V50.72a2,2,0,1,0-2,0V54H6A1,1,0,0,1,5,53ZM56,32a1,1,0,0,1-1,1H53a1,1,0,0,1-1-1V25h4Zm1.69-9H50.31A1.31,1.31,0,0,1,49,21.69,4.69,4.69,0,0,1,53.69,17h.62A4.69,4.69,0,0,1,59,21.69,1.31,1.31,0,0,1,57.69,23Z"/><path class="cls-11" d="M51.17,11.17a1,1,0,0,0,1.42,1.42,2,2,0,0,1,2.82,0,1,1,0,0,0,.71.29,1,1,0,0,0,.71-.29,1,1,0,0,0,0-1.42A4.1,4.1,0,0,0,51.17,11.17Z"/><path class="cls-11" d="M49.71,9.71a6.06,6.06,0,0,1,8.58,0,1,1,0,0,0,1.42,0,1,1,0,0,0,0-1.42,8.09,8.09,0,0,0-11.42,0,1,1,0,0,0,1.42,1.42Z"/><path class="cls-11" d="M27,34a1,1,0,0,0-1-1H9V9H39V33H35a1,1,0,0,0,0,2h5a1,1,0,0,0,1-1V8a1,1,0,0,0-1-1H8A1,1,0,0,0,7,8V34a1,1,0,0,0,1,1H26A1,1,0,0,0,27,34Z"/><path class="cls-11" d="M31,33H30a1,1,0,0,0,0,2h1a1,1,0,0,0,0-2Z"/></g></svg>