<svg xmlns="http://www.w3.org/2000/svg" viewBox="0 0 64 64"><defs><style>.cls-1{fill:#0668cb;}.cls-2{fill:#96a1c3;}.cls-3{fill:#ccd3eb;}.cls-4{fill:#0074ff;}.cls-5{fill:#f5f7ff;}.cls-6{fill:#647499;}.cls-7{fill:#fe9661;}.cls-8{fill:#033c59;}</style></defs><title>Waiting room</title><g id="Waiting_room" data-name="Waiting room"><path class="cls-1" d="M57,61a1,1,0,0,1-1-1V55a1,1,0,0,1,2,0v5A1,1,0,0,1,57,61Z"/><path class="cls-1" d="M7,61a1,1,0,0,1-1-1V55a1,1,0,0,1,2,0v5A1,1,0,0,1,7,61Z"/><rect class="cls-2" x="4" y="44" width="56" height="7" rx="2" ry="2"/><path class="cls-3" d="M56,44v2a2,2,0,0,1-2,2H4V46a2,2,0,0,1,2-2Z"/><rect class="cls-4" x="7" y="51" width="50" height="4"/><path class="cls-3" d="M56,31V44H8V31a5,5,0,0,1,5-5h6a5.1,5.1,0,0,1,2.22.52A5,5,0,0,1,24,31a5,5,0,0,1,5-5h6a5.1,5.1,0,0,1,2.22.52A5,5,0,0,1,40,31a5,5,0,0,1,5-5h6a4.79,4.79,0,0,1,1.7.3A5,5,0,0,1,56,31Z"/><path class="cls-5" d="M53,28v5.12A7.88,7.88,0,0,1,45.12,41H8V31a5,5,0,0,1,5-5h6a4.79,4.79,0,0,1,1.7.3A4.79,4.79,0,0,1,21,28a5.2,5.2,0,0,1,.22-1.48A5,5,0,0,1,24,31a5,5,0,0,1,5-5h6a4.79,4.79,0,0,1,1.7.3A4.79,4.79,0,0,1,37,28a5.2,5.2,0,0,1,.22-1.48A5,5,0,0,1,40,31a5,5,0,0,1,5-5h6a4.79,4.79,0,0,1,1.7.3A4.79,4.79,0,0,1,53,28Z"/><path class="cls-6" d="M38,10a6,6,0,0,1-11.12,3.12A5.91,5.91,0,0,1,26,10a6,6,0,0,1,6-6,5.91,5.91,0,0,1,3.12.88A6,6,0,0,1,38,10Z"/><path class="cls-2" d="M36,8a6,6,0,0,1-6,6,5.91,5.91,0,0,1-3.12-.88A5.91,5.91,0,0,1,26,10a6,6,0,0,1,6-6,5.91,5.91,0,0,1,3.12.88A5.91,5.91,0,0,1,36,8Z"/><path class="cls-7" d="M34,12H32a1,1,0,0,1-1-1V8a1,1,0,0,1,2,0v2h1a1,1,0,0,1,0,2Z"/><path class="cls-8" d="M58,43H57V31a6,6,0,0,0-6-6H45a6,6,0,0,0-5,2.69A6,6,0,0,0,35,25H29a6,6,0,0,0-5,2.69A6,6,0,0,0,19,25H13a6,6,0,0,0-6,6V43H6a3,3,0,0,0-3,3v3a3,3,0,0,0,3,3v8a1,1,0,0,0,2,0V56H56v4a1,1,0,0,0,2,0V52a3,3,0,0,0,3-3V46A3,3,0,0,0,58,43ZM45,27h6a4,4,0,0,1,4,4V43H41V31A4,4,0,0,1,45,27ZM29,27h6a4,4,0,0,1,4,4V43H25V31A4,4,0,0,1,29,27ZM9,31a4,4,0,0,1,4-4h6a4,4,0,0,1,4,4V43H9ZM59,49a1,1,0,0,1-1,1H50a1,1,0,0,0,0,2h6v2H8V52H41a1,1,0,0,0,0-2H6a1,1,0,0,1-1-1V46a1,1,0,0,1,1-1H58a1,1,0,0,1,1,1Z"/><path class="cls-8" d="M46,50H45a1,1,0,0,0,0,2h1a1,1,0,0,0,0-2Z"/><path class="cls-8" d="M32,17a7,7,0,1,0-7-7A7,7,0,0,0,32,17ZM32,5a5,5,0,1,1-5,5A5,5,0,0,1,32,5Z"/><path class="cls-8" d="M32,12h2a1,1,0,0,0,0-2H33V8a1,1,0,0,0-2,0v3A1,1,0,0,0,32,12Z"/></g></svg>