<svg xmlns="http://www.w3.org/2000/svg" viewBox="0 0 64 64"><defs><style>.cls-1{fill:#ccd3eb;}.cls-2{fill:#f5f7ff;}.cls-3{fill:#0074ff;}.cls-4{fill:none;stroke:#000;stroke-linecap:round;stroke-linejoin:round;stroke-width:2px;}.cls-5{fill:#fe9661;}.cls-6{fill:#f0f7fc;}.cls-7{fill:#96a1c3;}.cls-8{fill:#033c59;}</style></defs><title>Weight scale</title><g id="Weight_scale" data-name="Weight scale"><rect class="cls-1" x="4" y="3" width="56" height="58" rx="2" ry="2"/><path class="cls-2" d="M57,3V40.5A17.56,17.56,0,0,1,39.5,58H4V5A2,2,0,0,1,6,3Z"/><path class="cls-3" d="M44,19a8.27,8.27,0,0,1,0,1,11.86,11.86,0,0,1-1,4H34a2,2,0,0,0-4,0H21.08a11.86,11.86,0,0,1-1-4A8.27,8.27,0,0,1,20,19c0-.34,0-.67,0-1a11.86,11.86,0,0,1,1.1-4.11,10.8,10.8,0,0,1,1-1.74,11.88,11.88,0,0,1,3-3,10.8,10.8,0,0,1,1.74-1A11.86,11.86,0,0,1,31,7c.33,0,.66,0,1,0s.67,0,1,0a11.86,11.86,0,0,1,4.11,1.1,10.8,10.8,0,0,1,1.74,1,11.88,11.88,0,0,1,3,3,10.8,10.8,0,0,1,1,1.74A11.86,11.86,0,0,1,44,18C44,18.33,44,18.66,44,19Z"/><circle class="cls-4" cx="32" cy="24" r="2"/><path class="cls-5" d="M32,23a1,1,0,0,1-1-1V13a1,1,0,0,1,2,0v9A1,1,0,0,1,32,23Z"/><path class="cls-6" d="M23,19a1,1,0,0,1-1,1H20.05A8.27,8.27,0,0,1,20,19c0-.34,0-.67,0-1h2A1,1,0,0,1,23,19Z"/><path class="cls-6" d="M44,19a8.27,8.27,0,0,1,0,1H42a1,1,0,0,1,0-2h2C44,18.33,44,18.66,44,19Z"/><path class="cls-6" d="M33,7V9a1,1,0,0,1-2,0V7Z"/><path class="cls-6" d="M38.85,9.15l-1,1.69a1,1,0,0,1-1.74-1l1-1.7A10.8,10.8,0,0,1,38.85,9.15Z"/><path class="cls-6" d="M42.86,13.89l-1.7,1a1,1,0,1,1-1-1.74l1.69-1A10.8,10.8,0,0,1,42.86,13.89Z"/><path class="cls-6" d="M27.5,11.21a1,1,0,0,1-1.37-.37l-1-1.69a10.8,10.8,0,0,1,1.74-1l1,1.7A1,1,0,0,1,27.5,11.21Z"/><path class="cls-6" d="M24.21,14.5a1,1,0,0,1-1.37.37l-1.7-1a10.8,10.8,0,0,1,1-1.74l1.69,1A1,1,0,0,1,24.21,14.5Z"/><path class="cls-7" d="M27,36V48a8,8,0,0,1-15.48,2.83A7.82,7.82,0,0,1,11,48V36a8,8,0,0,1,13.49-5.81,1.14,1.14,0,0,1,.17.15A8,8,0,0,1,27,36Z"/><path class="cls-1" d="M25,33V45a8,8,0,0,1-13.48,5.83A7.82,7.82,0,0,1,11,48V36a8,8,0,0,1,13.49-5.81A8,8,0,0,1,25,33Z"/><path class="cls-7" d="M53,36V48a8,8,0,0,1-15,4,7.87,7.87,0,0,1-1-4V36a8,8,0,0,1,8-8,7.9,7.9,0,0,1,4,1.05,7.76,7.76,0,0,1,1.71,1.29A8,8,0,0,1,53,36Z"/><path class="cls-1" d="M50,33V45a8,8,0,0,1-8,8,7.87,7.87,0,0,1-4-1,7.87,7.87,0,0,1-1-4V36a8,8,0,0,1,8-8,7.9,7.9,0,0,1,4,1.05A7.9,7.9,0,0,1,50,33Z"/><circle class="cls-5" cx="32" cy="24" r="3"/><path class="cls-8" d="M58,2H6A3,3,0,0,0,3,5V59a3,3,0,0,0,3,3H58a3,3,0,0,0,3-3V5A3,3,0,0,0,58,2Zm1,57a1,1,0,0,1-1,1H6a1,1,0,0,1-1-1V5A1,1,0,0,1,6,4H58a1,1,0,0,1,1,1Z"/><path class="cls-8" d="M42.92,25a1,1,0,0,0,.91-.59,13,13,0,0,0-.55-11.84.64.64,0,0,0,0-.07.34.34,0,0,0-.06-.06A13,13,0,0,0,38.57,7.8l-.07-.06-.07,0a12.88,12.88,0,0,0-12.86,0l-.07,0a.34.34,0,0,0-.06.06,12.9,12.9,0,0,0-4.64,4.64l-.06.06s0,0,0,.06a13,13,0,0,0-.55,11.85,1,1,0,0,0,.91.59h8.1a3,3,0,0,0,5.64,0ZM21.05,20H22a1,1,0,0,0,0-2h-.95a11.09,11.09,0,0,1,1-3.6l.82.47a1,1,0,1,0,1-1.74L23,12.66A11.41,11.41,0,0,1,25.66,10l.47.82a1,1,0,1,0,1.74-1L27.4,9a11.09,11.09,0,0,1,3.6-1V9a1,1,0,0,0,2,0V8.05a11.09,11.09,0,0,1,3.6,1l-.47.82a1,1,0,0,0,1.74,1l.47-.82A11.41,11.41,0,0,1,41,12.66l-.82.47a1,1,0,0,0,1,1.74L42,14.4A11.09,11.09,0,0,1,43,18H42a1,1,0,0,0,0,2h1a11,11,0,0,1-.69,3H34.82A3,3,0,0,0,33,21.18V13a1,1,0,0,0-2,0v8.18A3,3,0,0,0,29.18,23H21.74A11.09,11.09,0,0,1,21.05,20Z"/><path class="cls-8" d="M19,27a9,9,0,0,0-9,9V48a9,9,0,0,0,18,0V46a1,1,0,0,0-2,0v2a7,7,0,0,1-14,0V36a7,7,0,1,1,14,0v1a1,1,0,0,0,2,0V36a9,9,0,0,0-9-9Z"/><path class="cls-8" d="M27,40a1,1,0,0,0-1,1v1a1,1,0,0,0,2,0V41A1,1,0,0,0,27,40Z"/><path class="cls-8" d="M45,27a9,9,0,0,0-9,9V48a9,9,0,0,0,18,0V36A9,9,0,0,0,45,27Zm7,21a7,7,0,0,1-14,0V36a7,7,0,0,1,14,0Z"/></g></svg>