<svg xmlns="http://www.w3.org/2000/svg" viewBox="0 0 64 64"><defs><style>.cls-1{fill:#647499;}.cls-2{fill:#96a1c3;}.cls-3{fill:#9db8d3;}.cls-4{fill:#ccd3eb;}.cls-5{fill:#f5f7ff;}.cls-6{fill:#0074ff;}.cls-7{fill:#b4cde1;}.cls-8{fill:#033c59;}</style></defs><title>Wheelchair</title><g id="Wheelchair"><path class="cls-1" d="M16,9v2H5a2,2,0,0,1-1.41-.59A1.81,1.81,0,0,1,3.27,10,2,2,0,0,1,3,9a1.89,1.89,0,0,1,.18-.82A2,2,0,0,1,5,7h9A2,2,0,0,1,16,9Z"/><path class="cls-2" d="M13,8v.35A1.65,1.65,0,0,1,11.35,10H3.27A2,2,0,0,1,3,9a1.89,1.89,0,0,1,.18-.82A1.89,1.89,0,0,1,4,8Z"/><path class="cls-3" d="M16,18.5a1,1,0,0,1-1-1v-6a1,1,0,0,1,2,0v6A1,1,0,0,1,16,18.5Z"/><path class="cls-2" d="M48,22H16V17H43a5,5,0,0,1,5,5Z"/><path class="cls-4" d="M44,22H16V17H39a5,5,0,0,1,5,5Z"/><circle class="cls-5" cx="16" cy="43.5" r="6"/><polygon class="cls-4" points="48 21.5 48 37.5 28 37.5 25.43 36 16 30.5 16 21.5 48 21.5"/><path class="cls-5" d="M44,21.5v8.08A6.41,6.41,0,0,1,37.58,36H25.43L16,30.5v-9Z"/><path class="cls-6" d="M16,31.5a13,13,0,1,0,13,13A13,13,0,0,0,16,31.5Zm0,19a6,6,0,1,1,6-6A6,6,0,0,1,16,50.5Z"/><path class="cls-7" d="M48,48.5a1,1,0,0,1-1-1v-9a1,1,0,0,1,2,0v9A1,1,0,0,1,48,48.5Z"/><path class="cls-3" d="M61,51H57a1,1,0,0,1,0-2h4a1,1,0,0,1,0,2Z"/><circle class="cls-6" cx="48" cy="52.5" r="5"/><path class="cls-8" d="M61,49H57.85L56.13,38.67a2,2,0,0,0-2-1.67H49V22a6,6,0,0,0-6-6H17V9a3,3,0,0,0-3-3H5a3,3,0,0,0,0,6H15V30.05a14,14,0,1,0,14.06,9H47v7.09a6,6,0,1,0,2,0V39h5.15L56,50.16c0,.05,0,.09.05.13a.88.88,0,0,0,0,.15,1.13,1.13,0,0,0,.12.18.52.52,0,0,0,.1.11l.19.13.11.07A1.16,1.16,0,0,0,57,51h4a1,1,0,0,0,0-2ZM5,10A1,1,0,0,1,5,8h9a1,1,0,0,1,1,1v1ZM16,56A12,12,0,1,1,28,44,12,12,0,0,1,16,56ZM28.11,37A14,14,0,0,0,17,30.05V23H34a1,1,0,0,0,0-2H17V18H43a4,4,0,0,1,2.83,1.16A4.1,4.1,0,0,1,46.88,21H43a1,1,0,0,0,0,2h4V37ZM52,52a4,4,0,1,1-4-4A4,4,0,0,1,52,52Z"/><path class="cls-8" d="M39,21H38a1,1,0,0,0,0,2h1a1,1,0,0,0,0-2Z"/><circle class="cls-5" cx="48" cy="52" r="2"/><path class="cls-8" d="M16,37a7,7,0,1,0,7,7A7,7,0,0,0,16,37Zm0,12a5,5,0,1,1,5-5A5,5,0,0,1,16,49Z"/></g></svg>