<svg xmlns="http://www.w3.org/2000/svg" xmlns:xlink="http://www.w3.org/1999/xlink" viewBox="0 0 64 64"><defs><style>.cls-1{fill:#ccd3eb;}.cls-2{fill:#96a1c3;}.cls-3{fill:#0074ff;}.cls-4{fill:#f0f7fc;}.cls-5{fill:url(#linear-gradient);}.cls-6{fill:#d7e9f7;}.cls-7{fill:#b4cde1;}.cls-8{fill:#f5f7ff;}.cls-9{fill:#033c59;}</style><linearGradient id="linear-gradient" x1="40" y1="54" x2="44" y2="54" gradientUnits="userSpaceOnUse"><stop offset="0" stop-color="#d3e6f5"/><stop offset="1" stop-color="#f0f7fc"/></linearGradient></defs><title>X ray</title><g id="X_ray" data-name="X ray"><path class="cls-1" d="M53,8H11a1,1,0,0,0-1,1V39a1,1,0,0,0,1,1H53a1,1,0,0,0,1-1V9A1,1,0,0,0,53,8ZM36.93,35.74a1.1,1.1,0,0,1-.67.26H34.5a2.5,2.5,0,0,1-1.77-.73,1,1,0,0,0-1.46,0A2.5,2.5,0,0,1,29.5,36H27.74a1.1,1.1,0,0,1-.67-.26,2.71,2.71,0,0,1-.34-4A2.5,2.5,0,0,1,28.5,31h7a2.5,2.5,0,0,1,1.77.73A2.71,2.71,0,0,1,36.93,35.74Z"/><path class="cls-1" d="M54,4H10A4,4,0,0,0,6,8V40a4,4,0,0,0,4,4H54a4,4,0,0,0,4-4V8A4,4,0,0,0,54,4Zm0,36H10V8H54Z"/><rect class="cls-2" x="12" y="44" width="40" height="4"/><path class="cls-1" d="M50,44v.41A1.59,1.59,0,0,1,48.41,46H12V44Z"/><path class="cls-3" d="M56,48H8a2,2,0,0,0-2,2v8a2,2,0,0,0,2,2H56a2,2,0,0,0,2-2V50A2,2,0,0,0,56,48ZM34,55a1,1,0,1,1,1-1A1,1,0,0,1,34,55Zm8,0a1,1,0,1,1,1-1A1,1,0,0,1,42,55Zm8,0a1,1,0,1,1,1-1A1,1,0,0,1,50,55Z"/><path class="cls-4" d="M50,52a2,2,0,1,0,2,2A2,2,0,0,0,50,52Zm0,2Z"/><path class="cls-5" d="M42,52a2,2,0,1,0,2,2A2,2,0,0,0,42,52Zm0,2Z"/><path class="cls-6" d="M34,52a2,2,0,1,0,2,2A2,2,0,0,0,34,52Zm0,2Z"/><path class="cls-7" d="M23,53H13a1,1,0,0,0,0,2H23a1,1,0,0,0,0-2Z"/><path class="cls-7" d="M36.68,22.22a1,1,0,0,0,1,.78l.22,0c1.34-.3,3.12-.85,3.12-2.22s-1.78-1.93-3.12-2.22A26,26,0,0,0,33,18V15a18.78,18.78,0,0,1,3.71.46,6.43,6.43,0,0,1,.87.28,8.68,8.68,0,0,1-.87.27A1,1,0,0,0,37,18a1.07,1.07,0,0,0,.25,0c.69-.18,2.8-.71,2.8-2.21s-2.11-2-2.8-2.22A20.77,20.77,0,0,0,33,13V12a1,1,0,0,0-2,0v1a20.77,20.77,0,0,0-4.2.52c-.69.18-2.8.71-2.8,2.22s2.11,2,2.8,2.21A1,1,0,1,0,27.29,16a8.68,8.68,0,0,1-.87-.27,6.43,6.43,0,0,1,.87-.28A18.78,18.78,0,0,1,31,15v3a26,26,0,0,0-4.88.52c-1.34.29-3.12.84-3.12,2.22s1.78,1.92,3.12,2.22a1,1,0,1,0,.43-2,9,9,0,0,1-1-.26,6.89,6.89,0,0,1,1-.27A24.81,24.81,0,0,1,31,20v3a20.77,20.77,0,0,0-4.2.52c-.69.18-2.8.71-2.8,2.22s2.11,2,2.8,2.21A1,1,0,1,0,27.29,26a8.68,8.68,0,0,1-.87-.27,6.43,6.43,0,0,1,.87-.28A18.78,18.78,0,0,1,31,25v5H28.5a3.5,3.5,0,0,0,0,7h1A3.49,3.49,0,0,0,32,36a3.49,3.49,0,0,0,2.5,1h1a3.5,3.5,0,1,0,0-7H33V25a18.78,18.78,0,0,1,3.71.46,6.43,6.43,0,0,1,.87.28,8.68,8.68,0,0,1-.87.27A1,1,0,0,0,37,28a1.07,1.07,0,0,0,.25,0c.69-.18,2.8-.71,2.8-2.21s-2.11-2-2.8-2.22A20.77,20.77,0,0,0,33,23V20a24.81,24.81,0,0,1,4.45.47,6.89,6.89,0,0,1,1,.27,9,9,0,0,1-1,.26A1,1,0,0,0,36.68,22.22ZM37,33.5A1.5,1.5,0,0,1,35.5,35h-1A1.5,1.5,0,0,1,33,33.5V32h2.5A1.5,1.5,0,0,1,37,33.5Zm-6,0A1.5,1.5,0,0,1,29.5,35h-1a1.5,1.5,0,0,1,0-3H31Z"/><path class="cls-8" d="M51,8V32.92A7.08,7.08,0,0,1,43.92,40H11a1,1,0,0,1-1-1V9a1,1,0,0,1,1-1Z"/><path class="cls-3" d="M31,32v1.5A1.5,1.5,0,0,1,29.5,35h-1a1.5,1.5,0,0,1,0-3Z"/><path class="cls-3" d="M37,33.5A1.5,1.5,0,0,1,35.5,35h-1A1.5,1.5,0,0,1,33,33.5V32h2.5A1.5,1.5,0,0,1,37,33.5Z"/><path class="cls-9" d="M54,45a5,5,0,0,0,5-5V8a5,5,0,0,0-5-5H10A5,5,0,0,0,5,8V40a5,5,0,0,0,5,5h1v2H8a3,3,0,0,0-3,3v8a3,3,0,0,0,3,3H56a3,3,0,0,0,3-3V50a3,3,0,0,0-3-3H53V45ZM7,40V8a3,3,0,0,1,3-3H54a3,3,0,0,1,3,3V40a3,3,0,0,1-3,3H10A3,3,0,0,1,7,40Zm44,7H46a1,1,0,0,0,0,2H56a1,1,0,0,1,1,1v8a1,1,0,0,1-1,1H8a1,1,0,0,1-1-1V50a1,1,0,0,1,1-1H37a1,1,0,0,0,0-2H13V45H51Z"/><path class="cls-9" d="M41,49h1a1,1,0,0,0,0-2H41a1,1,0,0,0,0,2Z"/><circle class="cls-8" cx="50" cy="54" r="2"/><circle class="cls-8" cx="42" cy="54" r="2"/><circle class="cls-8" cx="34" cy="54" r="2"/><path class="cls-8" d="M23,53H13a1,1,0,0,0,0,2H23a1,1,0,0,0,0-2Z"/><path class="cls-9" d="M26.12,23a1,1,0,1,0,.43-2,9,9,0,0,1-1-.26,6.89,6.89,0,0,1,1-.27A24.81,24.81,0,0,1,31,20v3a20.77,20.77,0,0,0-4.2.52c-.69.18-2.8.71-2.8,2.22s2.11,2,2.8,2.21A1,1,0,1,0,27.29,26a8.68,8.68,0,0,1-.87-.27,6.43,6.43,0,0,1,.87-.28A18.78,18.78,0,0,1,31,25v5H28.5a3.5,3.5,0,0,0,0,7h1A3.5,3.5,0,0,0,32,35.94,3.5,3.5,0,0,0,34.5,37h1a3.5,3.5,0,0,0,0-7H33V25a18.78,18.78,0,0,1,3.71.46,6.43,6.43,0,0,1,.87.28,8.68,8.68,0,0,1-.87.27A1,1,0,0,0,37,28a1.07,1.07,0,0,0,.25,0c.69-.18,2.8-.71,2.8-2.21s-2.11-2-2.8-2.22A20.77,20.77,0,0,0,33,23V20a24.81,24.81,0,0,1,4.45.47,6.89,6.89,0,0,1,1,.27,9,9,0,0,1-1,.26,1,1,0,0,0,.21,2l.22,0c1.34-.3,3.12-.85,3.12-2.22s-1.78-1.93-3.12-2.22A26,26,0,0,0,33,18V15a18.78,18.78,0,0,1,3.71.46,6.43,6.43,0,0,1,.87.28,8.68,8.68,0,0,1-.87.27A1,1,0,0,0,37,18a1.07,1.07,0,0,0,.25,0c.69-.18,2.8-.71,2.8-2.21s-2.11-2-2.8-2.22A20.77,20.77,0,0,0,33,13V12a1,1,0,0,0-2,0v1a20.77,20.77,0,0,0-4.2.52c-.69.18-2.8.71-2.8,2.22s2.11,2,2.8,2.21A1,1,0,1,0,27.29,16a8.68,8.68,0,0,1-.87-.27,6.43,6.43,0,0,1,.87-.28A18.78,18.78,0,0,1,31,15v3a26,26,0,0,0-4.88.52c-1.34.29-3.12.84-3.12,2.22S24.78,22.68,26.12,23ZM29.5,35h-1a1.5,1.5,0,0,1,0-3H31v1.5A1.5,1.5,0,0,1,29.5,35ZM37,33.5A1.5,1.5,0,0,1,35.5,35h-1A1.5,1.5,0,0,1,33,33.5V32h2.5A1.5,1.5,0,0,1,37,33.5Z"/><path class="cls-9" d="M55,40V8a1,1,0,0,0-1-1H10A1,1,0,0,0,9,8V40a1,1,0,0,0,1,1H54A1,1,0,0,0,55,40Zm-2-1H11V9H53Z"/></g></svg>